<mxfile host="app.diagrams.net" agent="Mozilla/5.0 (Macintosh; Intel Mac OS X 10_15_7) AppleWebKit/537.36 (KHTML, like Gecko) Chrome/140.0.0.0 Safari/537.36 Edg/140.0.0.0" version="28.0.7">
  <diagram name="Page-1" id="QY6pTCrRi5agI6nGqy8u">
    <mxGraphModel dx="1922" dy="1038" grid="1" gridSize="10" guides="1" tooltips="1" connect="1" arrows="1" fold="1" page="1" pageScale="1" pageWidth="1700" pageHeight="1100" math="0" shadow="0">
      <root>
        <mxCell id="0" />
        <mxCell id="1" parent="0" />
        <mxCell id="nlxBfLqZfcz5ABgJfBdi-16" value="" style="group" vertex="1" connectable="0" parent="1">
          <mxGeometry x="200" y="50" width="420" height="340" as="geometry" />
        </mxCell>
        <mxCell id="nlxBfLqZfcz5ABgJfBdi-7" value="" style="group" vertex="1" connectable="0" parent="nlxBfLqZfcz5ABgJfBdi-16">
          <mxGeometry x="210" width="200" height="330" as="geometry" />
        </mxCell>
        <mxCell id="nlxBfLqZfcz5ABgJfBdi-2" value="&lt;div&gt;&lt;br&gt;&lt;/div&gt;&lt;div&gt;&lt;br&gt;&lt;/div&gt;&lt;div&gt;&lt;br&gt;&lt;/div&gt;&lt;div&gt;&lt;br&gt;&lt;/div&gt;&lt;div&gt;&lt;br&gt;&lt;/div&gt;&lt;div&gt;&lt;br&gt;&lt;/div&gt;&lt;div&gt;&lt;br&gt;&lt;/div&gt;&lt;div&gt;&lt;br&gt;&lt;/div&gt;&lt;div&gt;&lt;br&gt;&lt;/div&gt;&lt;div&gt;&lt;br&gt;&lt;/div&gt;&lt;div&gt;&lt;br&gt;&lt;/div&gt;&lt;div&gt;&lt;br&gt;&lt;/div&gt;&lt;div&gt;&lt;br&gt;&lt;/div&gt;&lt;div&gt;&lt;br&gt;&lt;/div&gt;&lt;div&gt;&lt;br&gt;&lt;/div&gt;&lt;div style=&quot;&quot;&gt;&lt;span style=&quot;background-color: transparent; color: light-dark(rgb(0, 0, 0), rgb(255, 255, 255));&quot;&gt;Back End&lt;/span&gt;&lt;/div&gt;" style="rounded=1;whiteSpace=wrap;html=1;align=center;fillColor=#dae8fc;strokeColor=#6c8ebf;" vertex="1" parent="nlxBfLqZfcz5ABgJfBdi-7">
          <mxGeometry width="160" height="260" as="geometry" />
        </mxCell>
        <mxCell id="nlxBfLqZfcz5ABgJfBdi-3" value="Ground Truth API" style="rounded=1;whiteSpace=wrap;html=1;" vertex="1" parent="nlxBfLqZfcz5ABgJfBdi-7">
          <mxGeometry x="20" y="20" width="120" height="60" as="geometry" />
        </mxCell>
        <mxCell id="nlxBfLqZfcz5ABgJfBdi-4" value="Ground Truth Core" style="rounded=1;whiteSpace=wrap;html=1;" vertex="1" parent="nlxBfLqZfcz5ABgJfBdi-7">
          <mxGeometry x="20" y="90" width="120" height="60" as="geometry" />
        </mxCell>
        <mxCell id="nlxBfLqZfcz5ABgJfBdi-5" value="Ground Truth Infrastructure" style="rounded=1;whiteSpace=wrap;html=1;" vertex="1" parent="nlxBfLqZfcz5ABgJfBdi-7">
          <mxGeometry x="20" y="160" width="120" height="60" as="geometry" />
        </mxCell>
        <mxCell id="nlxBfLqZfcz5ABgJfBdi-10" value="" style="group" vertex="1" connectable="0" parent="nlxBfLqZfcz5ABgJfBdi-16">
          <mxGeometry width="420" height="340" as="geometry" />
        </mxCell>
        <mxCell id="nlxBfLqZfcz5ABgJfBdi-17" value="&lt;div&gt;&lt;br&gt;&lt;/div&gt;&lt;div&gt;&lt;br&gt;&lt;/div&gt;&lt;div&gt;&lt;br&gt;&lt;/div&gt;&lt;div&gt;&lt;br&gt;&lt;/div&gt;&lt;div&gt;&lt;br&gt;&lt;/div&gt;&lt;div&gt;&lt;br&gt;&lt;/div&gt;&lt;div&gt;&lt;br&gt;&lt;/div&gt;&lt;div&gt;&lt;br&gt;&lt;/div&gt;&lt;div&gt;&lt;br&gt;&lt;/div&gt;&lt;div&gt;&lt;br&gt;&lt;/div&gt;&lt;div&gt;&lt;br&gt;&lt;/div&gt;&lt;div&gt;&lt;br&gt;&lt;/div&gt;&lt;div&gt;&lt;br&gt;&lt;/div&gt;&lt;div&gt;&lt;br&gt;&lt;/div&gt;&lt;div&gt;&lt;br&gt;&lt;/div&gt;&lt;div&gt;&lt;br&gt;&lt;/div&gt;&lt;div&gt;&lt;br&gt;&lt;/div&gt;&lt;div&gt;&lt;br&gt;&lt;/div&gt;&lt;div&gt;&lt;br&gt;&lt;/div&gt;&lt;div&gt;&lt;br&gt;&lt;/div&gt;&lt;div&gt;&lt;br&gt;&lt;/div&gt;&lt;div&gt;&lt;br&gt;&lt;/div&gt;&lt;div&gt;&lt;br&gt;&lt;/div&gt;&lt;div&gt;Ground Truth Application&lt;/div&gt;" style="rounded=1;whiteSpace=wrap;html=1;fillColor=none;" vertex="1" parent="nlxBfLqZfcz5ABgJfBdi-10">
          <mxGeometry x="-20" y="-20" width="430" height="350" as="geometry" />
        </mxCell>
        <mxCell id="nlxBfLqZfcz5ABgJfBdi-6" value="&lt;div&gt;&lt;br&gt;&lt;/div&gt;&lt;div&gt;&lt;br&gt;&lt;/div&gt;&lt;div&gt;&lt;br&gt;&lt;/div&gt;&lt;div&gt;&lt;br&gt;&lt;/div&gt;&lt;div&gt;&lt;br&gt;&lt;/div&gt;&lt;div&gt;&lt;br&gt;&lt;/div&gt;&lt;div&gt;&lt;br&gt;&lt;/div&gt;&lt;div&gt;&lt;br&gt;&lt;/div&gt;&lt;div&gt;&lt;br&gt;&lt;/div&gt;&lt;div&gt;&lt;br&gt;&lt;/div&gt;&lt;div style=&quot;&quot;&gt;&lt;span style=&quot;background-color: transparent; color: light-dark(rgb(0, 0, 0), rgb(255, 255, 255));&quot;&gt;Front End&lt;/span&gt;&lt;/div&gt;" style="rounded=1;whiteSpace=wrap;html=1;align=center;fillColor=#e1d5e7;strokeColor=#9673a6;" vertex="1" parent="nlxBfLqZfcz5ABgJfBdi-10">
          <mxGeometry width="160" height="190" as="geometry" />
        </mxCell>
        <mxCell id="nlxBfLqZfcz5ABgJfBdi-8" value="Components" style="rounded=1;whiteSpace=wrap;html=1;" vertex="1" parent="nlxBfLqZfcz5ABgJfBdi-10">
          <mxGeometry x="20" y="20" width="120" height="60" as="geometry" />
        </mxCell>
        <mxCell id="nlxBfLqZfcz5ABgJfBdi-9" value="Services" style="rounded=1;whiteSpace=wrap;html=1;" vertex="1" parent="nlxBfLqZfcz5ABgJfBdi-10">
          <mxGeometry x="20" y="90" width="120" height="60" as="geometry" />
        </mxCell>
        <mxCell id="nlxBfLqZfcz5ABgJfBdi-13" value="" style="endArrow=classic;startArrow=classic;html=1;rounded=0;" edge="1" parent="nlxBfLqZfcz5ABgJfBdi-10" source="nlxBfLqZfcz5ABgJfBdi-4">
          <mxGeometry width="50" height="50" relative="1" as="geometry">
            <mxPoint x="240" y="130" as="sourcePoint" />
            <mxPoint x="290" y="80" as="targetPoint" />
          </mxGeometry>
        </mxCell>
        <mxCell id="nlxBfLqZfcz5ABgJfBdi-11" value="" style="endArrow=classic;startArrow=classic;html=1;rounded=0;exitX=0.5;exitY=0;exitDx=0;exitDy=0;" edge="1" parent="nlxBfLqZfcz5ABgJfBdi-10" source="nlxBfLqZfcz5ABgJfBdi-5">
          <mxGeometry width="50" height="50" relative="1" as="geometry">
            <mxPoint x="240" y="200" as="sourcePoint" />
            <mxPoint x="290" y="150" as="targetPoint" />
          </mxGeometry>
        </mxCell>
        <mxCell id="nlxBfLqZfcz5ABgJfBdi-14" value="Ground Truth Database" style="image;aspect=fixed;html=1;points=[];align=center;fontSize=12;image=img/lib/azure2/databases/SQL_Database.svg;" vertex="1" parent="nlxBfLqZfcz5ABgJfBdi-10">
          <mxGeometry x="56" y="220" width="48" height="64" as="geometry" />
        </mxCell>
        <mxCell id="nlxBfLqZfcz5ABgJfBdi-19" value="" style="shape=image;verticalLabelPosition=bottom;labelBackgroundColor=default;verticalAlign=top;aspect=fixed;imageAspect=0;image=data:image/png,iVBORw0KGgoAAAANSUhEUgAABLAAAAKjCAYAAAANs/bAAAAQAElEQVR4AezdB4AcVf0H8O9v9i7XktA7SEtyd0loiqiABQURLKgUBSuKKCodQRQkKFUEpEsREcWCoihi+wtYQTCAQMiVJPQqnSR3l7vb+f2/70IJSS65u32z9bt5L7Nl5vfe+8zs3s5vZ2cT6CIBCUhAAhKQgAQkIAEJSEACEpBAtQtofBKoaAElsCp69anzEpCABCQgAQlIQAISkEDxBNSSBCQgAQmUSkAJrFLJq10JSEACEpCABCRQiwIaswQkIAEJSEACEhiDgBJYY0DTIhKQgAQkIIFSCqhtCUhAAhKQgAQkIAEJ1JqAEli1tsY1XglIIAioSkACEpCABCQgAQlIQAISkEAFCSiBVUErq7y6qt5IQAISkIAEJCABCUhAAhKQgAQkUP0C5TFCJbDKYz2oFxKQgAQkIAEJSEACEpCABCRQrQIalwQkULCAElgFEyqABCQgAQlIQAISkIAEJJC1gOJLQAISkEBtCyiBVdvrX6OXgAQkIAEJSKB2BDRSCUhAAhKQgAQkULECSmBV7KpTxyUgAQlIoPgCalECEpCABCQgAQlIQAISKIWAElilUFebEqhlAY1dAhKQgAQkIAEJSEACEpCABCQwSgElsEYJVg6zqw8SkIAEJCABCUhAAhKQgAQkIAEJVL+ARviqgBJYr1romgQkIAEJSEACEpCABCQgAQlUl4BGIwEJVImAElhVsiI1DAlIQAISkIAEJCABCWQjoKgSkIAEJCCB0gsogVX6daAeSEACEpCABCRQ7QIanwQkIAEJSEACEpBAQQJKYBXEp4UlIAEJSKBYAmpHAhKQgAQkIAEJSEACEqhdASWwanfda+S1J6ARS0ACEpCABCQgAQlIQAISkIAEKlJACaxRrTbNLAEJSEACEpCABCQgAQlIQAISkED1C2iE5SagBFa5rRH1RwISkIAEJCABCUhAAhKQQDUIaAwSkIAEIgoogRURU6EkIAEJSEACEpCABCQQU0CxJCABCUhAAhJYLKAE1mIH/S8BCUhAAhKQQHUKaFQSkIAEJCABCUhAAlUgoARWFaxEDUECEpBAtgKKLgEJSEACEpCABCQgAQlIoLQCSmCV1l+t14qAxikBCUhAAhKQgAQkIAEJSEACEpDAmAUqJoE15hFqQQlIQAISkIAEJCABCUhAAhKQgAQqRkAdlcDyBJTAWp6K7pOABCQgAQlIQAISkIAEJFC5Auq5BCQggaoTUAKr6lapBiQBCUhAAhKQgAQkULiAIkhAAhKQgAQkUE4CSmCV09pQXyQgAQlIQALVJKCxSEACEpCABCQgAQlIIJKAEliRIBVGAhKQQBYCiikBCUhAAhKQgAQkIAEJSEACgBJY2gqqXUDjk4AEJCABCUhAAhKQgAQkIAEJSKDCBUaQwKrwEar7EpCABCQgAQlIQAISkIAEJCABCYxAQLNIoHwFlMAq33WjnklAAhKQgAQkIAEJSEAClSag/kpAAhKQQCYCSmBlwqqgEpCABCQgAQlIQAJjFdByEpCABCQgAQlIYGkBJbCWFtFtCUhAAhKQQOULaAQSkIAEJCABCUhAAhKoKgElsKpqdWowEpBAPAFFkoAEJCABCUhAAhKQgAQkIIFyEVACq1zWRDX2Q2OSgAQkIAEJSEACEpCABCQgAQlIoPoFijBCJbCKgKwmJCABCUhAAhKQgAQkIAEJSEACKxLQYxKQwIoFlMBasY8elYAEJCABCUhAAhKQgAQqQ0C9lIAEJCCBKhZQAquKV66GJgEJSEACEpCABEYnoLklIAEJSEACEpBAeQoogVWe60W9koAEJCCBShVQvyUgAQlIQAISkIAEJCCB6AJKYEUnVUAJSKBQAS0vAQlIQAISkIAEJCABCUhAAhJYUkAJrCU1que6RiIBCUhAAhKQgAQkIAEJSEACEpBA9QvUzAiVwKqZVa2BSkACEpCABCQgAQlIQAISkMCyArpHAhKoBAElsCphLamPEpCABCQgAQlIQAISKGcB9U0CEpCABCSQsYASWBkDK7wEJCABCUhAAhIYiYDmkYAEJCABCUhAAhIYXkAJrOFt9IgEJCABCVSWgHorAQlIQAISkIAEJCABCVSpgBJYVbpiNSwJjE1AS0lAAhKQgAQkIAEJSEACEpCABMpPQAms2OtE8SQgAQlIQAISkIAEJCABCUhAAhKofgGNsKgCSmAVlVuNSUACEpCABCQgAQlIQAISkMDLAppKQAISGKmAElgjldJ8EpCABCQgAQlIQAISKD8B9UgCEpCABCRQEwJKYNXEatYgJSABCUhAAhIYXkCPSEACEpCABCQgAQmUu4ASWOW+htQ/CUhAApUgoD5KQAISkIAEJCABCUhAAhLIUEAJrAxxFVoCoxHQvBKQgAQkIAEJSEACEpCABCQgAQksX6CaEljLH6HulYAEJCABCUhAAhKQgAQkIAEJSKCaBDSWGhRQAqsGV7qGLAEJSEACEpCABCQgAQnUuoDGLwEJSKCyBJTAqqz1pd5KQAISkIAEJCABCZSLgPohAQlIQAISkEDRBJTAKhq1GpKABCQgAQlIYGkB3ZaABCQgAQlIQAISkMBIBJTAGomS5pGABCRQvgLqmQQkIAEJSEACEpCABCQggaoXUAKr6lexBrhyAc0hAQlIQAISkIAEJCABCUhAAhKQQDkLxElglfMI1TcJSEACEpCABCQgAQlIQAISkIAE4ggoigRKJKAEVong1awEJCABCUhAAhKQgAQkUJsCGrUEJCABCYxeQAms0ZtpCQlIQAISkIAEJCCB0gqodQlIQAISkIAEakxACawaW+EargQkIAEJSGCxgP6XgAQkIAEJSEACEpBA5QgogVU560o9lYAEyk1A/ZGABCQgAQlIQAISkIAEJCCBoggogVUUZjUynIDul4AEJCABCUhAAhKQgAQkIAEJSKD6BQodoRJYhQpqeQlIQAISkIAEJCABCUhAAhKQQPYCakECNS2gBFZNr34NXgISkIAEJCABCUhAArUkoLFKQAISkEClCiiBValrTv2WgAQkIAEJSEACpRBQmxKQgAQkIAEJSKAEAkpglQBdTUpAAhKQQG0LaPQSkIAEJCABCUhAAhKQwOgElMAanZfmloAEykNAvZCABCQgAQlIQAISkIAEJCCBGhJQAquGVvZrh6pbEpCABCQgAQlIQAISkIAEJCABCVS/QHWMUAms6liPGoUEJCABCUhAAhKQgAQkIAEJZCWguBKQQMkFlMAq+SpQByQgAQlIQAISkIAEJFD9AhqhBCQgAQlIoBABJbAK0dOyEpCABCQgAQlIoHgCakkCEpCABCQgAQnUrIASWDW76jVwCUhAArUooDFLQAISkIAEJCABCUhAApUooARWJa419VkCpRRQ2xKQgAQkIAEJSEACEpCABCQggSILKIFVZPDQnKoEJCABCUhAAhKQgAQkIAEJSEAC1S+gEcYTUAIrnqUiSUACEpCABCQgAQlIQAISkEBcAUWTgAQkMCSgBNYQg/6TgAQkIAEJSEACEpBAtQpoXBKQgAQkIIHKF1ACq/LXoUYgAQlIQAISkEDWAoovAQlIQAISkIAEJFBSASWwSsqvxiUgAQnUjoBGKgEJSEACEpCABCQgAQlIYKwCSmCNVU7LSaD4AmpRAhKQgAQkIAEJSEACEpCABCRQkwI1lsCqyXWsQUtAAhKQgAQkIAEJSEACEpCABGpMQMOtNgElsKptjWo8EpCABCQgAQlIQAISkIAEYggohgQkIIEyElACq4xWhroiAQlIQAISkIAEJFBdAhqNBCQgAQlIQAJxBJTAiuOoKBKQgAQkIAEJZCOgqBKQgAQkIAEJSEACEoASWNoIJCABCVS9gAYoAQlIQAISkIAEJCABCUigsgWUwKrs9afeF0tA7UhAAhKQgAQkIAEJSEACEpCABCRQMoGiJbBKNkI1LAEJSEACEpCABCQgAQlIQAISkEDRBNSQBLIQUAIrC1XFlIAEJCABCUhAAhKQgAQkMHYBLSkBCUhAAksJKIG1FIhuSkACEpCABCQgAQlUg4DGIAEJSEACEpBANQkogVVNa1NjkYAEJCABCcQUUCwJSEACEpCABCQgAQmUiYASWGWyItQNCUigOgU0KglIQAISkIAEJCABCUhAAhIoXEAJrMINFSFbAUWXgAQkIAEJSEACEpCABCQgAQlIoPoFVjhCJbBWyKMHJSABCUhAAhKQgAQkIAEJSEAClSKgfkqgegWUwKredauRSUACEpCABCQgAQlIQAKjFdD8EpCABCRQlgJKYJXlalGnJCABCUhAAhKQQOUKqOcSkIAEJCABCUggtoASWLFFFU8CEpCABCRQuIAiSEACEpCABCQgAQlIQAJLCCiBtQSGrkpAAtUkoLFIQAISkIAEJCABCUhAAhKQQLUIKIFVLWsyi3EopgQkIAEJSEACEpCABCQgAQlIQALVL1ABI1QCqwJWkrooAQlIQAISkIAEJCABCUhAAuUtoN5JQALZCiiBla2voktAAhKQgAQkIAEJSEACIxPQXBKQgAQkIIFhBZTAGpZGD0hAAhKQgAQkIIFKE1B/JSABCUhAAhKQQHUKKIFVnetVo5KABCQggbEKaDkJSEACEpCABCQgAQlIoOwElMAqu1WiDkmg8gU0AglIQAISkIAEJCABCUhAAhKQQEwBJbBiasaLpUgSkIAEJCABCUhAAhKQgAQkIAEJVL+ARjhCASWwRgil2SQgAQlIQAISkIAEJCABCUigHAXUJwlIoBYElMCqhbWsMUpAAhKQgAQkIAEJSGBFAnpMAhKQgAQkUOYCSmCV+QpS9yQgAQlIQAISqAwB9VICEpCABCQgAQlIIDsBJbCys1VkCUhAAhIYnYDmloAEJCABCUhAAhKQgAQksFwBJbCWy6I7JVCpAuq3BCQgAQlIQAISkIAEJCABCUig+gSUwFp6neq2BCQgAQlIQAISkIAEJCABCUhAAtUvoBFWlIASWBW1utRZCUhAAhKQgAQkIAEJSEAC5SOgnkhAAhIoloASWMWSVjsSkIAEJCABCUhAAhJYVkD3SEACEpCABCQwAgElsEaApFkkIAEJSEACEihnAfVNAhKQgAQkIAEJSKDaBZTAqvY1rPFJQAISGImA5pGABCQgAQlIQAISkIAEJFDGAkpglfHKUdcqS0C9lYAEJCABCUhAAhKQgAQkIAEJSCAbgXJKYGUzQkWVgAQkIAEJSEACEpCABCQgAQlIoJwE1BcJjFpACaxRk2kBCUhAAhKQgAQkIAEJSEACpRZQ+xKQgARqS0AJrNpa3xqtBCQgAQlIQAISkMDLAppKQAISkIAEJFAxAkpgVcyqUkclIAEJSEAC5SegHklAAhKQgAQkIAEJSKAYAkpgFUNZbUhAAhIYXkCPSEACEpCABCQgAQlIQAISkMBKBJTAWgmQHq4EAfVRAhKQgAQkIAEJSEACEpCABCQggWoWWJzAquYRamwSkIAEbpMIfAAAEABJREFUJCABCUhAAhKQgAQkIAEJLBbQ/xKoUAElsCp0xanbEpCABCQgAQlIQAISkEBpBNSqBCQgAQkUX0AJrOKbq0UJSEACEpCABCRQ6wIavwQkIAEJSEACEhiVgBJYo+LSzBKQgAQkIIFyEVA/JCABCUhAAhKQgAQkUDsCSmDVzrrWSCUggaUFdFsCEpCABCQgAQlIQAISkIAEKkJACayKWE3l20n1TAISkIAEJCABCUhAAhKQgAQkIIHqFyj1CJXAKvUaUPsSkIAEJCABCUhAAhKQgAQkUAsCGqMEJFCAgBJYBeBpUQlIQAISkIAEJCABCUigmAJqSwISkIAEalVACaxaXfMatwQkIAEJSEACtSmgUUtAAhKQgAQkIIEKFFACqwJXmrosAQlIQAKlFVDrEpCABCQgAQlIQAISkEBxBZTAKq63WpOABBYL6H8JSEACEpCABCQgAQlIQAISkMCIBZTAGjFVuc2o/khAAhKQgAQkIAEJSEACEpCABCRQ/QIaYRBQAisoqEpAAhKQgAQkIAEJSEACEpBA9QpoZBKQQMULKIFV8atQA5CABCQgAQlIQAISkED2AmpBAhKQgAQkUEoBJbBKqa+2JSABCUhAAhKoJQGNVQISkIAEJCABCUhgjAJKYI0RTotJQAISkEApBNSmBCQgAQlIQAISkIAEJFCLAkpg1eJa15hrW0Cjl4AEJCABCUhAAhKQgAQkIAEJVJiAElhjWGFaRAISkIAEJCABCUhAAhKQgAQkIIHqF9AIy0dACazyWRfqiQQkIAEJSEACEpCABCQggWoT0HgkIAEJRBFQAisKo4JIQAISkIAEJCABCUggKwHFlYAEJCABCUhACSxtAxKQgAQkIAEJVL+ARigBCUhAAhKQgAQkUNECSmBV9OpT5yUgAQkUT0AtSUACEpCABCQgAQlIQAISKJWAElilkle7tSigMUtAAhKQgAQkIAEJSEACEpCABCQwBoEKS2CNYYRaRAISkIAEJCABCUhAAhKQgAQkIIEKE1B3JfBaASWwXuuhWxKQgAQkIAEJSEACEpCABKpDQKOQgAQkUEUCSmBV0crUUCQgAQlIQAISkIAE4goomgQkIAEJSEAC5SGgBFZ5rAf1QgISkIAEJFCtAhqXBCQgAQlIQAISkIAEChZQAqtgQgWQgAQkkLWA4ktAAhKQgAQkIAEJSEACEqhtASWwanv9187oNVIJSEACEpCABCQgAQlIQAISkIAEKlZgxAmsih2hOi4BCUhAAhKQgAQkIAEJSEACEpDAiAU0owTKUUAJrHJcK+qTBCQgAQlIQAISkIAEJFDJAuq7BCQgAQlEFlACKzKowklAAhKQgAQkIAEJxBBQDAlIQAISkIAEJPCqgBJYr1roWjkLXO05zPEGdPmHWE9Gp/+Y058tVa9Ahx/L+d7OOhFhmXIek/pW2QI3eR23ty24LZ6x1Ha49Ha57O1Ovwqz/UtcdgLcrbIh1PuyFlDnJCABCUhAAhKQgAQkUCUCSmBVyYqsqmGEHfpub+fOfUhS3cHkwB3YEjORx61wXIAUhwHYj9c/slT9BAxf5Xw/ZP0nwjJdvnj5Lr+F8Y5hVcKAeCojFxiaM2yTs306E1Y/HNoew3a1Pv6DBL/iNvelpbbDpbfLZW8D+3LZbzL2v9CN21+KeSRCUox3qkhAAhKQgAQkIAEJSEACEpDAawWUwHqth27FFxh5xDm+ORNML6ALLyJlwgrYl4mBbYYqsDWArVjXY8KgmdPlHbUStueJfGxj1i1Yt4Zj8fKON/P2t3j7cYT4nT6fyYjzMNPreb+KBJYVCMmkDj+L2+T8oW0mwW1I8DFuQy9vU2H7msTbTcsuvNJ7wva7OufagssvjpfiVKyH57hdPo7ZfihcR2bRR0UCEpCABCQgAQlIQAISqByBTHsadvgzbUDBJTCswExvxl2+IXfYL2GSwJHHXM4bElDjOQ1JqtjbZz0MLYwd4o/n9S9jPPqH2g5HaM3xt/P6+rjXV1fygEq1VNxzQ+u+0zfl9BxWZzJpgNvI4WQY/1JtgiPH69kUQz0Dj2eb6zJR9l10MY3b4SegyzdASKbxQRUJSEACEpCABCQggWoX0PgkIIHhBGInCIZrR/dL4FWBxcmCd2ICvo4GPMwd9s+9+mCJrjnejDz+CuBRJg9+jU68m4mDHXG/r8v7VKpRwN0w16ej29/G9b0Ph/go632sh7CWRzHMYNLsEayHjw71E7pIQAISkIAEJLBSAc0gAQlIQAJVKaAEVlWu1jIeVKd/AN04iD28gTvmX+O0/IrhbUyq/ZH9+wv6cRoTWZ/Dvf4mzNTXDctvZY2hR/N8Fa7T3dCNz2EQVyHFX7m+f4LyvvyI/bwJnf5xzPWNyrur6p0EJFANAhqDBCQgAQlIQAISKDcBJbDKbY1Ua3/u91XR4Z/n8C5iYug8TiuhNLCvn2K9BDmci/H4NhMIx8C9rhI6rz4uJRB+lXK2n4RBfIfr9ELWiznHlqzhfFSclH0Jr9ffwyDO4nPpfWXfW3VQAhKQgAQkIAEJSEACEpBARIGwQxQxnEJJYDkC3f4mLMLFMJzER9dnrcSyHTt9GOvx6MKvmMi6DDoiixxZlkix7/IWdPnF2BK/QoKvMnF1ACNvwlqJJZzDbS+O42yOaXcmUysl+VaJ1uqzBCQgAQlIQAISkIAEJFBGAkpgldHKiN6VcgjY4W9Ail+wKx9mXZO10ktIILyfg/gkJuC/6PDzcI+vA13KT2CWr8v1cy4aMJPb4P7s4AdYc6yVXxzh1w8vQyf2VSK18lenRiABCUhAAhKQgAQkIIGCBWoggBJYNbCSSzbEcAJ0w7/ZfjhnT7V97a4ejqlI8EXU4RF0+U9YqyFBx9VV4WWWj2fi6hTk8DDXz5c4mjYYwi/88WpVlfU4vivRgq9X1ag0GAlIQAISkIAEJFAiATUrAQmUt4ASWOW9fiq3d7N9YyzC4xxAtSWuOKQlijOFYKhjMmtf1qeYOPkJ5vnrMMcnLjGXrmYtMNPrab4hOv1Qro35TFgdyxrWS3W/xjlyHOcJTJ6egMe8OWtmxZeABCQgAQmsREAPS0ACEpCABDITqO6du8zYFHiFAnP8zUzrdKxwnmp90LAvBtCBFGcwqfBGJlQmVOtQy2Jc4cTs3d6O8fgk8ridffoua+0Vx3F4EQcriVV7q14jrkYBjUkCEpCABCQgAQlIYHkCSmAtT0X3jV2gw3dFHlczQBNrrZZmOA5k/Snr1zDLt4Z7rlYxMhv3HN8QW+EQpLiEbVzGujZrrZZwpONReAF71yrAa8atGxKQgAQkIAEJSEACEpBA1QkogVV1q7SEA+r098BwDnsQznnFSc2XzWH4KupxDjpZ3Svm+Vb2a67TT8IgzoXjLPZ1R1YVYE0kOA4d/n5hSEACEpCABCQgAQlIQAISqDYB7VBns0ZrL+o8n8xkwpdhmFJ7g1/JiB1vo8uX0IXrmVwIRwutZAE9PKxAl++GLr+Oj3+Fph/iVGVJAcckJrHOQrfvsuTdui4BCUhAAhKQgAQkIAEJZCagwEUSUAKrSNBV3Yx7HQaYpEnwLiaxrKrHWtjgwhFqn2IC5t/o9H0KC1VjS9/EbazTL+Sor+A29l5Ox7GqLE8gJLFSfB73uI6EXJ6P7pOABCQgAQlIoAwF1CUJSEACKxdQAmvlRppjZQKdeCNnuYyJhUZOVVYsMI5Ob+IsP2cS65usOsk7MYYt7obZ/gmsjxc5z0G0W5tTJUmJsJKyJxqw6Urm0cMSkIAEJFBNAhqLBCQgAQlIoMoFlMCq8hWc+fDu9tVgKPbX4lKOawHr/1gfe6k+w2kvayWV49nZFzDH344uX5PXVZYU6PAtMAenIcGVTFyV+48CLOLz4GF2v2uF1dHNx0MyjpOMS4q/MUHamnErCi+BqhLQYCQgAQlIQAISkIAEyldACazyXTeV0bM67MmOTmfNsjzK4H9iDec+CvUXvB4SG59BDnsNVeAwAOeyhseXrL/nfU+zlmsx5PFXJmguGEpkQRfM9o1Z3wvDXUhxdFmKGOaxX2HbWrytGS7l7fejFe1os7bl1qHH+Ljjm5z3Oq7z62GYzevZFcPXsgu+3Mi6UwISkIAEJCABCUhAAhKQQCYCSmBlwlojQed6OGF02HGPP+CQ1gH+w538sxn8GCzCnkwKfOCl+lFOT8YUux6T7Zah2mY/5n1fZX15nsXTQYQTfX8DhrNeinUt4z3HWm5lH+TxU3T755m8yTohWG5jf7U/Xb47EpzBGtZTOX1VsJ+dvHloG1q8LR2Bu/GhV7a3VjsYrXYXzJzzLb+Ex8xStNuZi5fDHkjwJTjCNn7f8hcq8F7HJ9Hl4TlQYCAtLgEJSEACEpCABCQgAQlIoLQC1ZfAKq1nbbWex+mZDNjwFFJ8kTv3B6PdjuDO/lXYyhaOqa3p1s/lL2Jy4cihWCkOgzE2cBCAb7CWU1kPKc7muM9Dp+9QTh3LvC+zfF10+MFs5xzWvVnrWEtfHHeyE2FbOQiOQxC2x1Y7ktvUb7EPty0+OOZilmfy9a9DMQ1fRoozGMtZ4xZHNs/TuL1UNAlIQAISkIAEJCABCYxeQEvUlIASWDW1uiMOttN34g79LhEjLg6V4K/ckf8g2u0STLFbEfsy1R5kMutnTEB8Dy34DpNZO7O+l/Wy2E2NMV4419M7uOylTOicx0RW9Z/kvdvbkcOvuA5O4DY1CaW/9LEfp7I/O7MrnxraVtrscm6Tt/N2NqXV/oAGnMw2d8mggU3Q5SdkEFchJSABCUhAAhKoAgENQQISkEClCCiBVSlrqtz66fgauzSeNV4xHMXEwd5MFNwcL+gKIm1kvWi1GzAFf0CCI1GH13Huo9mHZzktdWlnMuNAdiLbcySxgZKWcKSZ4yaO9S3sxxqspSwPcjt4OxZhMlbBSQjbRrvdU7QObW4vDLWZx9sit1kPx+6RYyqcBCQgAQm8KqBrEpCABCQgAQkUQUAJrCIgV10T3b4zEw7hSJk45ygy5JHiGMxH+Kpf8U+4buaYbC9ikj2MNjsD7bYGFqCF662XdRGrs5aijGOjG6LT+9DhB2KWh9u8qwrKHG/guO7mSP7J5Mo6nJaihPUa1m8vHkc91/0mmGJ/x1b2CNa3nlJ0aKjNafYPOHbl9QHWWGULep8WK5jiSCC+gCJKQAISkIAEJCABCUhgxQJKYK3YR48uLTDTw9Ecn+Hdm7DGKCF59SMk+DG2LWHSYOmRhL60WTMTa9vyob+zPsQaM6HAcCMuDUwYfg91+DW6fAO4V+7zdqY3Y65PYsryNo5+C9ZSlDwbfYz1b3R9ExNXzdjJBnm7fEq7/ZnPiXAE3vwRd2rFMzbx4XbM8YmcqkhAAhKQgAQkIAEJSEACEqg4gcrdEa446irp8KrYjiNpY41VZjHQFUwihIQCr5auLLflqTaLfXsHDB/j45ezhqOGwpE7vFrUEo5229ZM/jUAABAASURBVB2Oy9CF91dkImKOb4jxOBiD+CPltmQtfjE8zHX5YyYmD0Sb7YRWu6v4nRhhi/0ITr/l3CHhxkmBxfAmbj8fLjCKFpeABCQgAQlIQAISkIAEJFASgZgJrJIMQI0WWWAQO3EneJtIrT7MOCej3f7GaXmXVvsn2uwLyOPLHP+p7OwdrKUo72Gjl2IQM/Cwh6NqUBGXWb4u+/xt9vUU1s1Zi1sMz3O9ncbE1TFotU9jql2Pcr9MtyfY3yvYzbmshRfHOoy3VUVtN4WPWhEkIAEJSEACEpCABLIRUFQJFF1ACayik1dwg52+KZMAr480gkHG+icex68jxStOmHB+onb7OhwhkTWDjZbiyLG1YDgMC3EZZvt6KPdLOFF7Dpewz/uyq8V/zXGcjQSfY6L0WNafsg+VU6baX9jZ79HuRU5jlN2wAG+KEUgxJCABCUhAAhIoVEDLS0ACEpDAaASKvzM5mt5p3vISMGzFHeldInXqadTheJTbuYdGOrh2uwWr4TvI4f0wXMbFwsnAOSlaMba0HxMz16LDD+b18iydfiEcP6DR+4veQcevkeLtaMa3MNl+WfT2YzXYgCvgeBZxLlO4LjaME0pRJCABCZSBgLogAQlIQAISkEDNCCiBVTOrusCBuht3fJsZZTxr4cXxSyYV5hUeqIQR1rWFHMMd6MNhGMQm9InzVS+M6hLOSXYak1jnjWqpYszc6dcy8XIAXSYXo7lX2nA8iTx2ZrufwlT7Oza25155rBKvbGrPI8WnInXd6PJWzPG1IsVTmCoQ0BAkIAEJSEACEpCABCRQCQJKYFXCWiqHPs7D5tyJ/kqkrgyg3cr3qKHRDnIrJrLC+YpabTJymMTFw9e9iverdoZmJiW+zCTWKUPnNwrJRnaiJCX8QmKHr4Eu/znb34P9que0OMWxAI6/c9taF9PsBrRZrF/wW1n/s388JOKAhVEacnwOAyj+eciidF5BJCABCUhAAhKQgAQkIIFaFVACq1bX/GjHPYBVuMjWrIUXx/mvDVJFtybbPDRhEzguBvAQa/GK4VgsxKXowJsQEknFa3lxS3O8AbOxK29cw/Hvw2lxyuKv192FQWyNdns7qvVieE+koRnqMZHbiEWKpzASkIAEJCABCUhAAhKQgARGKDD22ZKxL6ola0ZgcTJkSqTxpmjE1yLFKs8w4Str7RZO8n4gDL9hJ59mLVb5GBL8HJ34RLEaHGrnas8hj4NQh3C+q+IlkRzha5sz4HgXtmDycKgzVfrfXbiFI4uTFM3jM7gbzYynIgEJSEACEpCABCRQaQLqrwRqVEAJrBpd8aMa9u1o5Pyxvj74CzyDPONVf2m3P2EcPg3gq0ywxEk8MNgIyuuQ4HJ0+FEjmDfOLFtiBgxncpzroDiXhWzmItbD0W7nsT7D69Vd9kbKAZ7GWnhxfBiro6HwQIogAQlIQAISqEwB9VoCEpCABCpPQAmsyltnxe/xeOSYnNgmSsOG8/EGDEaJVQlBwgm42+z7TOwcwO4eylqc4ki4zr6Fbv8W5vjEzBqd5ePR5eErocdxjElm7Swd2PEppl++xsTV75Z+qGpvmznX6U1Rxmeox3xMiBJLQSQggVoV0LglIAEJSEACEpBAUQWKt8NZ1GGpsagC/Yj1i2WPIsX/EHbEo3awAoJNtf/DfbgYhg+xt0+xFqM0IsXhyDNp2O3t0Ruc65NQh++zjQOjxx4uoOE05PFmtNs1CMnB4ear1vsX4hkYfh5leDkUb71F6XA1BtGYJCABCUhAAhKQgAQkIIGRCiiBNVKpWp6vAUdGGX44+mohHokSqxKD7G6LMAW/xSC2hOPsIg2hhe3shzx+iU7fgdfjlA7fFYO4hsmUPVmL80uDjk8jwQxMs1vx8qXWptvgaeQjJbAcxfuKaa2tJ41XAhKQgAQkIAEJSEACEoguoARWdNLKCjii3joOGtF8K5spxRxsaz0rm62qHzdLMd2eQLsdwXF+i/UpJoBSTrMsObYxFY4b0eVvLejX59xzTIR9gPF+wA6HRFyO0yzLAIPfzPpOmv0Qk20Rr9duMXMOPhj0c1poGVfQtlBo61peAhKQgAQkIAEJSEACEiiqQKU3pgRWpa/B4vTfIjQTfolvQYQ41ROizb6BFO9kYumPRRmUYRzbuQld2InT0Rd3Qyf2YX+v4cLrsWZbDL1s4DI8jrejzeKc+4kBK74YZsMR59xf92KjivfQACQgAQlIQAISkEDxBNSSBCRQQoGkhG2r6UoQ6PT1o3Qz7HDncVeUWNUUZKrNQivez4TElRzWM6zZFkc4YuoGdDoTUUxIjaa1LuwPw49Z60az2BjnvYUm5zJx9UXsZINjjFGdi7XbA0gQjkorfHx1iPP14MJ7oggSkIAEJFAzAhqoBCQgAQlIYGwCSmCNza12ljLsG2WwCbqGvjoXJViVBTFLcQ8+w4TNsTBcX5TRGS7lGvkCHvPmEbXX4eF8Sd/nvNm/ZqT4HlJ8GW32VbansjwBR0jq5Zf30Cjv+8Ao59fsEpBAOQioDxKQgAQkIAEJSKAGBbLfGa1B1Cob8seijCeNEqV6g+xjeSaxLmfiJpwb6yeZD9QxkW18Cy/iSHT4Gry+/HKT16HTj+eDM1izLs4k3tlM4h2HqXZH1o1VdHxDN/s/j7XQMqHQAJW6vPotAQlIQAISkIAEJCABCVSWgBJYlbW+it9bR4xzHd3PpERH8TtfYS2GJFa7dWMRDkf4xUZgYcYjCImro5BgBpNUy35VdKY3Yz2cAMfR7E/4NUMscYl99REGPAx9+CbaLfuvUrKxii49CF+xvD3KGGa4/g5EgVQQCUhAAhKQgAQkIAEJSCBLAe24ZKm7wtg19KDjXiYmZtbQiAsb6lb2P0zB4chjNwZ6jjXLEo7EOogN/ACz/dVkZadPwHgcy/uPhfEar2RYZqEOO+FuXIBt7PkM26me0IudXowwoHHYF2M7qX+ExhVCAhKQgAQkIAEJSEACtSGgUcYQUAIrhmK1xgjnRzJYwcMzPImt7VHoMnIBs0FMs39gAdbhQtnaOcKJ3d/NNf27oSRWl68Jx7Fs9zjW8BgnGRRjK8A9aMXWmGRzEY5Agy4jFkiY4sSQ4YgXWc6MDVzvuyznft0lAQlIQAISkIAEyktAvZGABGpeQAmsmt8EVgCwAOHIjMYVzKGHshbY1gawAFPYzC2s2X6l0PB6JLiR7cyADSWweDWzEo4euhFttiXMYpyMPLOOlm1gx0Ps23zWQko9Ury5kABaVgISkIAEKkdAPZWABCQgAQlUsoASWJW89rLue9ixdTQU2MwgDD0Fxqjtxbe1HgzgQ0S4AI45nGZZ2tjGl7JsgLHvgeEsjMP7eF1l7AL/pGOhR+cZYxT6HB/7CLSkBCpPQD2WgAQkIAEJSEACEiiRgBJYJYKviGYdWwNMM/C/AsoLyKOrgOW1aBDYwp7EIL7Fq0cwwXQnp5Va/oYER3CrOh2bWl+lDqIs+p3DPezH06wVVtRdCUhAAhKQgAQkIAEJSEACoxdQAmv0ZrWzRIJVONhCt5FnkOC/0KVwgem2AD/H72E4EI7uwgMWPcI/keLLmIwblbyKYD/ZXuR20F9wpBQG1y8RFuyoABKQgAQkIAEJSEACEpBApgKFJicy7VxWwRW3iAKO55BDOFKkiI1WcVMzLEWbzYTj3RzlM6yVUcIvUQIfwVSbBeMYKqPXtdFLQwvmYtPaGKxGKQEJSEACEpCABCRQawIab/UIKIFVPeuyPEeSoB/hSJHy7F3l9mqqPYhWrM1E1r0VMIjH8HNsycTbYxXQ11rs4gQMcGuqxZFrzBKQgAQkIAEJjERA80hAAhIoCwElsMpiNZRhJ9yNyRErw56pSy8LhCOZFmI73rwIhudRfpdw8v4/MnG1AWboqCtkcVn8S4QDBYYez+1nswJjaHEJSEACElihgB6UgAQkIAEJSKBQASWwChWs1uXvRQsTWHXVOryqGVf4hcJBHI0EX+OYHmItl/IIO3IhFmEvTlWyEkiGvp67qMDw47n96CuEBSJq8SIIqAkJSEACEpCABCQggZoWUAKrplf/CgbfiHVhaFrBHHqoXATCyd3r8AOur6PZpTmspS6dyOEEduKb2MoWcqqSnUAXQ4/4RO6cd3mlAY61lveA7pOABCQgAQlIQAISkIAEJFAuAkpglcuaKLd+5LEeu9TMWkhx7hgX+vWmQtqPvWz5xtvU+jAFv2AS6zDWh0vY0Q62/VU04qdos/m8rpKlQIKuKM8xfVk4y7Wk2BKQgAQkIAEJSEACEpBABIEiJ7Ai9FghiiOQx5psqJG1kJIymfJkIQG07CgEwjmxpuAPSPFRLtXLWuzyINv+DBbg99jIStF+scdb+vYW4WE+x5QkLv2aUA8kIAEJSEACEpCABJYR0B0SiCugBFZcz+qJlmBVOMahsEueCY0nCguhpUclYOZot5tRj7ZRLVf4zOE8TDuhHbdiW1NCpXDPkUWYbv1MYPnIZtZcEpCABCQgAQlUnIA6LAEJSEACrwgogfUKha68RiDFqtwxLjyBBTwNXYovsLk9xPTjumx4kDXrkkcOq6DN7kdIoGXdmuJLQAISkIAERiGgWSUgAQlIQAISqA4BJbCqYz3GH4VhIoPWs469OFIu/AyrSikEHsQzMHwm86YdJ+MFprAyb0gNSEACJRJQsxKQgAQkIAEJSEACEii5gBJYJV8FZdqBBA2wApMSxgRWDi9Cl9IIrIuPw3Fl5o0bvoHx+BIedv1q5bDYekACEpCABCQgAQlIQAISkIAEChFQAqsQvWpeNmUCywtMYIHpE0dfFCYFGZ1Atx/MBOQPRrdQQXOfgoX4fEERtLAEJCABCUhAAhKQgAQkIAEJSGAYASWwhoGp+bsTjKNBjrWQEk4urQRWIYJjWbbTj0GKM8ayaAHL1HHZ49HpX+BURQISkIAEJCABCUhAAhIooYCalkA1CiiBVY1rNc6YEliEQCnyEaIoxEgFuvxIzno0awNrscvqbPCb6PADOVWRgAQkIAEJSEAClSygvktAAhKQQJkJJGXWH3WnXATSoa//xehNjDRYjH5Uf4xO34dr7WAONCSSOClJWYuJz28j9KUkzatRCUhAAhIoHwH1RAISkIAEJCABCcQTUAIrnmV1RUqQckDhK4CcFFASaBsrgG9Ei7obuv1NTByFo682HtEy2c60CsNfgQ5/B0LfeEOl7AVM66pM15G6JQEJSEACEpCABCQgAQkMCSi5MMSg/5YRcOTh/LfMA6O6w5i+qocu2Qp0Y32urS9wbW2XbUOjit7EhNolmIdpo1oqg5kVckQCDjMf0ZyaSQISkIAEJCABCUhAAhKQQAkElMAqAXpFNGnoZfJpEEAh3TUmVcYXEkDLrkTgfm+k8aEwfBrld5mMQZyDLl+z/LqmHklAAhKQgAQkIAEJSEACEpDAUgJlfVMJrLJePSXsnDOBFY7CKqQLzhTfnnUTAAAQAElEQVRYHhMKCaFlVyLQj29wjq+wlmt5Jzt2IuZ4KU4qz6ZVJCABCUhAAhKQgAQkUEwBtSUBCWQloARWVrKVHtfRwyEUdgSWMYFlCOdDgi4ZCHT5uXAcm0HkuCFTHIgUJ8QNqmgSkIAEJCABCVStgAYmAQlIQAISWI6AEljLQdFdFEjwAv/vZx17ceTgWHfsAbTksAKLk1efH/bxcnrAUMcE1iHo9G+WU7fUFwlIQALVLKCxSUACEpCABCQggWoTSKptQBpPJAHHU4zUxzr2YkxgGdaHLnEFOvzzTAx+lEHHsVZGMbSwz0eiw4+qjA6rlxKACCQgAQlIQAISkIAEJCCBMhJQAquMVkZZdSVGAgtMYEEJrGjr1d2YAHoDEoQTtq+F+JdFDPkJGNo5nc9aYFlqcUMzYx+OTt8D7nrtWYpHNyUgAQlIQAISkIAEJCABCUhgeAHtRA5vU/pHStmDevyPzfeyFlassMW19BICc7EBk1dHwvHmJe6NdXUhA30brbgKP0U32/kw23mC98Uu6zPgwWxhCpNY2jqgiwQkIAEJSEACEpCABCQgAQBCWKmAElgrJarRGQxPMYFR2FcIa5Quk2F3+BrI41iuk32jxzf0wvATtOC7MHPMsJT33MK2TmLNIon1LsY9GI+gEboUJuCuJGBhglpaAhKQgAQkIIEqEtBQJCCB6hZQAqu61+/YR/cjzIdhYOwBtGQ0gVk+juviJMb7ImvcYkyLOa7j/ydjI3v2leBb2ULU42okuIptv/jK/fGufBELoZO6F+p5OyYyGajX8UIdtbwEJCABCbwsoKkEJCABCUigbAW041O2q6bEHZthKRMXXuJeqPkgUIfjuS4+F65Gr44bkOI4TLUHl4k92Z5CPc7j/TewZpHMPApdHuIzvMqYBFrwOi5Xz6oiAQmUjYA6IgEJSEACEpCABCSQhYASWFmoKqYEYgl0+84MdRgcOU5jl9tQhwOYvJozbODNmNhKcAgTaN3DzlPIA479mcT6UiEhanpZw6Ycf6EJLEfKfwxUNkUdkYAEJCABCUhAAhKQgAQksJSAElhLgehmZIGQeLnJda6jsbA+6KsxcXU5Fx3POqoygpkfxQK8G5Ps4ZXOO9kewXxst9L5xjZDCxc7CJ2+JacqoxfYjIvUsxZS+pDDE4UE0LISkIAEJCABCUhAAhKQgASyFlACa/nCujeWgGMiNkTYyYYuoxC401dFH/7ABNZGo1hqZLM6noNha2xrL2Ckl22tB3ejjrM/xRq3OKbBMQNhzNBllAIxjsDqQR6PjLJdzS4BCUhAAhKQgAQkIIFqEdA4KkRACawKWVEl6uYituushZSJ3DmeVEiAmlt2lq+LZnyfSZ0sjnp6jJ4fRqs9zenoyj6W5wJvZfJrLqdxi+FDaMIZuMPXihu4yqMZNucIx7GOvRh6YHho7AG0pAQkIAEJSEACEpCABCQggewFlMDK3rhyW3DMZRJlsKABGCYyxuSCYtTSwvf7qqjHwTTblcM21pgl/JrgSWjD38cctBXz2LejuPwDrLHLp9GCL6LTJ8QOXLXxHOHruYVtJ46F9MlifTKsigQkIAEJjFhAM0pAAhKQgAQksEIBJbBWyFPjD6a4B4b+AhXGI8HGBcaojcVv8jr04a1w7McBh3NDcRKtOCNdgQb8FGYpr4+tmA2iHn8FEM7NNfKvIHKBEZTwFcUDuL28CTNcr00jAIs0ywKsjvsixVIYCZRUQI1LQAISkIAEJCABCVSvgHYSq3fdFj4yZwILGCgwUB0TMs0FxqiNxdfDRjCcxMFuwhq3OH6ERpyGTe35ggNvPnTurO8zzvVct4UdoccgrymODZHHt/E+hCOLXvOQbmQkYBjE2rbgpeiaSEACEpCABCQgAQlIQAISKEsBJbDKcrWUSaf6cQ97UugRWAxRS2WMY53l42C4nktn8Wt81zJFcTQ2sccR69Jmj2EcjmCf/xMr5CtxDNtgAma+cltXli/gbnwgVE5UJCABCUhAAhKQgAQkIAEJVLdA+SWwqtu7ska3jYWjddLK6nSF9rYOv4WjPYPe/wc5HIgt7MnosTdjzBx2Ytz4v2AXLDr9VsZWGU5gLsKve64y3MO6XwISkIAEJCABCUhAAmUvoA5KYBQCSmCNAkuzjlHA0YJZPn6MS1f/Yp2+DwcZTtrOSdTyBKMdg8n2FKfZlMm2CAPYlsGfZY1bHNPQ4Qdi8ZFGcWNXQzRHGwyrFTwUR77gGAogAQlIQAISkEDJBNSwBCQggVoRUAKrVtZ0KcdpeB0STCllF8q27U4PyZ/zM+jfIBznos1uyiD2a0NuYU8iwed453zWeMXQAsNh6MA20GVZgTy24Dpec9kHRnVPSF7dP6olNLMEJCCB6hPQiCQgAQlIQAISqAABJbAqYCWVtIuGZyK0vxkTHFl8PS5C10oYotN3YOtXsq7FGrtciHY7NXbQYeM9it/ysYtZw68dchKttCPBOejyraJFrJZAITEMTCxoOOFXRh23FRRDC0tgSED/SUACEpCABCQgAQlIIFsBJbCy9a386I6/RxjEWnCsFyFO9YTo9nD+oqM5oFbW2OUcDOIrsYOuMN5OFo74Oo3z/IA1bjG8hdvPIZjt1b0NjV7NRr/IUks4BmC4Zal7dVMCEpCABCQgAQlIQAISkEDZCSiBVXarpMw6FE4uXniXcgxRx5ppqZjgM70eeezO/r6DNfZz8Co04nRMt37GLm5pt2eYDPkGG/0xa7ziCNvPB5FgR9zk2o7iyYZIg2jArHBFVQISkIAEJCABCUhAAhKQQDkLLLnzXM79VN9KJeDI/hxKpRpbqdqdgLcx0XMimy/s618MsFS5G45LcQXi/+IgRniZgseYaArn9Ir9tbTVaXY+1sPmI+xJdc/W6RM4wBg/jODY1PoYS0UCEpCABCQgAQlIoLYENFoJVJyAElgVt8qK3OHJtihKiwnWx/2+apRYlRykw6cwyXQth7A6a8yykMG+j3b7G2ZYilJdzBxT7FYYfs0uvMgarzjWZrD/cDtq5LS2C5XhSubV9kag0UtAAhKQQOkF1AMJSEACEiimgBJYxdSu5bZSvBED2AS1fHGvY2InfMUuxpEzS0qGI2guRJudu+SdJb3eaqcxwfI79mGQNWaZgEU4CzO8tl+7DG3cliYVDGvoKTiGAkhAAhIoREDLSkACEpCABCQggREK1PZO4AiRNBseK9jAMA2D2KDgOJUcoAsfYfc/xhqvOFWBH6MVx8YLGilSu4WxXhMp2pJhDsJ+2G3JO2ruumNdjnkt1sJKHtcXFkBLl4OA+iABCUhAAhKQgAQkIIFaEFACqxbWcuFj/EnhITABhtr96le370vDH7PGLvfQdQbM8rEDR4k3iAMY52bWuCXFlejwd0cKWrthEvyidgevkUtAAhKQgAQkIAEJSEAClSSgBFYlra1S9XUQV624aT26QoFu3xqOk1Y4z9geHIThKLTao2NbvAhLTbcFHPtRbOlF1phlVY79aHT5BjGDVkSs8CuWuUjJ4In4d0WMWZ0sW4EmPgeb5/jJjd1+keqKDZq68mc2d+VPbO7yA1rC34U53lC2K1Ydk4AEJCABCUhAAsMKlO4BJbBKZ185LTfgvkidnYYnvCVSrMoI425IcTCTOBtl0OG90GY3ZhA3bsg2hF8kPDxuUITXrjfRdf/Iccs/3CpYB3lMi9LR9U3nwIoCWbtBkjqs7sDHzP0Lqis2AOxg/kk4ys1PcscPmxx/bOpK/zJUu/1XTd3+laZ7PIu/FdBFAhKQgATKTEDdkYAExiQQdgLHtKAWqiGBPNMEMYabYDcsxBoxQlVMjG7MALAfaz1rzPJxtCKcJD1mzGxiha83NuAn3IrCkVgx2xgPw1cw28PXFGPGLe9YeWzMcb+lvDup3klAAssRqOdztxmOdRy+JdzfwXneNVTd9+DtEzAOtzKh9RDrXc3d+S/wMRUJSGAYAd0tAQlIQAK1J6AEVu2t89GPeJBvtx3PjH7BpZZwvBn9WGWpe6v0phu6/INwhCOEYp77i/s9uBKDuAEhMRRTz9nnlyt4PWbsTa0POfyaIa+FwTmNUxwTGe+LmOOvjxOwAqI4VmcvY/yi5y2MoyIBCZSHQHg/1gL4euxOOAprS74cX8REljd2pc83duWPxWPezNe6Bia6jPPEKIohAQlIQAISkIAEKkogvGGqqA6rsyUR6GeS4OqStFypjd6PdZim+QC7H3ZEOIlWnkOCW9GINdHJT/Bj1G7fGvP8jejGDujCTujE29GBt+Ae35ZJuK2itDPPt4ChifW/cMyPphECGbZBHu/FXTX29dQw9kKq4QroUqCAFpdA9gLMVq1isFOa5vvCJsdNLV3Yddy9i6YhnA8v++bVggQkIAEJSEACEigbgaRseqKOlK/ALzHIpMn1UTpYjw2q/tPjkEjpxxfoFY6+4iRqaWQC6BSukdsZ9a4oNcWdGMBtcPyD8W6A4SbWf6Ee/4HjvwAKb2eAMfJD8Q5hvHGsi0u8/7+JBny06retsMNqTF7GcBvAH2OEUQwJSKCIAu5vSc3/kOTq/908AZ9q6fZdVpvnNXJkcxGd1ZQEJCABCUhAAmUpoARWWa6WkXeqKHPOsBR5PBGlrUHsj9tRFyVWOQRxz6HLN0C378zppzg9hImUE5j4ORbZXJoZNuysZJEEYujMijFyE2v4+lsjp1mUb6MLR+Ne/wI6fS+ui60xy8dn0VDJYq6CVbltvQ8xLjksjBFGMSQggeILmGG8wy9N3X/Ul8eJzd2D712n1n4kpfjsalECEpCABCRQcoFa74ASWLW+BYx0/ClSztrPWmjZFaugcrY79wQdvglm+yeZFDmJ1y/h9PJXKy5HiouRxzlwfIfXTyfQV1grLcHELld8CcmxU5BDWAdncV1cwFTpZa+uKw/r7ftch2fxvsOYcNwRMz0kBCtn4IaQvNwpQof76OMR4iiEBCRQWoF1AD/EkZz94vPpxePv9WlVfyRqab3VugQkUPkCGoEEJFDBApWTSKhg5KroeoLnYPh3hLGswqRCOBonQqhIIWYwSXWvT2JS4xgmN67m9K+s/xiqXfg7x/1r1pAUOZzTz7LV8NXAxdXwSd73XtapvH9N1qyOLmJolREIhNe0iZwvnHtse04/wrp4XQGLp4Yv8b7jkeJytOCGofXc6f94afp7JrbOZMJyZzzs4YgxzlpGJT/07FktQo/+CkeMhHSEriiEBCRQkIAj/DTGZJjtl9bjZ01z8bOC4mlhCaxUQDNIQAISkIAESiOQlKZZtVpxAo0IXyG8Nkq/52P9KHFGG+R+b2SC6t1MVFzJOpuJiic4fRL74nHkcCsMJyDBhxn27aw7vlR34HRrPrYup+FoHT1nCFHBJSRPx7H/q3OdcocPb+b1l9f1jrxvVzi+jATXYCEeHNo+Ov1JTh/itvN/nB6Cu3xtLlOqMiFKw4af4in0RYmlIBKQNMHQiwAAEABJREFUwOgFslnC3H063Pds6k67mzo8JPGzaUlRJSABCUhAAhKQQAkEtDNeAvSKbHJT60Mej0fpewOOjxLn5SDuOSYVWjDHJ2KerzJU5/g2TFBdwoTDA6w+VBehF4Y/cbFPsLYzUbEOp2tzGhISq3PaxJrjfSq1KuBMXQHjOPxwFNdanIZtI9SNuO3szNvnoAEhobV4m+r057htXc9tbfeh7S5sfzN9laFzb4UTrnOBaCUcKQgcECVeHt3YyQajxCpREDUrAQkMI+D8SMYxGYnf2NSZ/y7ChzfDzKq7JSABCUhAAhKQQCUJKIFVSWur1H1NkGcXCt/pdXySccZW3OvR4ZsMnaC7y9/IxMEbMRf7ohF/Ye8exQCeH6p53MFk1OcAbMyqsqyA7okjsCrD7A7H9UPbXdj+xuNp1ONWjMfhQ9tn2E5n++uZ4JoylNjiAmMqU2Fs52NjWva1Cw0yjr/2Lt2SgASqUKABZoc2D+CCcV3eBve6KhyjhiQBCUhAAhKQQA0JKIE15pVdgwsawtcI50UYecI30rmVxnFPcLdvxiTA7kxa7cu6HzpwIAzhxOl/4074bUM1jx9x+mbGq65fnOOAVCpSoI7b41T2/HROF2+jCf7JBNcvkcORTL5yO/Z90el7IJxweZaHI744+0rK3kOPtwz9X8h/jm4m2F4sJISWlYAEKkfA3T+TM1za1J3fi3979b6vcladeioBCUhAAmUloM6Ug4DeyJTDWqiUPqSYzR3yv0Xp7jyEhNNrQ830+peSVUcxWTUDczAD43AmwIRVgh8zcXUVEpzP2+FX2MJXvHhVRQIVIRBOCL8Ft+EZSHEVp1ex1z9EDuegDt8c2t67/Fhu/x8d9iitbkzmMoUXw6/Zh0cKD6QIEpBAxQi47wgk5zR245iK6bM6KgEJVJ+ARiSBchWY4w2N3b5ZS6dvGaM2zfENy3Wold4vJbAqfQ0Ws//t9gwMcXZ8B3Ds0Dmruvwj6PTvsV6F8fgxHGezjW+xnsCd7OMBfBCOdVi1rUKXKhIwjmUV1nexHjO0vTtO5PUzmNQKPzJwFZ8Tl7J+hsmtNXg/+Bw4emha6H+GbrRhQaFhtLwEJFBxAmub+QlNXfnwwVDFdV4dXiyg/yUgAQlIIL5Ak2Ftvjk/NIV/L0b1FJ+I30tFDAJKCgQF1ZELGMI5sNKRLzDMnIZ3IY/wNcCzuWP+Wc61H+s+rFNYG1lVJFBrAvV8LmwIw4c48PB82B+GU1lvYCLrNt4Xnh+cFFwcMFboIoFaFKjtMTvCebEOaur2s2sbQqOXgAQkIAEJvCqQDqCJ746n8n33W2JUJlk2fzW6rsUUoG3McIpVAwK38UndEWGcIUm1NeOsx3g6sSwhVCSwlECOCa3wC4hb8f43ssY4/9VcxnyUsQooWlQCEqhoAUcT3JnEyp9e0eNQ5yUgAQlIQAISqDkBJbBqbpUXOOAB/AMp7ikwSm0vrtFLoHQC/0QOev6Wzl8tS6BcBBrgdlhTt3+Fyaz6cumU+iEBCUhAAhKQgARWJFCRCawVDUiPZSww3fqRYCDjVhReAhLIQiCHhzHZnsoitGJKQAIVJzCOyaujmzrzeyH8iErFdV8dloAEJCCBWhHQOCXwsoASWC9LaLpiAXfDf30DdPpecOg7vSvW0qMSKE+BFJtitq9Xnp1TryTwqoABHWb2g4qt8CuYHLqKfy+v46juZC3XH05YE5YcNb4ZreyjigQkUL0CGpkEJCCBqhBQAqsqVmOGg+j09dHhR6Ebp6AR4ZeLLmVr27OqSEAClSewO4zP4w4/FV1+BO73dStvCOpxLQi42V96pthnKra25vbvzSWftbT383A72GDHOPxrHNdxgJ/HddjJ6qylL4bX5+swA+56T4gVXfSYBCQgAQlIQAKlFtCblVKvgXJsv8OnoNu/hU6/mt27kju8J8DxVQAfYV2VVUUCEqhMgdX5fN6X9at8Tp+Iflw59Dzv5PN9rk+qzCGp1xUjUGsdnWyLeqa2PN7bZv/qabUL+1pzp/ZNxqkNPS9+A24HwGxvwA6G40GU+uK+Z2M3roAuEpCABCQgAQlIoIwFlMAq45VT1K7d5HXo8BPR5XciwfVIcTgMe7EP72Idz6pSOoEX2PRd3Mm5juvkfF4/huvnc5x+hLfDETVvRR6v5+3wa3XlUwexHfv0TtY9WD/BPn+JYziR9Qe8fQPrHNaUVWWEApFnG891sQtjcicah2MAf2Ay63a+DnxV58OhiooEshAwS5/fZrXnQ1Krd4pd05vg0rTedoHbjnC/KosmRxrTzPdr6vYPj3R+zScBCUhAAhKQgASKLaAEVrHFy629Tv8sd1ifwPp4EYavw7E1azgSo4VTQ3Vdym005zCp8wZ2agO0oHnY2oB1kcObmKTaC1NwOFpxJtpxOae/5O0/sv4L0+xOtNndZVWn23/Yx7+yXsf6E8zCxXgCJ2EhPo9B7M4xbYEWjGdd/tiBiZxnErfDd7BeQyeV7ARaYAjP+9dz+i1MwAtMZj2Gbv90dk0qsgQkgMm2aNHmNqe3FTf3Lkj2T/ptXZj9oiQyzldc91OYSNPf/pKsADUqAQlIQAISkMDKBEaZwFpZOD1e1gIzvRlzfEPumO7EpNU/OU3Z38tgWIcJgiZez7GqZC8QfsXxdLTiSEy1O9Bmj2Ej6x22bmp9YScH4RcgzQZhlmdNX6rOqWff5TG2wI/0h/pnlmIf9nsn9n9bGxgaC3fchh1z8Giz+Rz3PLTb3zCIL7EHf2At37Gyc1VS6l56PVgPKX6ALs/z9eLPnL6VdQPc741VMk4NQwLlI2Dm2NYGFm5hT/ZOsX3yiU3ni909cPQUtZNMZDfN8Z/DXe8HigqvxiQgAQmUq4D6JYHyElACq7zWR/zehDeh9/o0Jqt2wkQcizzmspEbYdiBU33KSoSlSi9v30ef2zi9ifVu1rjFcQ/Xw88RElFxI1dvNO7UwXAtgOdYY5d/MWCoszgN8bnfyGsqiwUcCe13gePvSNGNfhw+9HrS5W3cydVryGIl/S+BqAL9k+3evtZkS0vsFAb+L2txiiNnsKlNXXhzcRpUKxKoAQENUQISkIAEogkk0SIpUHkJdPga6PA90YUvI4fLYfg/pDiOnWxgVTE8SYSb6PJTTr+3RD2T9x2MAexNtw/y/ptZ4xXD8wB+gPCVP15RGYVAq10CR9iW86NYauWzGn6KFnyA6/0zrN/iAq9uD44reN/vAMzjNOW0touhmesg7FD/HyEuRTe+yGTWHrjXV+dtFQlIILJAz2Sckkvs4+74I0P3s2Ze3Pmhl6WfX/V+XzXzxkbYgGaTgAQkIAEJSEACQUAJrKBQTbXT12fi6lTubJ+NBBdwaN9l3Y47nbX6dYCUFv+kQXA4hg5HDtUUhyOPgzGOO+BtdhBercej1X6P6fYQ8ggnt/4Cl41VnIF+gTZcyKnKWATG4SSuv4fHsuiwyzhOxrOo43r/D+vZaLMvsi7eJhpxEB/5ElIcCsfibSdMDSGJcy1jhoQkJzVXcvTYkTX8qMAFfK05m687J0I7vOW6IahflSpg5gsm271I7EsOuwKG54ozFHtb/6L824rTllqRgAQkIAEJSEACIxNQAmtkTuU/V4d/GJ3hvBX4Kd/gHsUOfwKOdTitpbKAY/8px30gB70Hpx9g3QM5JiF6cSJa8R2021kv1Z9iGncKNrXlJyDcjTFOYI1XjGmQlIkPszRe0BqLtLm9AMMnI496FYzDj5Ybc1Prw+ZMZk6165nU+u5L285Z6ENIYB2BFHtzGwvb2QeG+mU4n9Mnlxureu/cgGP+JOsx6Mcv+Dr0M9b3VO9wNTIJFF+gb4rdlzRgBmDhted/yP6yMRNm75qooyuzl1YLEpCABCQgAQmMWEAJrBFTleGMN3kduvwj3Fm8nTuP32MP9+L0bZzWsZZXid+bkMj4IXL4AAYxjeHbUIdtOD0EC3EF2uy3TDZcx/o7TLJZ2Maex2gSR534F4CNWOOVFNuwPw/EC1ijkVrtHzB8KeroDe9Ehx854phb2UJuY/djqv2F6zRsZ9fhMfwUdTiOfduecdo4bWcNz8dv8/ajrNVeGpjM25mD3JvTK/i6dCtfnz6Ixclg3q0iAQkUItCziT3e24uLYHYG4/SxZlrM7NP9ucGtMm1EwSUgAQlIQAISqE6BjEalBFZGsJmH7fSDsB4WcUfxp2zr9axrsVbv+jTchzw+woTVKmjl/61YHVOwPybbdZhus5lM6MIkm4tWexrb2gAtxl66fU8YQjJs7DGWXtJwHtrtnqXv1u0xCuTxay75GGusUgfDp/F7H/s54sIvLIYjxKbYfUPbY6t1cnv8B1rxVdbXseYwiAak2AXALazVWhJahqM/w1eXf4Uu9KLbP1ytg9W4JFBUASbPeyfjTIOflXW7DkxMkrpWzPJxWbel+BKQgAQksKyA7pGABJYVSJa9S/eUpcA8XwWdvinrd9Hlg+xjOI9SWH/G69VSnuaO71w4ujn9KXJ4w9AOf5sZWm1zTLOrMdlehFn6UuX768hD7/I1mWAIXx1sjBj5cdThOxHjKdRUexyGjxDiBdZYZRo2x08wp4Ak1vJ6Yuawl7bZ6daPcNRWm22Poe0aOdSjlYuFIyg7YJjL64+wLmSthmIcREjaXcPXrhQdfgrrJrw+gferSEACYxEw857W3Ncd+P1YFh/NMqn76Y05rD+aZTSvBMpIQF2RgAQkIIEqEwgJkCobUpUNZ+ZQ4uqdGMRJHNldrOFk0tV5QnbDjzCF/9qtFa22HybbHQg7/Bx0UcpMr2fyLDiHhEKsJp9Fgk9iM8Q98Xis3lVynAR3M+FzAYcQ61cJDSm2xCDCEVIMW4RilmJz62Yy6yDWqdzuJ6MOu3Fcfy5C68VuwjiuY1lv5/NsBhOF70BIzBe7F2pPAlUi0JzYvnw+/TvL4RgwEQk2z7INxZaABCQgAQlIQAIjFVACa6RSpZiv0z+L8TiOTf+aO3xf5rS6j1pwfBS/4FtlDrQkZTzeSucd2XbMr0v8mgmJe2DGD8sZWSWeQDgaD7gWhv8g1sUwiaEOZHKldDts/XiG22Hc869xUGVUVuc6OwJ5/Ar9+AY6/FNl1Lf4XVFECWQk8CxfA5PUPm/A7IyaGAprxufp0DX9JwEJSEACEpCABEoroARWaf2X07obwvmtOvw8Pvhd1vCLghM5rYWyHrZBS0kGeo+HhMHnYQgnhI/VhZuZiLgIm9mTsQLWYpwVjrnV/oMUF3Oex1njFMPOGMQ7EX4kIU7E0UWpRzOAbVmrvazG59sRrOcwiXXe0OtetY9Y45NAZIGFCzDX3a7k8yiNHPrVcO5ve/WGrklAAhKQgAQkIIHSCSiBVTr7ZVsOJzruxLUAvsk3o+GIq/G8XmiprOUHcWxJOjyOCQPDuyO2PZ+xfo823MmpSpYCA/gNw8c8AqEJhqOwHqYybvFLPup2WPz+j+mZGbwAABAASURBVL7FVegdXu++iS7/tU74PnpALVHDAttajw/2hh9zuSZLhaYu/2iW8RVbAhKQgAQkIIFoAlUdSAmscli9nd7KHbd/IMWl3JF7H7u0JmullBSOcA6Oi6J02HBIlDijCdLhWyDF2XCsiniXmcjhPJhl96l4vL5WdqQt7TnU4zMcxP2sscoUBvosHvNwNBSvFrE4To7UWi/jOGullPC69wE+Fy9Fp/8T93rMoyErxUD9lMCoBfqmNT0M9/B3eMGoFx7pAu5njnRWzScBCUig8gU0AglIoFwFlMAq1ZqZ4QnCScM7PHxq2snkSTj30uqclvM6CTvD4RcQB8j2eyzCZmizHNrtLbx9M2t4nJOCSjNu9qaCIoxmYfc6zv4WGDbmNFZ5BItwECbbi7ECKs5KBDa3h7gOw9GLMbbBlxs7BAux+ss3ijJ1vi4YVovSVh678vmZIIdwXq9wUvjwvB1k7JhGDBexOMLrXzDfgf2excT+NUOvk8ElYjMKJYGqEjDzTQeS82H4Y2bjMqzDJJllFl+Bq09AI5KABCQgAQlkIBB2FjIIq5DDCoQdsbm+EfbBoRiPF2D48LDzls8DITlwLxy/ZJfegFY0oM3ei63s1SNeDN187HbWwssaOK/wICOMMButXAfhHEojXGAEszlupE3XCObULDEFWu0IhgvbISeRSh53YpbHPKn/ijvWjeNXPMMIHzU8iRx6h+aebPP4fN0V4Xnbj9dze/8567187BHW8i6OD2M8FqALR2Gev4470Lny7rB6J4F4AqOJNHu69Rss/N1ZOJrlRjGvjevCFqOYX7NKQAISkIAEJCCB6AJKYEUnXUHA+31d7ojtiQFcjQRncc4m1nIt97Fjv2cNR7XsiVabjnbbhzvCd4Of9vL+15YpuIN33MBaeHHshKu9ODuqOZxfeIdfE+EuOulX1V5DUsQbfXgXW4u5A7cm6vAJxixOcXwtSkOOH6Iec14TKzxvt7R7+Fzel3U6HwvntAnP79/DEJ7vvKssS0ggno4BXINu7I0u32CEvdRsEqgpgZ6JOJUDnsuaRbEkwReyCKyYEpCABCQgAQlIYKQCSmCNVKqQ+ZzJmC7fHf1Dby6v5M7imwsJl+Gy4StvP2L8b7MegYncWWyzD6HNZvL2iotZ+GrSs5ypj7Ww4mjB1tgBWV+6/AA28Q7WeCWHg+IFK3WkCmx/a3sUjrhH8DnORThPWtYcXd7GJsJXWjkpqISvCHZhc3thhVHa7F98bn9o6HnuCEevfRuGn3KZFS/HGUpUtuW6/SHraVwfH4Z7fYn6oWYlUJ4C69pCPj9C4jrNoIOWuIdTHWQQWiElIAEJSEACEpDAyASUwBqZ09jmCkt1+gR04RK+qfwu66d5VyNreRXD79i3A7nz+nnkcCR3ao9h/Q3Wt55RdTSPv3H+8NUkTgoqa7A/4aTcBQVZ4cIdHtr45grnGf2DJ2MS/j36xbREVIFBfBfAXxHrkqABhq/ECjdsHMdxfMxYCy2z2N+wEzuyOOF53ma/QZsdg3FMZBm+wOffgax/GVmAos4Vjsb6OMd3FrpxCeb62kVtXY1JoNwFPB+O7l6URTeZGVfSOAtYxZSABCQggeoR0EgyF1ACK0viTj+UO1q/YxMhGTOZ03IqTyDFN9ihdyLFwWi3S9FqP8Nke4r3ja047uSC97MWVgx17NMGmOMNhQVawdKGM/joWqyxyhwM4AcIX9OKFVFxxibwNJ7hgpexximOHAPthi7/HKdZljcweOEJLMff0IyVHzXJxpYpm9oTQ68D4fWgjomsPHaG4RQ4nltm3tLesTEcn0Yev0GHz4AuEpDAkEBvW92tvBKOiOYkeqlb9X5fNXpUBZSABCSwhICuSkACEliRgBJYK9IZ62PhDV6HX8LFT+ZO1ls5LafyAAxvZbJlazThDLTZTWi3B6J0cLr1M86jrItYCyuGqUxifaSwIMMs3eW78ZF3ssb4uhbDsDhmYDriOEKXggR2skEM4jeMcTJrrLIGn8u7ZPYLmZ2+Nzu6BmvhJcECbGSLT+BeSLRw8vdpuBHNOAl5TOX4d2W4h1nLpzjejARHM4n1S9zjm5dPx9QTCZRIwCw14KGMWm8Z6EdItGcUXmEjCSiMBCQgAQlIoGoFlMCKuWrDua5m+3uxCPfCEI7WaGF4vpfk/6UrA2w6nNT6R2gzY90UrfZPbGFPYlMr/HxVDP6aMoAzuaM77zX3je3G+lzsjXCP6zfTw1cgwkm5N2b8WOUiJPgzzPKxAipOgQLTbQEj/Ic11o6cwbAnVsex0bdJdpIlbJNrcVpoCT+m8OtCg7y6vDlCMmy6PYF2+zNfP16HHMLXoK/jPOF1Jby+8GoJi6NpaN3U47/o8o9g8XMcukhg7AKVvaSZnZLRCCbwj9wOGcWunrA33VQ3dAT5w96Ex7wZs3z8sPUub8HMx5pxvzfC+f5khut9efVsCSMYCd/jhn2HWT4OYRt4eZsJ28UT3DZe3nbC7VDD9jST21SYNyxTrB88GsFINEsJBF5+rbl5BK81s/43HmEbCttY+IaLex1i72OVgEBN1qaA/lDGWu+zfWN04rNI8DuGDMkXTkpWnC0/zZ26/zKZ9DXksD7a7JO8L/uyhT3Mdp+P1NAGmIt4vzgW3hiOx0E0eV+k/oGxwlcx/86k4NPRYipQHIFwXifHDxis8KORGATOZ7fjLdwm28PNaDWcjw0Iye4YIe/ntnhbjEDDxphsi/h68gHk8TrO803Wu1jDVwzD6w6vAijN/+O5jn6GCZiB2T4dukigRgUWTkb4MYb4ozc0GdK4r3/xe1m8iDd5XdNdPRuOn+PTmuf4NkN1rr+had23HdQEXNnU4zc1zfc5TXX+bFO9z19OfbG50R9pnrDubc39/tumbpzevF9+t6E4jNcyq3/rhk5vnbD4b0TxxqWW4gu41zfP9vXGdXt7S7dv/fI6buoYfEtzV3pg4zic09iPX3ObublpATqaGv3Bxhf8cW4zz7A+29jkjzY1Ym7Tiz67cbzf3jTgf2ocl57TuGX+k00dA295OV6IPa7L20JbTJqOiz8QRSyJAJOWjR29m7TM8y1eXtfN83zbpg34WpNPr2xag681C7wjbCusy3ut4X1rPsXtag63sb82OX7UOAfHNHQN7vpKPL7mNMzzyavN81VKMkY1KoFRCCiBNQqsYWft8t24a3sFEzcXDztPsR5whJM3/4R9ORbzsR3a7TuYbC+imBfDddyRHCi4SccuyLMWHOilAHtiU14LXx2cwGmM0gvDZWjHz2MEWzKGrkcTuIKR7mSNUww7YxAf4RvD8XECMkqCffn/1qyFll4GmMdanDLNnmUi6yTk8CY2OIPP+Z9x+iBraYvja3xe/gmdvgc/XawvbWfUugRKIGDmmbTqfLZbEivZnkkXMw3qnjR0+JTmLv9gU9fgRxrXw6e8sfGSfOp/89Tv8FDzPhOJnYvU92Ffwmvj+nw9Gu51KKyoVbmyprHuwk/EDmcTvxuKw1hpfd1tifn1A5aeFNprmuN7N3YP7Nxyn6/D2CrlLPCYN4fEUlOn7xPWXfNcHOB1fl7O/c+p+8yX1zGS3L/c7EJz/4LB38MhbQ338OHQGgaE96rjeF89NxQmFXxdbksbm6GNf2/fZm5fMEsuZ4ybX46XwmeyjT954uc11+Nzoe2mLv9QS6dvybgMyWgq5S8QElZdAzu+tP4+2jghPcSs4cfpoL+yrn3Q/wO3c2G2+LXGhz5UHO61Jow5HD2/Hq9sx21hb25zJyWW+8PL206Y2iB+0zeQHsdt5iN8vdmnsdN3WiscBciFVCRQTgLVmsAqjnGnT+BO0mfg+CEbfAdr6Yrj32z820hwGNrs42i1y7CtDaAUlx58D4ZFEZoOR1RsAr6QFxwrHC5bj/cyzgdYY5Vu1ONqZLWzEKuXtRyn3R7g8zOcjy4cIRRHwrA/6rBZlGAzvR4ppjDW6qyFFcOj3L0MYy0szmiXnjx0RNa5aLf92P5RXPwM1ttZS1cM63O9X4UuHM7X6NbSdUQtS0ACFS0ww5OWLt+qqSt/RGM3jrfEv+vuVwHJz/in/zIDduP44py/kIGWKmFndHMz+wLYHpNiPzPkLvdBnNbYmT++uWvwgFXu9tWgS1kIcKd/AyY3P9fY7cc1zcc3PcldDHN+sJP8jMmBC/k3aU92dEPW8MMwnGRQhpLMeB0Mezr8/KHtBv6T1Pz8sP02deaPaZnj70b4KlkGzSvk2AXCkZbchj7K7efrTePTExPk+H4u4fbjPzXYqVynOzD6eNbMCpOo7TDj+zhut6n/3AzfXzAu/Rb7dFxjp392/F2+dmaNxwmsKDUioATWWFf04q+onMTFT2ddi7VUJZzz5jA2/mUswHFMXP2e10tbtrHn+Yf6/iidSLAnWtBecKyEf9CBzzGOscYoL3KM38Xmdk+MYIqRocA9+DGj38oaq2zEQMdFeQPYgjfCsD3jFV4cz2OyFe8ILCznMtl+iUEchxRf5riOZI139NtymlvhXcZXDuAbnOcczPadOVWRQO0ImM2tncHGH+ma/ICyudu/3vTR9Icp/ELATjb4DL6B2I2va80ozSXh+46NmED7tJl905Gc1t/g32/uyl/R2Dn4sdJ0qcZbvcnrWrryRzZ3+Q+ZMLqU9TRz/xbgR3Jb2YI6nPD/0pZw5M1buf2eCNhJTKZ9t6kRlzd25i9qnu2vx2suulFsASYUd+Vz+AeDiX+f2813hrYfJpEcEfZ9Ch6Mbwq3w0KfuP2cnm/wyxq7/OKG2QO7YKaHBHvBLRQSoKnb9w3PvVg1Sfx0PoenFdKnJZdlrLfH6tsK4ly2ZJu1cl0JrLGs6W5/ExKEo65CQmTNsYSIsMwz7MOeqMe+GMRFaLfbsW2Jjrha3mAMhy7v7lHf55jKZQoznuXjMICwruKdF8fxJMZDXx3kyin7so/lkcOXI/fzQ2hESGQVFjZs346tCgsytPQAHGcNXSv1f+HXSKfav/n6dAH7tC/rfuzSU6ylKOHrTruwL5cyibUL3K0UnVCbEii2AN/clS55XOzBRmwvnEMo7CgshN/k7sfA7OMMvz1rSAJwspJS3IfDkV8fctgnDcl3mrr8X41Muq3yoK8GXTIV4E78jtx5vqZpff8X/Y/jjirXAXZjo4UfTc0gmRVDnQPtTJTswyToAZ7DT5q60n81debjvGfPrONVFniONzR25b/R1OX/SPN+scM+xRHuwRrO+1ue71MMa8DwfjP/bJLLXdI0wf/ZNNePZJ9LVwxvCM+9WJUD+SBr+JolJ1HKpFh9W0Gcmvzwgu9xoqyg2gky2ycjxZ854G1Ym1iLX/J4F5owGf/Fb7C5dSPsMKLMLq34W6QeGQx7YJ6vMuZ4dWjgsoewxiv12BHh19niRVSkLAUWH5kUjlSM1UodHLcUFKzL10QO24BvKAuKs3jhPNrwi8VXy+T/xV8t7GK/rka44JBCAAAQAElEQVQ/WlGPnUvUs/B3bhM6/wqd+CiTWOF2ibqiZlcmoMfjCLin4XyYcYLVQJTG2b5x2Jl0979xR2E/vl68gcOewFoJJbxPWpdJie3N/fj+Xp/X1O2n4zEv1ZFilWA2+j66W2PnwDubOtNug/+ef0vCzu52DqyKyrzUcZtpZde3h9lpTV3pA81d+S/xtkpGAhP4vq+pK39WU+qP8kn7NfrvCMPGbM5YK6M437kCmwDYDnk/ia81T3K7+QZvq0igaAJ6Iz9S6nAUT6fvwE/yu7nIRNZivtgMsL3nkceheBbNmGY3YmN7DuHIEj5QlsUs5YvyryL17SCkWHNMsfiGg8v9gzUksTiJUAw/xyT7X4RIxQ0RDved4xPR4WsM1bk+CbP9IF6/Cp1+G6dzWJ/g9cc47eT0Jk7PR5d/kPOtx+tr4F5fHeGnnd2T4nY+Qmt343xuky9EiPRyiFVpst/LN0Y9dWwJxxdGvdzyFjDcBbNBAMt7tLT3meWxJV+vNrcbEF6/gPBJ7/PsVHhd46RIxTAehp+gCz/CHD4PitSsmpFAKQQ8SZ4uRbsV1eZd3jLxYV+9sSvttJw/EHYmHQjv77hjX1EjWbKzDXydW43JlaOb5vvCxo78jFXv91Vxk1fymJYcX3Gvz/Ak+DV197+JO+q9ZrkbYJjMToTkZuW9D2LHhymNvH9jh53PRNaTjV3+LnR6GCPvVilIYKbXv5y4GoQ/BdjhANZgbWCt9NII97W53ZzI7ebR5g4/EOGk75W4j1Dpa6LG+l9NL77Zrbrwiy91CEdv/BPFvBhTVkA4p81FyGELJq7OxfYWfmmsmL0Ye1sDCC/SY19+ySUHMWnJmyO+3o03ct6tWEdYVjrbQ0xihkN9VzpjWczwsDdxZ30aE1BvRguTJXncBMNTrE9jEHM4lgt5PSRh3sjpJNbw60brcRo+lXsHp1+C49ec7zFef5rb4aN4Hj9GJz7IZNabmMDZBFd7DpVwCQlfx85w9EfrruEC/Nc3GHW8xTsT63G5OK/BjvBLhgxX5iW8frXZuahDSN5dxHUxlz3Osxaz7IcUf+Ob87CNF7NdtSWB4gnk02I/r4o3tgJbWpM75i0di7Zoaky/P7DQn+CnkVX7WmCJnbCo3+9pWR/7Ns7z12FGBX74VOD6HtPi3AFv7PRNWz6Od9PvTnjdvxmnGhIOHMZKy9oG/0uT4TfNXf5GzJo1bqVLaIZlBfg+b3y3tzdNwOeXSFwtO1/13LO+J35xc51f0zwHu+Fm7n9Uz9g0kjITiLPztOSgqu16l7dhEb7FYc1gLWZ5ijtZl7PBT6HNDsVke4TXK6vUo4cdvo+18JLgrFEH4ZtUpPjFqJdb0QI5fA2TUNwjR1bUn+Eeu883ZuLqY1wDhyKPkIC6BYZzOfvrWfl+nf+PrYRP6T7IWNcgh38hwSXYAp/FbP8QQrJsbDGLt1QOD8Lw24gNtqARXx91vA2xGpc5gjVG+R/aLM6PJsTozUhiTLKH0W7hSKxPcvbLEM4pxytFK46Q1P4Zt9s3F61NNSSBIgokhpKfYLeIwx1ZU+5JwxzfvMdwVGr1/DtgH0FtOG2Ywn+Y5HFh80fz71t9zjPhKLORmdXgXENHy3Tn9zbDpWnq15NgE9YaLL6Tw//RPK59/3FhX6gGBcY65KHk5wb4ROr+S8DPG2ucilrupc664d3ufl3T6jgkHLn40t2aSCCqgBJYK+Ls8q3gOJVvcD7O2ZpYsy/GlAvwfTZ0DHfwDuSO6b94vTLLAF5kx89hLbw4pmK2bzzKQF/gultzlMsMP7vjV1iEGxC+Hjn8XKV9ZJ5PRocfhX6ciTyuGNp+gcnI5pJj/F1guJj1+1iAk7mOPoly/nrWZHuKfQ7J0Fjnhwk7ibtxzO8eFfEirMX5QzKRkwKLIfwSaoFBSrR4u93C17gvIMHR7MH3WIuVHA5J3K3Z7vkIXw1nwyoSqCYBB9aopvEUPBZ3a+zGAYnjLO6UH8+/WbWWlDDuVL7XLbmwN139lPFzfe2CTaswQGO3vy3v6beBhH+P/F18v1C0/aQy5Wxw2Nl17mc3zvWdyrSP5dOtWT6usWvgXWZ+FpNXFzgwtXw6V9SeGMxPg9ed39yZ/wL44UFRW1djVS9Q6y/Mw6/gWR5edM7kDLuzNrFmXwz/QIovIodjuVP3g+wbzLiF6dbPN4l3sBW+hvP/QksO5484REjkACHxGOskpi9wLD/ENDw54j4Uc8YHfD10+VcxiMvYzxPZ9J6sxTvnhWE1GA5jPR2D+DGTaB9mUqc8D7c3zAJwLWJdDBshj4+M6ieF6zADsS4pfhUrVMnitNqVNPw6dxYOZP2/IvbjDdxmz+dzZzu+wbIitqumJJCpgDs2z7SB8gs+bI/CVwabutOfGfxkPs8/wBlr+bm+AeBfSvP+w8bOwfAeiRwqQaCxK38Js3znudn+vL0qq0oQcDS5Ydck7+e1dA68Bzd5XbhbdVmB5rr0wsTqwgf3H+SjTay1XrZ1s5Obu3FCc+fC9WsdQ+OPJ6AE1vIsZzMZkMPl3JF6Bx8ex5ptcYSv2l3EHbhPYCHbDUeJZNti8aL340E6xtnBduw64o4P4ADO28oapxjCUXE3gR+rxAkYKYq7MVm0PfrwRzofy/o2Ro6VtGOoURWDYV3W97Oejzx+i/u9/N4Ettl85BCOTrsJMS7OaIb3YzxGszMQ3tzEaP1aDOCFGIFKHmOaPYsn8GMM4rPsy8msz7FmXxxb83nzM3RhCmr6osFXlUCSxDnCs8JRmub4XgvhfwJsHwDxjshmsEouDrzHLPlOU1f+gkoeR4y+N87xdzR1+V/MhxJXW8aIWYUxjNvMtNRylzZtkN8briTWkuu4eebC9Zq60plu9kl3n7bkY7qO1R1+RGrNlzV39m8rDwnEEFACa3mKCW6CYTs+lGPNujyPBkzlTtthmGoPYlsbyLrBosafjkeQgG8eo7Rah04/bKWRunxHrr9dOF+sI4C64Pg/hMQHg5ZV6WK/EvyFfQpvusrpvBbrsU+7YBHXf5d/kdfLq0xCBzt0L7eTOCc6dqwFYGuM5OuT3X4UgPDVQ04KLI7vYQs8j2q57GSD2MIexgKciAG0c1hPsRajbMpG7sBj3sypigQqX8C95o/Aapzj3+Be9/dh0Lnulr9FrwPY5xu78j/ALB+HGrw0deSPsrxfA/g7uZ3oyKKVbwMbwpMfNHbjMyuftTbmaJjjB/mEpts52jewxnlvx0BVVsYbfFdP6q9tCafngS4SKEwgKWzxKls6nPS7y//JUbWyGmuW5Vn+sfw+2mw1bGYPYrr1oxov4Yglx5Mc2uOsKywjeDCsky/wk5/ht9vwJizFLkw4bTOCeCOZZZDr6c9cT38cycxFmSeM8S7flMm8p9jeuzjWcj1MOayvFvbvfHT4n3Gvr851F+5jt0tcwnZZh6PYi5tYnTVGOYRJlw9yjMNvn+E8ACm+FaMxxngKdXgRYSy8UVUlJPK3sCf5vFub209YT08XYXzN1FyIua5zwxQBW01kLpDNa20a6+Uyo/G726p3+qrNXfmTLfUT3T18sJONRUZDKHLYnME+3VSPKxtm++QV/v0qcscya47byPg5vlbzHD8ZiZ0Bw+psy1hVRibQwGTExUwQfwYzvX5ki1ThXHd5S1O3fztJ/WyOLnxoy4nKCgQSvr5skLrfxuff1BXMp4dqTGAswx1+R2ss0Sp5maGda5zBnaXtMx5GP+Pfgxzehyn4HK9Xf3kW/8c3CL+MNNAWdCN8yrH8cDlsz7Y+tfwHx3RvB/px0ZiWzGKhLl8TOXwKDQiJ1jWzaCKDmMZ1sgv7/Vt04vVl80nvZFvEsf6edSFrnJLgA+jCusMG68YOfCzO667jIkzA3YxX3aXdzkSKcPLY8Aln9l+XHMSdTLhuUd2oGl1VC2R3JGEK83DKg7Lla5iLzRY14USHfa1sO1mWHfOP5BI/r7Eb23MnM87fqLIcJ9A0B9vlU5znqWsbKWAdMUF8btMq2KPat5dlidyYgFmrqSE9CfAj+Xisb3sw1JhKZS1kGJdPfVbjPN+R245VVufV23IRSMqlIyXtxxxv4M71ATDsy35k+WR6nG2Ec+98DJPtFlTjkRMEXKZsb71w3Mf7X2QtrBjCpxyHLzfIPF8FhvfysdH+WiEXWW7pY7xfYgsLXzdb7gxFvbPLN6Dj0ezTKWx3fdZKKzuw7xeiHrvzU7vy+KpWq4VPzkIyMJblnhzjLrjah/v6cTi3U4xPLOeznTlY1+Il32IJZBFnqs3ia/QHuf1/m+HvZ82yrI8EP0Kn61wNWSordmYCTfPz4UTlWcTv8RQdWQSOEbN5rr8hSXEGzA+JES9SjEHGeYY1nA90jocfETHM5e1H+WbzRb6Op7xeFoV929Xg57XMxc5l0aEMOtHY7fvx78gVTDx85NXwujZGgRakfkZDx+C7xrh8RS7Wcj/WyafpDJgdxm1J+9FjW4tmA/7Hpo58rPPBjq0XWqpiBfTEW7zq3s9JOE9PONScVzMpj/KF7kgswlfRbvdk0kI5B83hOnbvLtbCiiOHFJuhy9uWCTSAkLj6/DL3j/2ORzEf3xn74hGXnO0hcReSH19g1Eo58opdXaZsx/V3MiZg/7I5EstwwjK9LOyOo7Ejlv1ErsO3gGNDhjbWworj78jhlsKCVNjSk+0RtHHnFAgJ7PAa6pmNwDGdsb/JbVSHuRNCpdIEkqMy6bFjgSNd9nUnk8ZGF7S5y3fzvJ8L+IdGt2S0ufv5+n47nH0wO4bTxRV2tFt6FCw9wsIO70D+MMvb4XA7Aki/grwvns9fmZ4Lw63sVThCmJOil63dcXZzp3+g6C1n3GBTtx/K9XIxsJz3jxm3PYLwi2D8Gwfr4rx3sv4LjvCeOSQ7n+Dt8O0NTsqubJLkct9u7PIdy65nGXSoiR8kpwMp9wss7DNm0EINhTS0IJec39Q1+NEaGrWGGklACawO3xWDOJWeIfnBSQbFMJt/iD6OdvsptrTnMmih/ENOtnns5GOsMXY6pyPFa7P2i7+HfxrA1Aj/i1IMn8e2VvqvS9zvjUhwDreh/TiuCayVXQxTuf6OYwImHPFY+rG02m0wnBitI87xvYDjlomXw2d5X5wj5xJ0YRLCUY0MWUOFn9mhzX6DQRwAw0UZjjwcQfd21GFf3OmrZtjOUGj9J4HIAlMix1scLsH8RXV1/158o3z+b+7w9zs8vI/bvsi9WgTY2awftjTdy3J2YENvckLvFJzR25b79lBttbP7ptRd0Tul7lc9rfb7vmn1N/S02+962+zqnta6S3rbc98Zmu/l+XtfPCGBfWEoHtIPuds3AIQjuDgpTnH3qTA/tWX2wC7FaTH7Vpo688eY+4n89Gh89q0N04IhvJ+8yWFfh9mexvX7SuX243l8gu/19rfUPpf4wBcNdgDcPs1t4GO2xPxI0z15/6Ew/Ja1HPYptuCIrUHgvAAAEABJREFUP9lyn6/DadWW5gd8PTP8AG4fK6tBOp5ln64z+ImO9JPcbj5kS25bS11PzPYH7DQ3+z84Sr398D1x8u2mOb43dJHAKASSUcxbfbPO9ul88T+ZdVJmgzOcCcf70G5/zayNygnMT77waMHdDVl7w6TX/OLbKgh/OHctOParAW5Dq93w6s0SXluEC9h6SNjF+OoZQ5VBMayLBGegw98RoTeFh2jGuYUHWSKC4ZAlboHjXAMp2njfskdm8c5RFce9nP9a1MpXkDnYZcp0Jh0bEZKEeyzzWLw7mhnqS2jCmzHDa/tvJSFUKkOgucvfCENIwCL6xZHHZHsxetwCAjZ2+jv57PwGzKYXEGaUi9rVltgb8mbbNNbhxN5W+3VPe911PZPtjue3sefB7A/GetlmtecXTrH/Mt7vmOC6tm8RzkrrbPtc3pgk8NMY1lkzL2ykLc3ljp+wvKPdM289YgPM/jR1eTj67Wsc0yoRI48slOE283SP3KBNz7u9AbBP9E3Ad5nk/HVYv6/U9rrf9bXbX3sn2y097Xb7wraGu3vabCYTnf/qa7Mbe6bY0PYQ5u9tr/tVbw4XJ/32+TS1t4TYCezT3Nf4H0pzySXwj3h//s2laT77VkNyLl3kVzK5u3P2ra2kBcMt7vaJsN5DTevtLckgDuwZSL7TNyX3EybKrw3byXB14aP4cW+CU5MUn05hi7ef1LZ0+NdheG4lrWfx8EZw/05jt5feNovRKWYmAkkmUSshaDiqBXgvu/p61mxKin0xH8eizbI+Z0uB/S/S4q0ISbxYL477MSHw6lcF8pgNIN723IBdGa/0ZbZ/i53gpyWonuQVBzRUHGvxj+Uvcb9vMnS7lP9tyD/aCXaJ2IUWdPmrCdAEX2LsnVhjlPsxBf+MEaiiY2xsz6EV13EM4asLKadZlNUY9HfYD5tAFwlUgIAbzoSjqQK6WnAXWzp8C+bxvw74G+CeTdLu1V7m2c75damtyeTDfiFZ1T/FOp7b3F54dZYMrm1lCxdtbt0Lptqs3inJ13sTa3JPP8uWwq8Qc5JZCe+ndhxEOgN3e3gdzKyhzALzg4fGbhzA9XaGAxMza2fZwH/P5we26J1i43oftR16WnPXLZhm9/a3Wmdvqz2K9cOR/cYuLbvgiO+ZbIsWTrcnFrVZV4i9cAquZOwNeufbqkxuHMfXgIERx4owIwcz0S25tKVjEROtEQKWUYgNH/amdMC/Z8C72C1O+H+xi+OWkDTn+g3b1Nv6WnFVWO+hhteHsC1gui2AGV+nVtK5nWwQ/CCCCdLHXtl+2u2evinJab0v2jq9zxkTvXYwo2T9GsMmXiqO1xn8wnFdi8IHvS/dqUn2ApXbQvgDVbm9L6TnA9iK6Y7waVYWL0YvwLAv2vFzbGtF/SNSCEnmy/KdJl2uY135C+zKO9OEFGsifHWwy7fj7BNYY5WLsBDhUO9Y8cYWJ4zLhhIfWWyjY+tT/KXWQB9+hQ5fI37oUURcvG2GRPOcUSy1slm3YBJrA4RkedhWgXErW2AEj7/Ief6K0F9eqfkSHNrsX3wtfw8tuuEY5DR2ySHF9Qg/9hE7suJJIKbAXd7CcOFvYRZ/M5w7GDcyflmUllm+bj5Jv8zOvJM1i/Ey7FAJ5y/95fgBW7W3NXfw/HZ7hq+/Md7DDAUf1X9mKZi46Guru7y3NVkbsKNYOwFk9T6TrvaRpvr065jlpfvqHQc46sLkVfO+eA+32Uu4bNb7OvPZRjfbOoUJhhaum7f3T22Yxe1kACFZYMb8DufIsoQ2jImJbe2FvjY7mcksJrHtYDOEI7YXZdn0ErHXyvu4N8E9t8R9lX11pq/ydA++CyB8C4LPB7z2kt2tZ/h+5kGYH83tyXrbku1D0hxhnzKrbcr4+hLiv9le5PZzPttd22DbsR8zOczCvz3DICssjsl1qDuc+3Xh6PcVzvryg3UpTktzNjlWdbNdON6bX45f8NTsF7H6NmycxIp49HHBItECZP2iHq2jUQPd4+twh+TVoyPiBQ9/pB7jztThaLWfwYrwRyte34sT6TGcAI/0ZsvwaayCbQH8kjVWeRR5XIDpVtoTZobD9h2XwbBarIGVbRzDljBcyGTPmiXt4ySEc0p9hX3oZS28ONaE4/vox3s4vg8XHnAowuN4AucMXdN/rwpMsf/jjc/AEKZZvFlvQx5fYBsqEihbgaZx6We48/i6jDrohiQkA1Dyy0xv9rr0S9y5OjDDvoSvY93obm/lzuPeT4WjGzJsbCyhuZN5Jms7Ha7i35rbxxJjRMskdkRjfXoIHvMR71iOKC6AzOY74ZXIC165Fv/K44DdyPo17uy39rTmvo5trfQffoIXs3xvq53PpAffX9nFvOefrJkXy/klLQ9grcwbKkIDq83zVZom4mtMTGb5OrP0SEKi6CZL0/17H7dJvVNyZyw9QzFv97Taf/j690Zz246vM+H9VXeW7TvswHGrYNORtjG/1Z5eNMnmxqqex0NmFu05bI4XY/Vt2DiTLZxjeqRkVTNfbSaw6nEi12ALa9zieBiGr2KK/SBu4CqKNvTJAX4faUThZO7hXEOrRIoHvgm8jPXBaPHGEmiOhz/+J3BbmjqWxStwmfBp3TvovgeuLuEndyHhXIfwaeVfIhnyfQ9aOa5wws8NIsR0xvgHwnOIV1SWEmizf9H6GNaf85EsjsQ6C53+HsZWkUC5CLzSj5b7fB1LbHfesTprFsUXtlr4VbQsYo8qZuOE9FA3O25UC41u5r877Pjecfbevgo4BURPKz6Twj7G177wYd4zoxvqiObmpmVfaVmIHZkgtREtUeqZzFJ4z39h/pvYXXFgPsx+l6Tpsb3P4H29TBTFbiNaPDr0TrFDcwvtwwb7IQyxTuMxXBctHUiPGO7Birl/lo/r608/wf6Gr9JxknkJidZfudnRvfPtfT3tdddhJ8vifcyYBtLTZo/1zMd7HfZFGLL88YBrk8G+hWPqpBaqKYHaS2B1+KfgCOcPiL2in0aCw9BqP4IuKxZIceSKZxjFo46Pcn3GObeB41bU4bco9Setg9iFY3o7a0jsjAKjomddm+M9ANOxVUlHMcnmwvFT9oGfrPL/QkuCjRliT9bCiyHlv5MKD1TFEdrtHozD8XB8b2SjHNVcCec+HuErobyiIoFyEvD+PHcukNk5PR2YXQ7jbewc/Cx3xL+ZUV/C0be/SjB4SN8UXIpNrS+jdiKHNV/UZl1Jgx1sZse5457IDYAxV01TPw53o2KOwuppa3nMLDmTFrGOPuLTAEzi2hGe4pCF7XU/xPYWthk2Ud5lwevtqWbHwXzufA3ghz3I8mJHbviwN2XZQtaxx43D5kjsCG74xRjHfe52qLkd3DfFfoJtrSfr8Y0p/rY20NdqN/jgokMsTcO3FSIf+eM/Qs4O6WtvemBM/dNCNSUQ3pDXzoBv8jok+AIMdZEH/QJ3mPZCq/06ctzqDNduD3Ad/KcMB3cjFmFWSfvV7VvTJpzXY72S9mOkjcecz7Adx74HOn1CzLBjiPVnPp/jfAfeOSIMVRR8CQnWqVbaowMLHkQRAmxuD/F1/kSqn5pBa1vxNYI7ABlEVkgJjFGgodNbUyR7c/G1WbMp3MHKJvDIozbO9o3NkhlcIvZ7OBjwIndWz/N6O2Jh67i7YOZsp6LKwk3tiZ7JuDzJ2afdMnkv89bmRvyiklB6JuFurtdf8G/6swX2293sJEts/74p+H4lHJm39HifbrP5Pf243NKBQ/lYFqdRYVgWR/JMT/otXqvYknMP36QZ8VfZxjpQg52I/ODHuD1dHo5yGmucYi7XN7XpwZ67c1fwNTJ8u+C2CG27wa80T77aO8kejhBPIWpAIKmBMb46xHURdmhiH+GRRw67od3+9mpDI79Ws3MmTCSW1+D/hHpchOnWX7JuhQSrY0u2/0bWWiwJDOGNVeZvGlaI227PIMVlnCec1J2TMikp9iqTnpR/N1rtaXbyLNZw7g9OopXw1fN34R7fPFpEBZJAIQLuZjlsa4adCgmzsmX77sbfVzZP1o8nOQ+vyzG+jv3arjoGU08Pb3r++ZP7NrPK/pDArL9nst1hbu+xDJJYDn9PU7fv+1rAMr5llu9F8gM+S24Zay/d0JOm1tY3EafT9k5UYHLzlbFP5/bRVn+H5e0TvO/frNkUs5BQzyZ2xlGbutKQ3HtTxs30eZp+rKcPZ/ROHZfdeshqEPvweTXFbrW8fZDPh++MvRkbAOzH9Y3JYT1t9hhq6KKhFiaQFLZ4BS29+BdU2uFoithrZ6x3Y7KN+Q8jl6/N0oP/ceDlcnj+ILeLB1DqzP8GmMx+nEuX6J8uM2allHA+sy9ilo9DKS/T7I8wlM8nQY75mGpxvtZYStditt3KJNYgTmGT17LGLNujDl+MGVCxJDBWgebugW2R95CobRhrjJUu57gF3GFZ6XwZztDYlb+Cb7hCks6iNmNI07y1h1/2e/bNa7wYNXYJg/W22qM9U5ItiBXO6xizJwyJ0+FeOfsPbTa/af5zH2PHR/s1WHfYH+rMNlnUbt1Y16rj3DxMwPXw/UTvfHsXN4xs3uekmNDU5dsxflYlk7gNXYO7M/D2rFmW+w22Z1973U+wVWVvU0Pb0WQcDbO9COasoymDsPQXfK365AsbW9bnZhtNvzRvBQhUzh+gQjCdn5/k8BUY3l1ImKWWfYHxPoVW3LTU/bo5EoEc/gfHYSiHi+N2jMfhJe3KDL4ZNExjH0ICh5OaLp9HA7L7KszIaT/PWZ9hLX1J8KHSd6ICezDdHmKvz4Uh7MSN9s0VFx22bMkk69RhH9UDEiiCQPiVLPf6o80QjgzMrMW8W3gtzCz+ygI3zfG3cIcvHD2fW9m8o3z8yaTf3rBoms0d5XIVM3tPs70Rid3IDg+yLlEKuOq+QVM3rkE4aryAMMVc9LltV3/BzcLXwkbq8DzcvzphNeyzYLI9Vcy+Fq2tba0nGWchyVTo1yuX7bJhVYOfiAq6tNyzYB2z5HR2uZE1fnGED8tvQpr/WE+rxfoxq/j9HG1EJkR7H8Vv4PYRLjrS98zPwuys3im5j3EZFQmMWqA2ElhdWA8JplCnnrXw4uiB40L04Vd8AsbcKSq8b5USYbqFr+qFE40+XeIuL2L7f8JGVtoTcX4M9cjjIvZFJQjkcWKYlLS2WifbL4cE9SMYwBz2RWUsAm3GN4w4GYZHxrL4cpcx7Iw67FzSX81cbsd0Z9EEyqChRYP4OMzDJ9/Z9cbxQG4Qz6NEl+bZC9fj+61wXsitI3fhQUvswIVPYVbkuOUVju9t+PHY/mZMYhnfZcTpXcLkTnvjBtg+TrjiROmdYt9hS39kXVFxbm+Pm/uxva3JGU+tbeHX4VY0f0U/Fs6bZm5f4SAGWGMWEmIiP+gZFzNoZrHmeIPXt5xqKdoyasP5HuT6NN9/YG97/S0ZtVG6sDvZYG8rfs1BHgHYo1jhxTrd7NRERJgAABAASURBVCg+H49Z4Wx6UAIrEKiNBJbhrfyDFA4LXQHFiB9yJsPuZryKP/RzxCPOasa6oZ3yX2YVfoRxH+efq2+NcN7sZhtAOJR7zewaqLjIn8Ecj/PrkoUMPY9w5EHsN3aj65ExWb4Kqu4T4NEhFDh3u/2Ubx5PZpRnWWOVd2FLvC5WMMWRwGgEmjv9IO5pnz+aZcY0r/l5veNL9PpztefSuuZdkfoeY+r7cAs5ngDsOz2LcCO444Uqv/Rtbg9ZHkchRaxf4wMMreb40oQur6j3LeMHbF8HujD85UG39Niettz3YBzh8PNVzSM9rbiSryXh6LS4YzKs3lQ/EDvxHLePL0VrGcQ73PwtMNS9dFfcieEa90WHL5rWODdu4DKKZjbYl+DnfNaE91r/G6Zn/zTgiL5H8aNhHtfdEhiRQPUnsBbvBIcX0Dg7w44n+QL3DUy16v7UbkSbT4EzhcOyDbcwGdhTYKRCFj8GfNEtJECUZXMInwyOJlT1z5viyyUf5DQLCY+vl6wfjue403Ez+Cl6yfpQLQ0brgDwG9aUtfDi2J1BNmFVkUBRBZrm+OFuHn6kIOt2H0Sa3oJNrS/rhpYXv2GLRZub+2dhaFne42O8b4B5id/lcrga062qj65Z0mdhu92DdPCrcNy+5P2FXfcdBx3vLCxGcZd+iuvcPD2erS7v78D9ZunBfa11P+TjtVP4HthzyRkccOzkykaG+vcyblmX5s6F66eWfpKdzOToK4ddD7PD+9qayuuHgTjg6GWyLepZFVea2aWMvfTfjRsMdkTPY/g/1MAHBxy/SoYC1Z/AGkQ4MXZ4YVqKcUw3HQm+hyn2f2NaWgstT+AG3vl71lKUB9CKX5Si4de0eZe38E1l+2vu040gsH/4r+S1AZeyDy+wFr8YfogB3F38hquwRb6xwjicyJENsBZejJ/UJtgJM7258GCKIIGRCTR15I+w1ENSvXFkS4x9Lu5sXNWbrwtf9R97kLEuOcvHJbmG3bj4Dqwxy23puOTkBZNsuCMEYrZVVrF62+tvA+w0ACv5ig/nGFlZH4b3NXf6+iObvTzm6m3J/Y472DOW7I0D3M7toz1T6n635P21cn1RDo/A7YLI4+V72zT+r4ZG7iSsYTvAwmsNol8McxIMnNg72eKdwiB6JyMHXNcWJr0419yW/OXav+fNDu6ZwgR6yZNXkcercCURqP4EVoqwcxHnj6shRR90pEzMTXUKHkOCcKLlmFFHFivB7jDj+5aRzZ7ZXOMQzj+QWfiKDexYBff7uiXv/w/xIhwfL0E/8nzFmYMtTb/OEgt/M3uQ6/KNscIhxeGYgNWixVMgCQwn4J40dfnhMPsm/2itMdxsEe9/EAn+jelWkqOUxjdiVXP/JgBDvMv9Xmf79W1qD8QLWUGRzNLeQfyWPZ7JmrIWXsz3MmDLwgMVMcJG1psYfsW/BbcMtWqYmyT2qd5WY4Jv6J7a+y8cZZngFq5LJvJWMvzRPGzlvZvZNMc3dCSf4qtMFn/H80jT43ruqr9jNGTVMO+Crex/Ocd+HEue9a66Fvtw/2R0gq9BvK0igYIFyvuVpdDhPexNqMNuhYZZYvmNUeE/ebrEWMrjqpkjj+/B8e8id+g2GGJ9CllY1xN8prAAVbv0RCzCYSj1ZYalSDCX3biPtZjl59xGf17MBmuirXa7h653RxrreNTzr0ykYAojgeUKzPNVGrvTowE/i9tuy3LniXunw/3ansl2XdywI4+WpviyAxNHvsRK53QO6rJwPqiVzpnxDCUNP936e1uTD/I9V5wj0BxNqaW7r8ZttKTjGmXjCybbvQb7Pheb5277c1u/k9druvROsVs9satiIrhhnZAkihkzZixPsQmADyL+JW+JHdzbVnc19rGQxInfQplHnN9uz3CbqufrzdbzN7RnEPb3yrzP6l7lCCSV09Ux9PRZTOAf6XAS5jEsvMwid6PVyiPhsUzXKvyOqTYHhnkcRbFe5BexvS9jsr3INktb3Ou5jVppO1G2rTdwPZXHrxwt/kXCYyg1wJp9MfSxkfvANwCcqsQW6EM4L0cwLjzyAPYtPIgijEKgdma92nPNXf7G5kH/u8FOLdbAmTiaDU+vLlZ7S7ezyt2+mrsfv/T9hdw2s3v7WnOnFBKjmpb1fD4cVcxVHWNUdnB/fmDTGJGKGaOnFVdwB7u1r9Xindy+mAPIoC1P88/yfVe8Xx11n5QMDk7LoKuFh/yfj4f5NwoPtFQExyA/bLi4ZxF0onIlrZbaOHQzlkB1J7BySAi1OmvhJY9PQ5csBS5n8DifCDLQCovj99wyHl/hPMV6sBvbwNBQrOYqrh3nmrrJ68qk391cV4u/cpB1hxyz2FbUT0Jf7bKuYQDzqRDr/HelP0qQg1GpLoGme/vf1LIl9nXzfzPLULyvaDl6Etg1ve31N5dKtH9cGnen0vB83QDeXqrxlGO7fdPqb4AjfJ0wSvdS5D4Kd4sSrFhBzPIItVjtVUI7A7k/uSPac98M63uuLhzlVHajb34G4Zc0d4neMcNczyW/xHQrydevo49HASVQhgJJGfYpXpcaEOfcV8BMGJ6I1zFFWkagzW7kfcX4hY4XkcOPUcgJFdnRiGUPxhrPqrJ8gfHYAK9b/kNFvrfN7uYb/mvY6kLWLEs/g9/Ot1adnKpkIbCthZPyh18lTAsO71in4BgKIIGXBBo6fEpzpx+EurqLU/Mf8jWnuO/TDDN75uP0l7pT9EnLPb4OLDkgZsPufvaL0+zZmDGrIVYuZ5/je9s4R9u4HU6T4m6rbFAlrkDfdHsogUX7gJfJsImpp1mcX6rwgSf4VuFBXhvBgBcBu6Bvkt0EXSQggcwEkswiryBw0R5KsVektr6HHjwdKZbCDCfg+CYfKnyHkkGGLeHoK8etwz5e7AdSbAVHY7GbraD21kaK8vgaYUDL4Xq+4f93uJphfZrbxAUZxlfoIOB4hJO/sRZenvBinJeo8H4qQtkKNMz1SU3dfk5ifpHDv82ObsVa9PdoPpg/DttaD9suSUnH4RjAY/5NvN/6F/2gJIMp80YXLMILTO7FSlaOa+6GzudZ5ut8JN1zS+dzvgHWqi1DX1OGxzxH8pCVA929zQjnVhu6rf9eK6BbEoglUPQ3R7E6PqI4jg8izuVRvqGr6hfzOEwFRmnDnxlhAWs2xfACcrgZ5XQuMxtKXvFDm2yGXAVRw1eAw45ceQxlss1jR/7OGt7gcZJJuR/hROOZhFbQVwQW4n4YE5Kv3FHAlRfw5gKW1qI1KjDVfVxTl3+Z9R9J3q+B+0HcJt/JWpKjci2xD/RNq/9HyVaHh6+L+9vYfh1rlGKw03qt6ckowaotyHTrz1nyRw4rig8Trycxlkp2AkWJbJaEHzqp6iMWBxrSs7PATGAHYCPrzSK2YkpAAq8KJK9ercprrQWPynEnBqGvDxYMOYIA4WR/ObwD2V1uQBMuyy68ImcgEM4PVl6Hn8/HdzjOLtZsSoq9swmsqK8R2NYG4IjzdVBD/PNovKazulEtAs2dvn5jZ/6kpq604/5ufwTmpwO+I8cXznNVz2lJiuf95J5J+H1JGn+p0abu9Au8GvNk4P81w21gooZxAej/pQUWTsYsJi5PXPr+Md5ee/VnfOIYl9ViZSKQT/BP/m2MktQskyEt0w2HxT/6yvHnha121zKN6Q4JSCC6QLUnsAofn+FvSPFgdHkFXL7AZAs/ZZzFpxfhyK679cnI8tl17ygEth36ek04+e2iUSw10lkfw1SLdv6JkTZas/M5/sc36oV/QJFHlol3lM2liB1xTxtWm+erVFpd5UFfbULXorbGTt+ppdP3b+72y5msuo/VQ3XzR83s66RsY12L218zp6Uszj7cYrnkIpjlS9YRdwOSkMgLR93G6IYD/v2FU+y/MYJVbQyzQc8jfG09ytdGe5+Gvq5Z4RvLos0wB44XK3wYw3a/qWNwTz4Y+2v/+b5W251xVSQggSIIFJ7gKUInS9qE4z5sac+VtA+11niKLM6jcDdaLdanjJHWCN+wW6RQClNcgTYLJ/98dLSNrnT+FNuudB7NEE+gDg/AMA+FXgzrFRpCy79WwGAH9g3685VW+/v82UHUd5j5jan55e6+P0cW86gihotaupDY4b0l/mr9+LmYyoTThtFGZnjYkuShaPGqOFB9Hje42VVxhuhb42rPxYmlKCUR4IsX/y56SdouRqNJcijHF/mDA7+aXa9eMw5ORQLlJKAEVjmtDfVlsUAe/+KnPw8svvGa/8d6I/yqW/jjMtbls1luJuo4Tj0Hs9EtRtTwVcKY7dyOdlT1YfsxsaLEyiN8OBHjBzpiHTUSZVgKIoERCTjmMFF4RO8Uu3VE82c4Uz6P93Gn8g2xmnC3P/XU4c+x4lVznPALjZamXRxjjK9UNzVvga2hiwTKUKDlfl+X3ZoI56sNr0QqA6knJ8IsjRRPYSQggdcKLHNLO8/LkOiOkgusioVIEO8NtaMfDbi45ONaXgfi/hFdXgu6LzuBGyOHfixyPIVbmUD48tTK5tHjEqhOgXnm6RE9rfaHkg/vfm+EYW3uVDbG6IsDL3BfshubWl+MeLUQI0HyZ/rfHWGsa6QJDowQRyEkEF0g7U/3g+F1UQMbflOfQ5mf9D7qiBVMAiUXUAJrZauAH0/C3VY2mx6PKLAI4bvp20eLaExfLcJR0eLFChROIp2gdOcciTWO2o1zVuSh746uoW0/cliFG1YgxWowxDh6KhzJNWwzekACZSVgeIpvaz7X0173u3LoV3M/tmA/3soapZhZh6fJNVGC1UiQhW24F/CHIwx3XALETRBE6FTBIRSgKgS4M7cVB7Iqa7ySpr9YMAnPxAuoSBKQwMoE+HdmZbPU+OMhU38fJta4QnGHP4id+UngRhEbDb/s9H7c5HURY8YJxY+K4wRSlKIKzPFpbG8H1pglx2SKdrpiiq4sVg4b8bWm8PMTGXT03Mqs9XiZCNjzSZ3t3NdmN6GIlxU15Wl+Etyjfe3MUn+hrxUxT0OAqr9Y+PpT8hD/BhX8IzoOX6Ohw6dUvZkGWFEC4+f62g5bnX/zmceK03Umy2eZ5e7H0PMnTkxFkYAEVi6gBNbKjBxvwwA2XtlsejyqwIVRoy0OtiXWx2mLr+p/CRQokMf5jBA/se3YGTNcr8vELUoxhPNhbFBwWyluLjjGigPoUQkULmB2R10LJi3czGJ8Vazw/rwUwZNcPQz1L90saMI90xeZQPkDzLygQDW4cN04XAbHQwUP3dFuCcIvvRUcSgEkEEsgP5h/BwzhCKxYIZE6ruqZgjuiBVQgCUhgRALVvqPUPSKFFc/0Rj68PqtKMQRmefgZ7cYMmmqEYxI6fUIGsRUyO4F+vuF4ofDwESN0evilwPCawH2liHEXhzJ8FNctvqr/MxVYnCgMO81WcDsGnSy6YEQFyFBgIWCnNebwzvkb2jMoo0tTl2/AXNP7YnXJYc/+88XNAAAQAElEQVTW55MfxYpXS3Hmb2ZdHO8C1sKKYbwZ1issiJaWQFwBvja0cj8g5rc78tzOe2GWj9tTRZOABFYmUO0JrN+vDGBEjztWh3tuRPNW60zFGJd7gjr8CdlddkWKL2YXfkyR+7mUs6osT8DxHByzlvdQSe5bfLLho9h2ll+P2AJzPeabLHZXZRmBvbAht613LHP/WO54Gv8ay2JaRgIZCwwy/n2W2CG98/GN5za38vowgJ0zx3p8Hu7Oq5GK58Ov6kUKVnthHH0wrpECR843NfWY6eEDggIjVdjiV3tu9Tk+sXGev66l07ds7PIdR1Kb5vibW+b5Fo2zfeNV7vbVuM9R7ftnxV2x7rnEkrrIjd7tjtsjx1Q4CZSXQJn2prpfIBP8LIq74bOYhzWixFKQ4QU6sBsfzOLoK4YdKo18Y7YdOnyToVvl8V/4Ksei8uhKGfbC8CTfSpdPcmAA4QjBLTKWWht5fCXjNhS+Dptz2/pgFIgdbX6UOAoigXgCfeZ+ZZLmv9gz2S5H+NGQeLGjReJHg2GnMvxwS5SY3KGcGyVQjQZhsvOvfF0Mic+CBLhzsfmECXyNLShKBSw863/jmzoHdmic4x9r7Bzcv3lrfK43TY+1AT8vTXANc4H/GElF6jemA/5Lq8N5/Q04rqEz/VyIF2pTt394/ByfWpMJwUibQFM31nVPJ0UKNxSGr6939g3gtqEbK/hPD0lAAvEFkvghyyhiPx6M1Jt3YhHWihRLYYYTMBzPh7LdJg27I8Gb2U55FMdv2ZHCD9lnkCot8/EE7iuLsS3++un7+OZ+asb9aWAbb8Jcn5RxO7Ub/jFv5uDfBUPYeebVgop+gbAgPi0cXcDAJIR/tWdicvDC9vosj2pGQZermb7KY8OCYiy1sJldvNRdujkKgXwdfsS/PwOjWGS5s7r7NoOGbZb74OjuLLu5mzt9/eYu/1zzHD+5qX6N04HcBUxmfN8suZzjvgiwr8LwAfio/oY3cZkpXOb9gB+RJPY9Y7xQmdy6NE39nKYJ6Wls95SmLj9yQpe3QZcRCzCx3Qqz7Ue8wMpndDf0YbqFb1GsfG7NIQEJRBXINlkQtatjCJZHyj/EcXYucjhlDD3QIiMV6PLwFYJiHBnVyK3is2VzFFYj7kD4IzhSp1qbz5BiJyv40+AobIbtkMeHosRaeZB2DGDvlc+mOcYk8CLCz2gfiBgXw+UxwiiGBAoWcDwE80PyiR3c25Y7B+tbD1Bw1OwC7IgGII1zFORLvWxx/OWlq5qMQWDRTMyF8S/dGJZdapE14Gn1fHOB6YqmOb53U2d6NX1+6PCTPfVjAfsib2/FfQ1uy8jmYljdgZ0BO4Ltsk2fwTdFlzV1+y9YT28IH3axf9BlWAED1uR6inlqhmfMk1nDNqgHJCCBTAWqO4G1FhbwBeuHkQTfizke/1fHInWuCsJ8HAnWLNI43gFH+PWxIjW3gmY2tT6k/LeCWWr4oUVcT/8ui/GHo68cb+fryeuK1J8JfD5sjft8nSK1V1vNOL7BAY/sqFrOuMIyACWwVgikB4sg8KybHZ+67dJrySX9k6widqwmPodGmO0R0+fpNn2dtyDPfaKdkNqQgnmDgnpT8oXD+ayauvzKpm78F6mfxxHtzSQSk0kIfz9KNb7xgO8A971YD07y/ofQv8auwU9Cl+ULWD6BI7f8B8d0732eg35wZ0x0WkgChQtUdwIrfProuBZxLjnkcV+cUIryGoF7fRr/sExijfnH5TVNvOaGoY7JgZ/gTg9HYbzmoZLcMFT1LyYVYPoiP58/q4Dl4y2aYjKD8ZNP/l+8sicGsGfxmquhlhIcEG20jZgfLZYCSWB0Av0GP7V3nG3QNxmnLmq3bky2ijmnoidMBwDcGR/doDV3xQiMQ/iaaMV0d4mO3u+rNnb5xb15f5zJoo+xbslHy/EDpSb2a1LonyG5rLErfaGxK3/xhg97uB+6UMDdPMnleC1isfm9k/BoxIAKJQEJjEIgGcW8lTlrDn3s+IusMcpqmO3vjRFoFDGqe1b+YUEdPsNBvpG1mGVTNGLzYjY4bFsNOGnYx2r5AUcvNrUnSk4wy8chwUfZjxjnS2KYEZbwaWGKjRCO/hrhIpptJQJzvIGejyDYrmTWET58IQbxPHSRQHEE+rjtPmGGjjRnu/e2Jg09rbmv8XWyDxbtyJnijCS0MiH8F7EaHokYrWZDOZDGGLzlMLVlKsKRSjHCFSVGY4dv0tTtRzf1+7NMDh8IQzMbrpR9pXoDJhrswGd6/MWmbj+94V6fBK/BX4PkSnulPIBVLE1f/8rtCFf4Guww8wihFEICwwno/hUIVMqL8gqGsJKH+tANx/dXMtdIH064I3sBd4BaR7qA5luJwDxsiBSboBQXw1/4h72uFE2/ps3wNUIg1g8OvCZ0hd/4SVn0vwH8dBOl+VVAw6EI594qC4gq6MQgPg0gzqfoxlcu4BroK0skVclMwBDO43mbAX8x2Nk+aG/qmZJMXTTJ/pBZm0UK3D8fUc+RxN3J/xSp69XezBMxBuipbYk6rB0jVtYxGmf3btwwe2AXJH4P3xeezvaMtZJLHcdxdFLnsxs78/s3z/NtK3kwY+v74qUaF2E1wN6EeJe8O56OF06RJCCB0QpUfwJrS3sOOcwkTA9rjLIBg3wTM30VTlUKFRjAu5gU3K3QMGNcflV0Yv8xLht7saNiB6z4eHmcXBZjyOPUEvYjfA1gByz+1bwSdqMKmu7y8KuDx3MkcZLWjtuRw5OMpyKBWAJ5BnqEH+v/0WGXudn3uBN6EnK2V09rsktPq32tb7o9xHmqopjl3xpzIO52a8x4NRvL7IGhsRf4nxumcIOOmqQssEvLLs6NpqFj4N1W13Bmksv9yarvK631liQX+yCubuzyT4ZE3bII1X1Prh7ha8rtEUfZY57+PWI8hZKABEYpUP0JrACSQ/hU7q/haoTKTzXwVkxA1BOPRuhX5YWY6+GTue3hCDvppem/4Zt4wltK0/gSrYaTQTq0M/wyieNnmG4LXr5ZsmmHv5ttf4C1dMXxJTyPtaDL2AW6fWu+znyLAdZnjVV+gUWYEyuY4lSfwMpGxJ3lFww2A/Ajh6r7EbD0ME/sy31TcFDfFDuotzV3Vu8ke3hlsSrycbMdY/bbzd/W1OVnqhZmYI4oR8UbMDGHwQaU6WXV+33Vlq78pxPLnc+/Dx9mN9ll/l+VxTc194ss13BWc7e/l683VTzW165A78c43rM6a6zSO5hLlMCKpak4EhiDQG0ksDbDXP5x+i8M/DBoDEpLL2JYj/FOQJeX6sihpXtUmbcHMZkd35O1dMWxBp7HSSj1ZRIG2IXjWVUWC5yweFLy/79Z8h4Aa/O16z1l0I9idyFOex2+BlKErw5uDVASUS738G/AbZhu/VGiKUhNCjjQwG3zd0NJqpCoasud2zul7ppFk20ezAarHcVgURNYBuwO+BGqBRtU/Wkywrmu+vrTb6eWnAwbei/KzafKn3GGcD6vD7n7d5u78gesNcvDkUlVPuhMhtffrw+vMoFVUAmMVKA2EliLT7R3Kd8o/nOkMCOYbzPuwJyJe32bEcyrWZYWCCdTBt7ANw4xPxVZupWV3zbUsw9vxz0e57w4K29x+XOYpUjwD/blf8ufYSz3VugyhktQh9KfE6zbD6HgFqylL4aTS9+JCuzBTK/n8+pD7Hn4oYh4R3oa/s5t9N+Mq5KdwG0GP7EMakhi35zRMBs98V9nFLsSwm5aCZ1UH6tLYPxcX9sS/5XBPsmRrcdaS8U42EnuyekLx/lPJj7spX0Pzs5UYHF9eFWBa01driqB2khghVXWbg8gwRO86qwjKyufqx05nIC7fbWVz6o5lhIIX4k6c6n7SnPTsQ3G4dulaXyJVqcgfB2pNCcLX6IbJb+awyWYbItK3o8Ue8EQPrEseVfYgTXQ4VM4VRmNwES8BY5LuMgE1jjFcS8D/RzlsI2yI9Vb/LaeKcmJZVBnwP0XDryQkfVGzV1+bUaxyz1srtw7qP5Vn0A+7w9yVOHD57L9eiP7l20xrOaO9w8s9Ko5p162YIpeUwIabNkL1E4CK6yKARzAySzWmGUPJj9OwMPeFDNo1cdahHAumrqyGadjcyYISnu0jVkeKcLO8cyycSluR5zNfQN96OK0tKXTj2MHwlfOOCmTYri1THpSGd2Y42/m8+lv7KyxxioDMNyGVvtHrICKM4yAJQ6zsqi9bbnvJrBfMBmaydf6HL5bU9heh6HQ3RKoVAG3upivvwUxNN3Ts1FTZ/osgzSyqgQBQ0tTV9rXMNcnMVGfhLtiVMWQgAQkkKVAbb1YLT4p9G8JGudcWAz0UjkUC3EwOj3ep/wvBa7aSR0uLrOx7cD+fBp3eQunpSvtdjt3ki5gB55hra3imM0B34jFz1NeLVHp8E1g2J6tl9vzeSJm+3T2S2VlArN9F+Rxy8pmG8Pj9zMp9vUxLKdFKlwgn8PpfF2Ym9EwxvF1/0cN93InMqMGFLaiBKqmsw6swsRIyY+0a+nwLTCu8S98Dpf8GxMWjuY0u48r+Vb6/NFhfxiucp4b2Oc7OH2Y0x5OsygNSYobGruxA27yuiwaUEwJSEACMQVqK4EV5NosHFlxS7gauZ4Mx8GY4xOhy4oFun0zzhDr6JaUseKUBO9BI8Jh5XHijTVKHa7non9ijZ1oZcgyLYanUIez0YosnpsjH7R7Doa94XjXyBda4Zw9jPX4CucY6YPGnuVw2khnr9n5OnxfJLgug/FzHwMXY6rFWZ8ZdFAhXxaIP100yebC7EJGzuQoLLhvZLn0CE7DL2axGRUJVIXAmpjLv+4lHErDPJ/iCc5iFyaxFrcY3wEA/+NrxzWs54TKPyTfMsPh4xL7WN8Ue29fq+0+XO3t+98eSTqwP5B+hcudBvOhGGZ2Od8S3MPB9LEWXtxflxgualkX70SVJbGYkqsvHEgRJCCBchKovQRW0B/EkWESudbBcDQGcQTuK/EJwSMPLHq4dOiNRJywhu8zUJxzkzim8q3G3njQS/sJ3WR7CjmEn3Wex7HVQhmk+9+Qxx9gFi8hORa5DmwFw15cNNZOZFiHpzBeF2thhe9e4ZiOLm8rLNAIlq7EWZy7KJ3+Ga6/c9j9Bta4xfAbtFrYCYobV9EqRqB3ip0H2C+RzaWBO6W7N3Xl98gmvKJKoAQCnragESXb11j1Tl81GUz3d/ibOfqi9cOA52F+urkdjKGKQ/n6cdhQbbUzeybbb19Y/GujKVZ02WrdhQvbGu7uba37OZNd3+qdkhuK0bMqDk0THGJgfPjBMLsGjoKS6+4+LU38jMb18FZ2qWhWbCu74m45Q7mcyzS7cSqyBGpMoDpeoEa70qbbbTB8frSLjWD+VRj3UPTjWMzxDUcwf+3NMtPDJyG7Rhm44U7k8T04wsn5o4RkkI+hBwWvO8YprEy2W5jE+hK3p+cLC1QBSzu62cvjIM39fgAAEABJREFU0GaPcVq6MscbUIcd2IE3ssYofdw2f8Vt9AoGu5E1RlmXQb7MqrKkwCwfhy4cSO+QLFxryYciXe9n7CMixVKYChbwARzD7md1dOzGsOSQ5jle+iOBOUgVCRQqYIZGvpexQuOMbXm3/ma8A7BPAxjPWozSycTVIanZHr3PPn9KT6td0NtmV/e22qNRG1/bFvRNtr8y/mW9rbnzPYcjPMnvhjTdi5913VRAW1smhgv43nNaATHKZ9ETYWme22D59Eg9kYAEIgiUawIrwtBWEiLFNXyBDl/VWsmMo354VS5xIPL4Dmb563hdZUmB8TiF7vVL3lXA9R+jB/dgHN5fQIylF12D/TsbN3vT0g8U/fZ/cRMcpxS93eI2+AIGsRfarPAjlArtd4pNkeJEmluhoV5a/kUYzsR0W8CY/+V9T7MWWhoYazMmyBsKDVQ1y4dzD9bhcI7ndBjW4TR+MezMbfT++IEVsdIE+qbbQ55YrK8YL2/4b/I03QGLP+xZ3uO6TwIVI+COFryIXCk63NyJNzj8e2x7XdZsi+NZwI+wvL2z15JL+qbY3/HmNV7MttFXo/dtbg/1Tan/S29b7td1CT6SM5tqsPANhf5X5xrZNZq1831G2JcZ2QLlPNcJ8MTRB10qRUD9lMCIBGo3gdVuzyDFGVTK4oUtJD8+gjr8hUms7P9wchAVUdyN/dyVfxgLfzPjWMhYT2FbG8DmNoc7rg/zdqzyLqyFYn1aN3yf97E82ixso+GE9z78jBX7SB4J3oEtrAOlvjg/vwQ+wW7E+/poiq9z/c1nTKDdLuH0b6wxyg4YhI7CCpLhnIOO83n1NNYszj8YnnfHoBm1+sugZFVZWqBhHO42s+uXvj/SbX7AY+c1roLtI8VTGAmUTsCQWxMluNz1RItb+km2nM2HGgz8Uhnke9pf9LYla/S25s7uCedInGyLXnqs+BOzdMFke2rBFOvoabUDesfZKmb4CzsywFp7hXsdhsHSrY/aE9eIJVAUgdpNYAXedvsb//B8hlez+prWZNThPnR7O9xr25rI6MKunKzBGqNchT786pVAfWjn9X7WOCWPe1EuJ7JswGHcTq9lraY3IM8y6fhxTLFwZBJKfunERvT9WrR+GB7BVLvsNfEMDwDcavlfgWUi7Tbj9tlYYJzKXTwkw8O5wPKYTYuwk5LFWELy6t9I8XtsZL1ZNKCYlSnwwsb2HD+OOZm9/x9rJsVSnDKhy0uy75/JgColqPpZFQJNjetMw9D5oZDVZZB/e+bmBm1rJq/2yaqRguNuan09U5JdGnpsbb7HCT+SE/OUGwV3L/sA5vm6uiwOVMi+62pBAhIYVkBJlX78li/qF1IoHNHDSfTSxB2gO5gOeS/u9nhHd0TvZlECfpatrM9aaFnANw73YSt7dZ0NICSvYp5cdy2sjz0L7WiU5fkGBHU4hLF+w3G/wGmll3lI8Q0M4NUEZOlHFL5mEK8Xjk8tEyzFqbwvJLE4Kbi8FRviTQVHqcQA4airTuwCx23s/gas2RTHXLZxIqbarGwaqM6otTKq3kW4He6ncLwZfbrv2w9auh/jq0hAAqMRGPrw0X86mkVGNa/jOc5/fZra+xZMs3t5vezL89vY872D9g5zC+f//Q/fS9bOhzLV9NFv2W9p6qAEiiOgBFZIguRxFblv5Qt6VidmbWQC4gcYh2Mw16ezrdorHT6Fg16PtfBimAXHr18TaFsbgONE3vcYa6xyHsrlZPyT7RFuP0dyYOGcBk9xWqnlv0j4PJiAyzHd+stiELP9ozCEowNjdec6NODmZYKFry1j6P50mcdevWOk17bAILbkDnRtvYbP5utnHkdzG/oRoSawZlUeZOBj0W5/4lRFAssK8PUr8cEb+cDNrNkUt3Naun3nbIIrqgSqU6B5I+zPkW3GmkV50hI/Hzk7eFE5nLtzNCPka1ZPm/028YEDADsXwOOsKhKQgAQqTqC2dn6GWz3TLXwN5QQmQGKeRwlLXcJX5w7hTuf56PDtEb4Cs9QMVX4znGh9ywhjzHM9zeOOZfjluteGy+MxOC577Z0F3HJMRIrDC4gQd9HN7SHk8R0YjmPguL9ow4AZF2f8/3DdHYZ+XIdy+UrW/d6IHI5n3+IURzgfxlnYBMs/KqMepwGI83lggvejA5szXvWX8BXsLt8RCc7nYI/kdrQ2p1mVZ/m8Px5tuBa6SGAFAgvbG+4xszNhNncFsxX0ELPdp29yE1+nCopSMwv3caThKFdVoCwMzPDs04NPhb//KMqF76097ydk1NazfO9+Si6fnNM7ybLcX8io+4vDLmxruLu3HydZYgfxnqdYVSQgAQlUlMCyCayK6n7EzrbaP7lTtBcj8v0i/8+mNDHs22G4HN34BGZ6PW9Xf7nLWzjITVknsBZWbChJdfZyg4RfezNcx8fuYI1Rwi++7YFOf2eMYFFiTLXHMQ5XMtYHub1WyqdnKfv6eyT4FH6Of4CfArL/5VEW4VQ4No/WGcOZWIg7Ybb8N+yb2xw45kVpL8U7UI/svkKHMrmE18lOHEG3cPTh29mrRtbsSopv40n8guswqyNys+u7IhddoKceNyD1O9lwNtuL+1b/2yC9gPGrrxjinn/U8ILlB/dULR8DfvZwBWav1YsiXZq60/Ch41oZNOcwP7V3MLl8/uKjqTNooogh+X65Z7L9BrD38W/rg9Bl5ALGWblh8//qKhqNBCpIQAmsJVdWu93OmxuxZl1a+QfjfLTg1qwbKov4jdgFCUJysPDuOHrQhrCzsPxYrfgvHL9FrIthExj2RDldwjmx2mwmBrENDOV/lEiKT6MPH8cU68AMS1EulzkeElc7sjsNrIUX7jwxyC3Y1lZ8nrIcwtGInLXAYqhHil3wmDcXGKl8Fw9HyI1HeHN9Ijs5hTXrcgaex7nYyfqgiwRGIsDX44YGO5Cz3s+aRcm52+5Nc/2jWQQvZUxPEd5zxezCmj1Tx92hWj4Gva32KMIvKsdcyyuMZXvz4XGsUQtzFjf01ifng4mf4QJX4v1cP7fBbAeOL/ZzsRI5RtrncePm9LeOdGbNJwEJxBdQAmtp0zZ7DIbwi3ZZ78BMYDvboNNfwBx/PWucneilx1Pq23znzZ3stZlUWqfgrhgjOc6GrSAJYha+wvUTOP5ScHshgCPHWPuhyw8IN8uqbmFPotU+BMN27Nfj7Ocgp+VSwlfo/oF+rI6p9iNsY3E/aS90lFd7DoM4hmG2ZY1RnP5noM34ieZKwk2x+zhH8OGkwOL4GnoQvp5cYKByWtwNIXHV6QehD0+zZ+vBkHWSLrxuXIqf4avY3op2tADHplIFAs9vas/D7escSsqaRVkXqe+7evgBgyyilyqm+d+XaLrwq45c4UEUoVIFmjp9B/a98PeaDLJUebKnNdkFTFYvdX9V3OxlktH77INmFt43p1UxqCUGYQkGHZi/xF2FXXU013nurYUF0dISkEAhAkpgLU/vp+iG4X186DHWrMtE5HEL62WY7RsjfF0m6xaLGb8TG9NyjyhNOgbRbhevNNZUC1/TCke39ax03pHNsCpTZ9syibXmyGYv8lytFs4ttQWdw/mVOth61slXNrHcwvcIeJaP3MG+fAqP453Y0sKv9fCuMitb4F3sY8w3IN0c4Wg+wfwi549TUoSv58aJVeoos3w8OvB6LMKv2JULYWjhNNviWMAGLkPK5NUMq+A37xyFSskEetvsapj9K7MOON7fm6YzUE1HXFp6c2ZeClxzAmYIR0JuHHngz6R1FvO9QuTuxQnXu5U9goGBoxntFtaUtWpK3jDfgNkRB9SYur0pYjyFkoAERimgBNbywMJOzBT8lTs0X4ZhHrK/hMOdP44cfsTdtf3R4dVzREWC8JXM3aMQGq4fcRzHWZz3LtY4xfA5bgvvw9DPM8cJGTVKuz2DNjueO/7vZj8vgON6TnujtrHiYE+zvZ+znoAG7IBW+zl2snI6IuzV3s/xtZAgfC207dU7AYz9RnC+lv5/HHEIw58474q/asgZRlQc545ovnKeyd0wy6cih6Ng+D27uhtrMcqzbO/7rCdhmj1bjAbVRvUK9D6KdwIWvvKKDC4GS97fsgA7IDxfMmig2CFz/XWzorcZjt6MHlQBy10gHJ3o7quyn1H3azz1CxYtQDE+zGbXS1t6po27MzE70czCB6Gl7UzE1scN4HnAbkO8Sz2NYidK4/VOkSRQAwJRX+irysssj3b8lomAI7lzU4wkFtjWW9lWOOrgZCax4pwnp4grZZmm5ngDUoSvty3z0BjvOHjEy4WdUcPlnD8cXcFJwSVBik9iQ6xbcKQsA4RP0VrtKIS+5jGD29PZAO5iddbYJRzp9ScYTuW2+zVMwcfRaudj0zI+f1DY8XNsx/5+NCLGA/T+8ajiDSAkr64Y1TLDzezYCp2+/nAPl/394YiSbhzP5NU5MJzA/mb5C4MM/1IxPMn2zsEAzuR2+//s3QlgHFX9B/DvbzZpk7Tlkhu5m+ymlEsOBUEF5e+BiCcqCnIKInKqoIAW5D4ERAFFBEVFUBRQ8ULxQJFLrtImbbnv+2ibpEl2fv/vSzkKNG2Sfbs7u/vdvtfZY+b33vvM7Gbnt7Ozj7x0ryYSGLsAk/aewwkMUI7XWzBxNTl1fLH1HryZbdR8SXJ89kUeResgNoEuDSfQVyy+i6/nG0Qe+K25JPk1Nrb5keNmNtz8DvsL388cBceDme3kKDv24pN4kS/Id41yMc0uAQlkWEAJrCWtnJDEyuNqFLE/Z3uStRIlnMNhPyT4NndKz0X4WmElWi1HGynCeb5GnnRach/uGvVO5qO4mH+Ew1e7EOmyHQaxD3ciwjqKFLJMYUICb4qdijYchSYcgBSfY0vh13n+wekA69iKI3wl8GdceG/G3JNvGA/BHTgGnXYBwvOFD2S6dGM19juc+2qZKP009MJwLqbY6I4kCCeCTfH7KH0IQRKcGiY1VUMycbYfgLm4EI5jYXhPBfv/Atv8GhbgHGxoD1WwXTVV5wKthssdfkH5huk7ezH9LKZ7OHK7fM3UauQ03aVWu65+j10gNQuJy3XGHuGNS7r7lfMfRfcbH6nve3oKdhXMynUkaeXx+MGCoTg3csOTWmf7myPHVDgJSGCEAkpgLQ3KzDHFrmVC6b2cdQFrecrrozom86592e7VmOnfrMmTvDsmcQxxDrNNcRhjja7wjxZy+OzoFlrq3AfhVoxf6lxZmWFN68Vk+w+34UswyERLgr1g2IZJnK1oszW7uQtvn8Hpb1mv5079bZz+j/VfrL9k/Qbve+/Q/Cm24vX3cPRfRh4XMeYvkLcuVPQXhtijsRZ3g+P/uPi2rHFKinkYwNiOpHLcB+BPrKWXFDuXHqSCEWb4OzALV6CI4+D4ZAVbXthUOMdhDj9HVs/RtrCX+r8GBZ5bDy8iTS5l18v2tSODHdrWhBXZRk2XXAtfAYCoO8p8ma9kIrym/debqFsAABAASURBVOup84mjmeOJ9+Gi41bz9G9o2F+kdXKqLEFgLSsWw/vJJcyihyQwAgHNMiYBJbBGytZht3OHP5zP6emRLhJhvibG2AiGr6GIGZjhtfbG7Lvsf5zSjLCzP/pYHTYTKX40+gWHWcKwPCYiJHmGmSHDd0+1foRfwMvbTZhi/0W73YA78WuMw9EYxK7s+QfQhHdxO98OwI5YgD15/VQU8BeE+RfW/2FdexwhscuZaqr8EgkM8bbJMPhmbI1wNFW4Pto6BfeyP78b7WLDzD+eSe5PDPNYdu7u9hXR7RdzTfwOjpB0exM7Z6yVKuG8bGugA/9Guy2oVKNqp4EE+NrYV8D1MDurjKNeyc1vLmP8ioR+/n70ARaSfYh1MUNbrFiKUxsCbV3zV3dgvZi9dfhNvYWmG2PGVKzyCIwkqluO+25Rj7ZexWGbjaRtzSMBCcQXSOKHrOOI7fYUxmNDjvAPrJXc+RnP9tZDwkTCTP8PpvuqCOeN4Z2ZLe7hk7APROrfKUymPDHmWCkO5rLzWWOVDszwt8UKVtU44eipcM6qkIQp2Fzu1L84VMP1jW0+ry/gjphXtY+xGt8YVzHUBNZY5XZMtjljDmaWwhG2a76xGnOUlxdsRhHHvHwjU9PwVae7fYWhI0kdT3HMn2P/wtGZlfz7M8B256AJnSjYozCrj22akCoZFDAbzBkuBvwX4H+s5Sirt3T50eUIXLGY78ICN4T3UzGbHN8yqy9qMiNm5zIYq+a7lGJcnq/pm8caCJOgL1o4MtCsGCum4lRXwBJ0A+l/IvbC+NrVjMuH9nUihlUoCUhgJAKV3IEYSX+yP8+69jgWYA8Ap7PG2PFkmFEUw1bcCXsML+J8zPZNEXYMR7F4xWbtxgcjtRV28q9DSLCMNeAG6EURByF8gWysMV6/XIIrcIdX5mTTr29bt0cvMN03YQJjx9EvOMwS4Vxgrdh+mEdHfvcCXMOZr2CNUcZhToa2ycd9Al+jNuDr1aHI4V4+/6bFGOSoYzieZdsXsQ/vRSkJx1E3rAUaQ2Dxo5zHD7wMyXXc9p5CuS7mXx43x6eWK3zZ4zKRbIMD/VHbcayQoDm8R4MujSLQtAZH2s4apbhbV5omv44STEEyIdC7Ph52JDNidsZgU9qmDmwcM6ZiSUACIxNQAmtkTq+da2N7kjtD3+Ib06NYwwmA/bUzVOTWbijiL2jCNHT5+3CfL4dsXc6M1J27kOLJkmIZP0Ur4u9MYPwXsS7hq4TjcVCscIpTRoEun8Tn60+jtmA4F/3oKTnmxjaf2+X9rPNLjgWswdeEL0SIU1qI67yFr0nb4wUcjhRXAjiZdVnWxZdy3bswYf0ow0/DAPvSYffyuooEKibQk7cfIPWfs8E+1ujFgGVyRVzY1uWrRw9eoYBJU3MfDOFI1Dgthq8QerJFnGCKUhMCVuRTgVtRpM4y2LMLptjsSOEUJgsCTJazG4PcSlJO4xTDW9Dc/NY4wRRFAhIYjYASWKPRWnTecP6U8Oa0iK/wBfGmRR+q4PU3ccc3/MrfD7CAO4kz/XNw59/eCvZgcU3d66vw7pVYY5Qr0IaZJQfaEPcjwXcB9LGWXhytDLILZvl7OK1qUeNLFQgnrl9zqXONdAbHjUzM/BjhNWCkyyxpvkFcBcPdS5plhI9N5Hwb8zUgfH2XVytc3BMmrvbGqjiBLZ/P16ZjWSfzenWK479s/yvotHNKOoKzOr1Xq3UikOaS8Hfn0TINxxyeTw2783lfk+/nzPCIw0KiOxqRmy/bMsPXjhZQgRpJIOVzqreRBtwoYzUU7+V7gseijTfsB6TpKpjt46PFVCAJSGBEAjX5hmdEIxv5TKXNOcUuQ4ovMsiRrNUqYed8P+4En4xu/AIz/Ai+ma3OTmwQGMDBcLSEqyXWF2j7AMI5mkoMBLOUsf7OMLG+rgUY1mPMT3OnfRJ0yabATN+KHduHdRnWGIX7WriU6/2BGMGGYmxoM7ktxXpTlccsvAuVvNzibZjph/O1JxxpchLHEn4xNNrXOcY0FMdXkOPrcqeFPo0phBaSQAyBBe12T+rpoTFiLS6GAcsafN+2OYj1tf3FNVO2++ZNxjOJF2+J2QBNOi2Hj8WMqVgNImDoM/cYHyg1CFjtDDNpzl0Hs6g/wsQ3hDu29Q9MqR0F9XQRAV2tYQElsGKsvE67FfNwDhwfZ7hqfnKzKtvfBQm+ji7cxMTKMZju4agM3l3BkmJ7GJoitPgXxgiVkwhl6OTNCAms+yNEA9d3jnE+yhrWOycqmRJwN26HO7NPHaxxiuPnTF5djqnWHyfgS1FCXOCpl26NfZIijHXbsQcYxZLh/HvhJNITcQOdj2HdhUvHOvKSocZUnuVSn8Bz+B7a475RZVwVCYxJYEE+9zs+P341poVHttC6nuLTLdN9rZHNnqG5+OFSmuTC+6Y0Vq/csRyQrgNd6l/gFm9OkIv1ARXgmMuE87X1DxdjhLUVY/66eBKePh+515ugOanZr3BHtlA4CVRMQAmsWNSbWw8K+A3DvYP1H6zVLMvwzfJb2IFjkMPjmOnfxB0e89fXGHqYMtM72DbfPA7z+GjudvZ9CutollnavB24mrPE/CWS5eD4PJOFGzGuSpYEZmF3ducA1nGsMcpcbts3Y4rFOlrq1T7lhxKrIfny6n1juWZMHDtWLmvi2j2HGX4ZX1seZBe/wRq2/WX5PDBer15xXIoBbIk8fo2trbd6HVHLEnidAJM0vS/a5/j6UXzdI7Fu8rnnH0euuA2ciftYUSsUh5923WZmf4vanNvbW7sG3h41Zuxgile6wES0MMjKrLFKX3PSdHesYIqTIQEzN8cs9mgua6zSlKa5nZa905ePFVBxJCCBpQsogbV0o5HPYZaiYLfgF9ieO3Nn8M3qC1zYWatVmtmHCazTMB7zmMj6HWb7m9HtK/JNbq4snTKErw+tFyH2g+z3PwH+uUHEi1kRKb7OiHewximGtzHQFuAngZyqZEFgjoc3tFuzK7G+3plye7wCBTubMeOXsF0Ccb6W6PgoEsQ7N1s4v8Md9Jzjb2ei9l50Y5Dxw9FWEwjRzFrNEl5fw/mFvoVO2xUb2j0Ir8PV7JHarphATTUUPuQaHNyGfR5gLUdpsiS5qLVrcCvAmdAqRxPliTmv3WYw8g2s8YqBH+I1bYFprve58VQzF2m5XuS4tYdzksbq2+DcvD0dK5jiZEvAbcGP2KN7WaMVM9+v2AodhRVNVIEksHQB/WFfutHo55jGRFanfZmJkgPg+CsDhJ0sTqpcDDuiiIfYp2vRjY8xmbUpHvcJ0Xp1n7cw9kqMF2Ondiby+BVjxS9T7AEYwiHiMb8Gdh6WxWbxO6uIoxaY7uO4ne+McGTcqBcedoGHMIhLhn00xgMpDuR2WSw5lGEVxlllBDtuS25qhq/GpPe7MIgDMR43YRDXc4F1WbNRHPPZkT9iAO9hYjEcCcabKhLIrkBS7L8PZn8oYw/HwZq+iP+gpYxtlCW0F9MXYeiJGtywVcvH8eaoMRUsUwLpigj7MTW3vWcKsYE605tvewQYSlBG3S/j69cHUINHv0IXCdSoQHjhr9Gu10C3wwmEC3gfd6R/yN5m6Sd5N2Z/LuNO/hV4Dl9Ft++LLi99x3QBwhEvecYurTh3SYGHwI81Sgu0hKXzTDACdy5hjhE89JpZmpmwPIR/wPSceg1LVW6synXx5WgtOwYZ63JsYHG/4sKgrylTbDb7HeeTX8OW+BhWek38kdwI58zr8g/xNWEfGE5mvY71dC66NmuWyp/YmdNQsA8gnASfN1QkkHWB+RtOfMIcxxtQvq8ome86fkWEr09nneM1/cs1JdfAEfUEy4B/wpqKW+rv8muo6+qGz+NfKGOtq1FpMOUUME+vYPw+1mglNTt+hTmIdcR/tH4pkATqVaC6O9v1qrrouMJXgwr4Av+8MrmBn/ChmEf9MFxJZV326xtw/IBRzuRO60lMZH2Wdawvwm9nvNITWIawE/999qm8xXFU1AYcn0Q3DowaU8FGL9CEr3E77Bj9gsMsYXgO/ThpmEfj3p3guEgBP4pxGFnSKZzTqts3xkz/OppwOu3OheMCTrO4E3wffc7CAL6IQjQrhlSRQGUEesbhrhT+U7YWdQeK8V4pSerfnhCe06/ck/0rQ18jdH+APY15ZIQhyX1u4m3z3gRd6lIg1/d8EcU05jkPTaeDqMtN5ZVB9SAJr7+9r9wR58q4Xse34oRqgCgaogRKFFACq0TAES0eklh5C58uHsmdwn25c/i/ES1X2Zl2Zr+OYJOnsF7OJNb5rBthpOePeNTbuFx4k9jEaamlBwW7pdQgS12+0/7MeU5jjVmmYbYvEzOgYo1CYI6HowD3HcUSS581h89iI3tu6TNGmGMcfhQhSgixHF9rVlrikQfhaKuZfiy68Ws+93/I+Y/mgvvx+hqcZq30s39Xsu6OeZiGDYfOdRVzRxe6SKAiAutaH4r9l7Kt8DV2TspQDG0OP43PfytD9PKFzCVXMvjjrPGK+/uLy0yM94FGvJ4pUgSB55PlBviH4MUIoV4OkZu4LJZDxi/qXgkCBZsLeHj/X0KQxSzqfkDLTF9nMY/oLglIILJAEjmewi1JYIo9hg78nDuIH0WKcDLo/iXNXoXHwpvd1dnu+1j3ZL0Kn8RdmOEXYo6vzNvDlxewBR98L2uM8vsYQUYUownncL4FrLHK8ly35Tl3V6we1nOcQT6/gJg/UPAntA8lOiujFnZugZujNFbEIbgdr02mhuRqtx/K5PSNaBpq53AAH2LdnLWVNYvlaa7Rt6EZ+yNv12NzCz+OkcV+qk8SGJFA35TWByxn53Lme1nLUhx4Z2s3zkINXXqb8Ft29wnWmCWHov/sdQF1s14EutEHS2ImPVtRxNR64dE4Fi+Q9CeHLP6Rku5tspxfVFIELSwBCYxIIBnRXJopnoDZIKbYA+jEYZiHiQz8CGsWyzh2ah0YpiDBnhjAI9zpfYb1ONzmy/Gx1xbDmjDkX3vnGG/dicPGuOToF5uMh5Hi/0a/4BKWcLyVTgcvYQ49VA6BmR7Oa7BW1NCGvaPGG0kwwxdHMttS5zG8G81oweWe4/a4C7r9CRTxNBPop3PZLVkLfM7G+xEHBoxeEuyEeVgd7XYb1rMnosdXwDEKaLFSBXrWxx/5/LubNS011jDLj4P5/7V2e3iuDzNLxu4OCXznBwaOcN7BmJ1bu3U2E/cxIypWNgR2sSJQXBCtM4aJacK/ndECKlAWBeZvyPcTjkfL0LeNJ8wc3KMMcRVSAhJYREAJrEUwKnrVLMXmNoA8QuJnW7Z9L+s81iwW45vsJnZsBdZj0IrnuEM8H7P9C5jp6/D6urx/NTjn4pUSy1wMvSEpMcqIFzfnrOG8GzF/GSoc9fJx3OerMrZKJQS6PM+tL/wKpEVqzpHD3piLJyPFe22YJd0yPMPnUoyjMw1NeAQbDe0MXsaY4SgneRO1AAAQAElEQVTKZjadsGazLNxxDebfwQBWRYf9DuF1Mpu9Va8kMHYBM+/9uX2Yf4G6xx5kqUsWgPSwFcKRl0udNRsz9BbsCL6Wvxi9N+6nTbhr3irR4ypgfQk42vi3MryXqK9xaTRvEBiXs3fwzrAPwEmk4lg+TZK9Ji7tWyuRmlMYCTSqQHZ3ZBpljfBNLMLXYnqxGf9oHsth38rax5r10oYizuUbzfvY7/AG/KgoHR7hidWjtPVykHBEHPAd3nyYNVbZBv04mUm+kMyKFVNxFiew8I3CeXxobdY4xXEbHDdUJXlSRPiKXPgqTYyx1MprfHgTGU7Q/jO6fxgFOxjhE9IYAoohgawKTLM0dTuxvN2znXtSfJF/i8aXt5140d39snjRXorEjyTScW2/XPYBX/6lezSRwOIFzA3OuvhHdW+dCOSApwx2R/ThGLYeTHHSsne6Xmui4ypgowu8PP5a2bl5ub/1O93Unkennc4Bfob1NNabWWujGMJRHctG6WwBIRERJdSogszDPzn/L1iLrHGKY1sMsMaJpiiLEwhvMvvxCT60EWus8hQDnYAOm8lp5ctleA4Jwq/kVL7t6rR4HwzfZdOH8DVwD9YbeF1FAg0h0Fewn5p7Oc+b0sK98Y+0ARvUCuiq45PD+JoQ72thLw2cWfKN+vvxOSUnXgKpk4lZbr4B0Y7ac8fy4+dgvTrh0TCGEXh2MsK3XsKBA8PMMca7mSzna/p7F7TiA7jFw/7RGAOVZbGKBp0w0zec1O0rVrRRNdYQAkpgZW01F6wbBfsGcjiIXTuC9XbWxiiOOfgl+B6zCsPd3HrYavjUN+YvRK7H9XgwZrp+AYm4ZSld2AoJ9mTs8AuYnEQohmu5FVYviTLNUo7iGdbwVTpO6rbcD8NJtD4YeTuIr3tX1+1INTAJLEFg/LzkUJjNWcIspT60hafpV2vlay33r2t93AE8qdRBv355JjmWRepfausuhh+ueP3Dul2jAonjHjeL9l7ZgDxjfmTxHLq3bgTM0rQJ/+P6vqYMY1rDUj+4rRVTAWcTZWgh4yFX7PJJaYKzB5F+c/zdfZMz3l11r8YElMDK6gprt//iMXwbReyFBIcACF/T46SOi+FEfAJh5706gyzYLTBcDCAkDziJUrbn+tsR93lLlGgK8qrA3b4C19cuvOMtrLHK7Vxf38EUeyxWwFHHcc+hyJEB96M+L49xdNPg2BUDfM53WqyvS9anlkZV9wLP/Q5z+Xw4urwDtY8UHe/ANK/u+76RDtKTCzjr06yxy7qO5OjW2b5V7MD1FK9llq/X2lUM3wbI/LDmP4NZfP7cGqujDiwLT9epmedKrIE3YJy+9fAIkF7JoXO18/+4ZQvP+QVtM9B458N1t/nwiwDfDrC9k9y4EyfM8k3QaBdnCq9W/ubW2LqpjTcyNYYarbvb2SA2sNvQjO8jh/dwp28/xg5fb+KkDotjM9yH6h6tNICfUPZh1jjFkUOKY9CHxvsDFkdw+ChNCF+J2YszGGuMEtJGd2EyKvv13ZCwmu4bY6ZfzDob3fyX4Od8vm8YY1CZiWF8JqQ4gP9vhT6cjk67AVNtXmb6VyMdUTfrUGCapa0J/gCzU8s4unFI/Vx8hu8oythIrNA9eTyBxA6IFW+ROAbDJrT4cstMXwe6vEFg/F2+vrn/HWZ7tnb7gW+YIWt3bG29Zoj6t8QteWfLZ/HOrA1V/YksYFZM+nJXmdmPI0deGM6wGZNYv1p4o3H+b52NS2DY+aURt4braerfbpvpDfUDCW627KRPY4WXHDSJKKAEVkTMsoVa1/rQbg8jbz9AwVbmC8GObCtlddb6KYYvoh9d6HJHtxc5/Rfr+/C4T4DzU+OF1co64LBDXcT2bCPemyHD8jDcyDGUt+/sdMOULl8djl9zvJNYR1OWNO/dfI7tDr6hWdJMY3rM3bj+k1fqLN+Ryaob0OXc1jGIJtwOw+dYJwNYn3UNOFo5rfXiHEcP67tom8MUO4/1AWzMD+dqfWTqvwQiCjzbbi/yD/pfGPJx1nKVlVod0/mpePb/FvF1OC0uuBPhxzTiazQx5EetCfsjvL/gDRUKuFvLLH9HMs7v4q01Wd/EbeUj47s8z+uZLnzuvMi/nz2xOskE3lRLMTVWvJqKw+2A/c3+awQ7GaPM29iehKc3c/t5Lka8xcTYurUr/ScWui7m4Tq6i2NsneWncawf56jC6ywnQ2UcfbfzxC8L58Uauqcx/ltpQRNWa4yhVnaUSmBV1jtOa3m7BndiHHJ4PwPeyRqOyko5rUCpUBOOsG1uw9b+gOcxD90osg6wfhczfAeEN1QL67q4xZfFdb7oCyVKumxgzyLFJSXFeOPCK6OLCbo33q97xiJg+BQXi3liyAGu89J/DewWb0b4auMcnzy0jc72KUzGvh9duIjb7rOsxaGa4nf8Y/42jqEeS8qxPQHHjXwW74ROm8D6j3ocqMYkgZgCfR12LRMGJ/D5E21H/A39c5/MT8fDD1+84aGs3bGg0NINs7O5J/1iWfqW+hFtc7E7HvJ6+LCgJKLl7vPluJN9IBM34WiRRT22Twz7YbZn+heVU8NvkOKmkhBetzA/ddqz4b72dIs3t87BV0nRUMm7nnzuXHf/FRyDHHv8YtimdbZfPnG2rxQ/eEYi3uET2mbha3Dfnz0az7q4sn6a87+0dfVvvrgHq32fGQbYh5jbwOSkv7ghY9ZBydYQQpIgWz1Sb0YmsIsV0W5/QsE25h/t8NXC8KajOr+aNrIex5grbK8HcKf4zwzW9VL9JybiWKyOz2Cm7/RSfS/fbG0AviGDO9/7cs7RlikWvroQ90TehrPZv61H2xXN/zqBGf4Ovsk443X3lnbT8HtMsXAS/5HFCdvVPb4sk6lTmaD6ANfrTtzmdsIE7IEcTmO6NfwYQBend7Ov1yAcXQXE+aVOZPSy8I3fdezdL1n3RKe9DR32e15XkYAERiqQS64C7K9gJou1PMX9nFrZMW9pwh8dFr7aH3On4hVXT/3c1vnpQROm+6qv3NlgV7hj/eYF/TgBiYUPcRazg+2HthbxBdzyaFtWaRa02z0wfzxm/9yxaZqm/4f/NEiC0z1pWWZwK6QeEtzLxbSshVg2mFzI92oPlKmvBsdOxRTfHX+Pt5epjeqFne4TW1rSL/HPVvjxsYlL7IhjFUfTf/g3aIclzleFB5MUfUxk9kdsejW+rq4VMZ5CvSQQEgIvXdWkZgWm2G+YyPok+38gHN/mNOxAhiwyr9Z9eTNHeDDHfTH/8Fw9VIErkOJcLMA30YXDMdMPG6rdvi+TDG/DHF+Zia0cl1taCZ8izFvaTKN4PGH/zkP4+tsoFtKsiwiEpFGCsDOzyJ0lX30Ibdh12CjhE7Nu35Lrba+h7ShsT7NwGAbxDSTczhxXwXA1iqyGHzDOXnDE/GojQ2a6hCNAf4YEp6IJn0LBPoW8/SHTPVbnJJBRgd7J9hC79mOYxTsXIwO+rrwphR+3/C3PLvu6+zN387n17QVP8CsmE8KHVuXpX2InpLn06PEz+zrK00BGozJhMWF6/yYopqcA/gX2ciLr4ov5ga0rrDaV753G9qHg4qOO6t6lz5zcwnmeZ41WDHZk20oDhWgBsxrI3SbOQWfiuWPYxYY6TxHHO1R6N7Ab+Tw4lzf6WctRxjP+R2wQZ0/o9o3L0UBVYrrn2sbhSD5XjnJgZEdqGpqZKPpV6yz/dJZeU8YtQC//9vbFdUzGIea3hOJ2rmajJTXbc3X8jQIF+xs67XA+cAjrF7gTfQ4MT/B6YxXDBI79HRz0IRz/aaxnDNWQ3CviHCYevodZCImkhXWmn83ExOeZoNgc3b4inG+XuTDGc66wTLger67PvoQj5uJFbKRI/TiafiFpGW/UxphPc213+UbcBvbktnAGpwu3jS4/H0V8j9vTOWzwTLb98rZ0Ou87jPdty9rE2mgl5YDvoMGXOT0AORyKvB2FyfYkb6tIQAIlCPR22BXw9HKGWMAaq7wax/mMdbxtwTLLf+rVO7N7ra/d/gGz09nDcvwqIfcp6ZHYXomNO33CjIH3sJ2GKG2zcWza3PQd2u7KARvrksqbfdC/hbvRvKSZqvlYLodL3BE18euG5dO06fhqjqsSbbfMxFpp6mcxAdEw2//iXHs7krP4fLhqcY9Fuq/Z4O/nBwjntM7wt+Hl/Y1IwSseZvbs8S3d6fkOP5JtD58A54OvL9zWQrLrzJZu7IXLPff6x6tx+/ki5puhN2bbCXzbiWug/o66i4k0hljJGJbRIlkXKNijKNiF7OaxSPERvjULR2fN5u1GL+HFNXzv+uPc8d6XGOEIq/1h+CLrt3j7It5/FbrxFyYwrsUC/I73v5/397PGKhPYxj6Y4bvHCtgwcbp8T66PPegX9w+d4/NoxW8ZOxzZdSKnX6Lp/i/VkGwMh9Nvydvhjy0nDV9+SoFw6PfumI/v8LXmV2i3cBQW767norFJoJICyZls7VnWcpWVUuCg8eGckuVqIWLcvj78iq/N17Gy2xEDvxqqlbHfnya5c9u6fOea37F8dVxvuDZ+pne0dqVXcwfy5Q9h3jDP4u4wx/+1NiMkVhf3cNXvmxc+QDG/leuxGLMzzOx9oLU7/U3MmJmKdacvbzmmEICGTl4NrROz1Iv4Kp8b84dul++/bT3nF7bNSsO+R/laKWPktrt901Zf/3Iz22fM78vdVzHzE9o2xl58za1+cnxzG+BYon5dndvSNmlaVAIr8raoBFZk0EyF67Rn0Gk3YDKuwDhsi2aszf6FxBYnKosIhITIyrwdTlq5Nafbs777pboFp7FfVFdDgo+g0X7Cm5BjLrf5clz2w6xvYo1d3s6A28ARDulelddjr2+GrPkyG4aPoAlr8XXkQCat/sZ6J8If+5ofmgYggewJ9ObtkbRo7yxnz8y9kDTh3St2efa/8ryxzR833vZDGvfT8df5NsHQ7olf1NaN/TDdx73u8dq+ebnnWmf5KUni1/E9yI7cYWwb/YB8p9bZfujol6vMEi3jkkPgiHoExVDPDTu1dBXD18uGbtbLfy1dvm7reA+/TBo+pKuXYZU0jr5Ouz9nFn5ECuW8MDE6xc0OZXJ0zjJ3+wrlbCt2bL6OfNWb/Go+1z4YIfYqgJ/eMgufw2wfHyFe1kK0wHIfmxS+4ZO1ntVwf5Ia7nvDdX3MAzYrYj17Auvbg9zp3IeVr5vYmfFm8c1aL2vUT6sYt95K8Io5phDvw0hwGF+s3wa+gcD13IEIv4S0pPofb8V13sJlxiO8sXZvgnuOn5vlOE0wzRNO7TU1Zq+Hi+X+apsL+xD6kQz16zr28RZvHupv+MN0H/u/pDGGx+7xZYdMZnuw+QS6/US04Xo2/yHWYMeJShkFnLH7WF+E4wJMoH7BOpC3KzHZHuLryAt8TEUCEiizwIIpNptNlPPrLOG1+oj5SXGHob8bbCzL5YW17bneQhKOpF5Q1n46DjhPzQAAEABJREFUlnfzc1ub/Bnc4RMQ/o6VtcEyB+f7hQkzfIfWjXwm3MMvzK3O1/axvv9PkPpXJtznq5a512MK//y69jyTnHePaeElLeRgTsN2b5vjx6HWt4cwTr4va+n23WB+G2+uzqqyiMD8dtwFt0+Uff/I0cpm1x9o8kdau/wsblstcB/rc5OhyljYLyav38zt5gL28RS29GbWKH11YBnuSFzQlqb7DO3jMHA9FYfvXsxh7bGOaYnL8YOJCfc6k4BLnKvuHoyy4dWdSiMMqGBXM5GVR4LlYQgnnr6Tww5vlmN+XY4hVYYVcHwJRYRfOrwXK+JFzEfPEusKeBarYSaXuQ7N+AW6cTbr17EpPo8u7IZP4OO8/SHW97Juh1l4OxNHW7JuwoTQRtHrdN8E9/gWmIFt2Nb2rO/Hp7Ezp7vwvj2wEQ7EqvgWJuGHaMbvUcRtWIDHMX/o3/BjHUA4Ceu9nP8GAJfD8TXWDXhdpXwCRYZ+lPUuGK5BHyajYMui0z6PNa2X96tIQAJVEOjts8/w9e/B8jadnDVuNmrmRNXWNHR0xNPlNWF0w8TWFn+ubQ18c/xsXx/hAxjeXSultdvXaOvyzVua/ao053/ma3t7pL6vlvb7b7L6y429BduK45zPGrtMQNEPalst/eZy9/lysYNXJB6Tb2G7aJ2UXmjwHxmwbEXarW4jo2/drJiMx/We+k+48ABruUsLzA9uWcNvbZmDXcORcUMfApe71ZHEZ4Jk3CzvbJlT/DTcH+B2s89IFhvLPA777gTg42NZNtYyDvQwVtSvETIevIirW+/yNcP1WHXiHF+5ZRPsVhzwv3LdNNS3R5JYiIpTowLttgAddgAKtjFa8F6+wfkBR3IF63TWSrxosxmVEQq0cL51WLeC4yOcHsB6HIo4F4aLkcNlAK4E8AdWvpjhX2jCjay38fYd0WsTbsMAbkIO/4TjWtbfs/6a9VLeF76qehb7dSRv784azq3QyT6EN0t8z8RrKlkQeJiduILr5xKk2BfzsBny9kFsYo9AFwlIoPoCv0Fvaun+7Eg4KpKTMhTHmjlP9+Yb4Jp4be5JMB3wE7mj8UIZNF4fstndj06K/vvW/vQLQ78eNt3HvX6mzNx2b2qb2b9Z68zBj3Fl/tDNb+b0faX1b7FLv4UK0zKZyDFzuJ272F6XeCe3uWU9scMWLEiPzWoCb9ghdvmkljfjU9yefwTYbgCaWFWGEZi/rj2eIAnb0U18L5sOM1vUu7nlTrHUL+Em/JuWDYufbZvlOyJ8MyFqKyMMxnZbZvu7WjbGrjn36y1NfgpHMsKlxzib3TJ/HK4Z48JxFktwPQM9wRq5+OoY72e0zPR1Sg7sbi3dvm0xxdnmfhFf45cbPwfblRy3hgKUeUOsIQl1FVjH7uPO65eQxy58kfoS6wkwnARgFquKBCRQHwL3cxjnDT23E3wVeXwCnbYnptg10DmtSKMigcgCpYSbZmlTc+5/TNj8qpQwS1/WDm+Zhd2XPl8G5ljX+pJxyaUG+xlg81GJi/GVEvbt1P3ctnHp0W2zfefMHCERxs/kROss/2jbHBzlSdN5yCWXMYtTjsRVaC3UcZ76+/r7i+8KN7JWx/WD713t32Xpl6MNZgcxgXdi6xx/e1naiBy0rct3brWUryb+QzP8X+TwdRuup2C3OOybrDMrPMiNLUkuTlO/tLUn/Qaf2we1dvuWKHfy3D1pmeXrtc0s7tc6P/2mpc7kiIej0FaowPjvc8cRuAiV+GBi2OFYM/7FBx9njV8cn7AEp4yf6e8da/CJM3xq6ywcwiTnj+D+KYSLYdWkmO4WrjZKVQKrUdb0aMZplnKH9u+sxyJvX+eiX2DdC44vc/oP1n5WFQlIoBYFHOHNyBFDz+0OuxRmnvVhqH8SaGSB+evZE5YmZ9HgRtayFYOfOulhf1PZGogYOBwd4SlOY8irWQdYK1MMW7vbMUzenNm2CS5snVU8ZXyX5yvT+Otame3jmUj7UNss/xGTEz/kzsy32a9pnGsLvl/LcVrO4mY2O0lys8vZyFhjv7AhXqTB2Vy+bO9X3X1PFP2clu7i98ueWOBAxlJaZvq7WruL3/ME3wbsMADjWVVGIdCXt78iHfwS3ys9NIrFosxqhkmAHcnn9in8EOO7rc3phUPP927/SLQf37jccxNn+xQmOc9vm5X+KHE/H4mdyvEeAaD0o4UwosvzYXx9y+FGTOM+KKp36VnHHmPrPaxlKv7xJPGzWmcWvzyaozgnTO/fpK2r+MNizs+l1Yl8fZv8SgcdOViy7rjuBTVzKoBX+j7GK8kYl9NijSRQsPCLYxehCd9FE/bh0P/KqlI7AuqpBF4VSDAHBZv76h26JgEJZF2gpwnTzf3P7Ocga7nKyoPz/cJyBY8dN/xaGN+2HwG3PzJ2OV0Y/g1lXSYwPse2DzL4L1u7/V8tXcXzh75iyAzXG+aOcQfjcidz9dYuP6K1K72u1f06ZwLFQyIFtgubWJu1EsUBuz417Dev3e5GFi9mxV7gj1w3p5e5e5sabJ/WZlzb0l38OpgMKHN7Sw/vQ0fRvKe1O73ScrgAsM8zAbIedBmzQF+h+Toz7AzDgjEHKW3BFi6+BWCfXfh897Pnm/+F6/hfC6v/eugorVn+1paZvevgjscncJ2/ek6kW7w5fN13mXu8vWWWv6O1y09t7Ur/PrTsxv6P1P0yN9/XYZ9zYAfWZVC5ywATMheNWzD3IqxqlTmidiljM7N74SjX35SQeykwSXhU2uy/C+uhpcs/G06QD34oMfQacpsvN67bC1ynB7d1p1zP/i9vbvqZm+3Frm/LGrYHThYp7pvmvGnnRe6p66sBsa4HGGdwijIkEM6X1Yd+PqlzQ7f1nwQkUHsCjrXwqLfVXsfVYwk0sAD//vYsk5zMHajflFnhPW3dxW+UuY1o4Xsn20OtuWc/64a/RQs6ukAtZtiQO2DbGHcuUvPruNPxOHcMH2/t8n+3dvsn22b4atyZHN37pnCy7dn+5tZZgx9r7U7/yfpEiMudzDuR+DeR4J1wbMXtYa3Rdbf0ublz+6+WJuzU18GdvNLDlS8CP6jxoXMYeTg/aPnaAdcGfFuDHdO6sd/f0u2fH9oRLWeLw8Ru6x7chzvCjyXu4Vy2O3G7C0dpjOpcV5b6cQwfzp3KicrLAj3tdlvObE0+5/gUePneqk3XZMtvZd1mYXUmLvwkvg790Wz8ra0tK9/H14tHhl43utMnWif5Iwv6ffbAoP8X7lfD/GCO450Ll8Xb3TGV16uRE0jZ58t65yZHv7DRcs+xD9kohrNheBEoa3eWY/TN2M47zXAeUr+9NfWHWjfxR1vbfDb/YPyb6+okbmzvptE2nE7h/Ma6+GJoY6yVwWTl4meor3ursbHWl2CjjaYZ7+QTZKNGG7bGK4G6EXDsgrmo+E5P3fhpIBKolsDq1mOwn/Bv8INl7MIEh+1QSz/L/Wz7m17s60jey52Aq+lSrSMk2DSa4VieV1ZmXYU7iVtzx+MXnuMOySwf5M6kj7iu7gPcoXkInoRzn4VP3EPMUN/ENlpZjW1UuvTC7ay+fPLO59a3qp6nZqQD783bI0mSXESsmTD4SJcb43zhqIg3s5nvc0e0r7WreGZrt6+xwmxfBv9xrjOPs8/ljHOftyx/jy87qdtXbO0a3KU1JCm6U+Yhkgs4ypU50HAEzWjbG3T4D3JIvsPxz2MtvdRZhHnt9pSlxnVsz2ZsaAnXexvrctzOw/mqVmL/Qg2vGaGG6yvyvhX4XAg/ppSFH6JI2ZdrevO53bC5lfErexz1KEtIVnKRCvbJJ7K98PX9lbgOw/riuvKwHlt5P5n4/0iK265tE4sfGMmstT5PUusDUP8rLOBYB8CqrCoSkED5BYps4in+QQufht7CNyZ9vF1aMWyEIpaDLhKQQM0J9HTY77iDHL7GP1jGzm+T9qenh6+clLGN6KF7OpKd+Yn1MQz8MGtdlMwMwjDHEvt07y9weGb6NMKOzG+3P7n5eUhR2aSD2SFMYD7cm/rjrSv4JW1zsGPbPb5FWzfrTN+s5V5fe/lbfFnc4m0IXx1yb8J1rOFE3UxQocsnTZg+b9WJ0xeE8xNtPrRcWHYWPtS6IP1BX9GfGYQ/BUvCEWYrj5BjuNn6zOwSQ3Lc3E57BroMK9BTsEeRYAcDZvK9WTlfh4ftQx08UKTfH3vyyU5ZHQtfMy7Kat+G7ZdhVU9yayO8lgw7U308oARWfazHyoxi4RMiTtbe8Bd2+uesv2W9h3WAVUUCjS3gGOAbojlECIf/h+dH+AP6NfRjW+TxVj4W52syxrdf0EUCdS9QlwPs6U/297DzVM7Rmb2vr7/4oaHzcZSzncixeweTsy2xLzLsrawqpQqEv0nAjZazXXva7SpMsxQ1eOntyJ3jZuew6/2slS6t/PDpY5761T7oNzlYE/+3DfiFfZNwZMskHNRaxP5ts7F32+rYs60Z+7b244A2pEekzRNOKzY3X82d6RuHlgvLwn8Ds934fiAXZSCGImAX9gzgy715ewS6LFWAz4X/cXvakzP+gVXnFCXCKEoft+Wf9+STHUexTMVn7WtPprHR0j80ZpCKFvedx89Bpc6HWNGhLdpYsugNXZfAEgW6sSYMU5Y4z0gfHMA+KNhnUMQecBwKwzc4PXaoAv8A8CKrigTqWYD7oHgBC5O5pwxt+wmfBzkcignYbej5UbB9Ob0QG9t8GBwJzosCYtiIn/q+eoLPYYPqAQlIIHMCU60/gX2jzP1a0ZB8bvzmCOfQQc1caNMzGb+F2Rdh+AdfNXWExNhX3pMwP4cJwQN61rebxx4mG0v25e1Yh32TvVnAWu0ynh0I57Y50uAn0fksdz/f4T9g/S7gZzBBchSnn+V867MmrGUpbPe43j4cgQ2sskeolWU0lQva22E3pqkdzm3qZBieq1zLNd3SQwY7s29c8vnMj8Is5XMj/NJt5rv6ug5ub441Xndf3d0s2wti3UlpQPw7ig3geBdiXKbawnN4hD+YnfZb5O1kdNq0odqML/GPwefY1mdeqt/k7dvYbDU+OWOzJRQtKoFXBcKndDfw5gEvbdef4fXPcds+GIP4xtC2H54HHfY7rGm9fOx1hX+SHOHorNfdP6abe2JZtI5pSS0kAQlUXaAnb1dyx3damTuyvfWnh4Zz7ZS5nbjhzTzsXCY5+5LDT3F9IDYW34cNtmdLU3JcONpkLAGyuAyTWCc70oPg0DmeDD18DTmwryP5FsKHZFlcYRnv04IpNruvDWdamu7B15nwHi/jPa5q925mUvbIHsdJWNdq4simvvHJt+F4vKpqY2jcPN0Fd/iEMSxaM4tkPoFVM5KN0FHHRA4znFSOk5LKw0tcen27C3m7Ep3286G6PM5AEz7JF5GtYdhyaJrgIMYIyYAeTlUkkC2BhW+Ow/b5haFtNmy3RbwTA9gN8/DDoe260y5Fwa5Ch83EVBtZck+/FCIAABAASURBVLaIIgf6ImupZVO0oKnUIFpeAhKonoANJN9n6/ezlq0Y7DMLBtBetgbKGHg+30v05ZJTk8TCB28LythUXYWm19dyRXs/k6TX1MrJ2kezAvo6chd5YvtxmUdZG7M4brbUdu0ZSC4AE76NiRBp1PzAsafQdDWfN+8E7FLosjiB6/iaslef4QoUbESJvsUFqfh96+BF5Czsb1a86dIatN0nToASWKUhaum6EWiCRRrL6aOKs6rNx/o2mzv9tyJvN3N6A99On4cF2AE5rIZmLDdUgQKA81kfZk1ZVSRQbgF+6Iawvf2Q2+JmQ9th2B6bsAbC9vkYfji0zYbtdgO7DRvaPdjcxn6+txyeg+OaCINqxrxoz+cI3VEICUhgtALzN8AT7rbXaJcb1fyGiW64blTLZGnmdnuxp91uG99jqyJnp2apaxnsy30G23L+Czhj3hSbnsH+xemS2UBfOy6z1D7EgH9jrccy7JiYr/pRk9kHevL4LabayD48GzaaHnhZILzO9D6DvQH7KAB9dZkIfJeZmuMPvZPsg/M6cTfarbY+SDBLWxL8GeanhOHUUJ2Uptiyhvo76q7qCKxRkzXoAt2+IorYLsroxyN8alxaKLNBhEOe+eYU69sLQ7Vg3SjYF1jXZM2x2lDtRycbOwuOWzkNn7g9yWmoT3E6lzUkFJTwIoQKtxIgbA/zaPE0a9hOQn0Mhtt4+2zkMBV5/l8w4/aVsIbtbV/+Yf4fXt4Ww3YZts/tuJ1yoWilA88iwZWIcWnGRjHCKIYEJFAlATNvGc/XJbPwoVBIppepIz6xtTu9AsyWlamBsod9flN7vneyHeGwd8Axiw0u5mvavPeV0jBXwt+7R8z9gN58sl5P3m7G5hbuq28As2JPp93a22H/x+36pxxsbe1Ys8OjKsatHniYk2N7OnJ7z83b0zDT+95RIY5g5q2ttzdvv8kltgkcV3OJ8DrjnDZaCdvW0+b2tp5C8gGsbj3c3mrSIRyFasXklzD8lyuxZsbg7r9if+u2KIFVt6s28sASrMwn7/siRK38k38j60LBDkWnbc7pGqyrDNXxWIt/YPbkuC7g9BpO/8XxXb9IncnrIXnRw2n46hYnKjUuELa/Pq7vZ1lnc52HP0ivrnPHnzm+C5FgPzRj8tB2UrCwvayOvL2Ftw9Bu92Nar3xC+2mCNsju1liKeLgEiNocQkML6BHKiLw/Lr2vDv+yMbuYy1n+XDLLGxTzgYqEbsvb//iDiY/1LKj2N5NrPWduOAAhykp+KGewS+e4NbZU8idN8x89X03E1m9hdxugH+PHrdwsOE9Aid1VR5Gin9MHOB6zuem1dXIMjqYeXyf2FtIduZ2dTRgfwfQKK8z4flzL8f72/E91j6UEOeNWi8h2Y00PZPjuJ81jJGTDBfjMx64I8M9LLlrSmCVTNggAQbRypGuyVpqmYVBvk0oNUqM5cNJBDvtCiYmvohO24nTd6Bg275Sc/gMDOFNbnjR+gGbvOiVargYwK84khtZH+T151n7WVWqK9DH5p/kOrmb0z9w/V3C6avrDfgRb5/D+49lkmovTMK7X1nfYd132vt4+wvosJ8jHE3FmatVltBueCMUjhBbwiwjeui9I5pLM0lAApkWYFLmr+Z+Ol/3nitjRxO28dOJs31KGduoTGh+EMAk1pm5xD4I93PodgUbDkcMcFL3ZcCAPxr8h8k427Enn/v804UaOidNmVZPbz53eJPZ+2H82w+EI/XL1FJFwz4D2FXw9FAmU7Z7aqrFeN8AXUYuwO3q270deDdCghT4DZes5/2EJwD7ZWK2X++j9vHnN7WwX4R6ufQWmi73ND2a4wkJuiwnsbiPYFe1JrYD+1q3RQmsul21kQeWcHc/RkjHD3EbKvHd8NJ72263Man1QxTsaNYDWPd6pXZgL/RiXxgOZEOHwfFVXj+S9Wu8/S3Wu1hVKiswwOa+xnXwZaQ4GIPYH3OxNwq21yJ1H17/Kut3kLfrEQ5r5kI1VZrwMPjJecl9drSUHEMBJCCBTAikg8nvLbFwRFH53lgbVhn09EC4N2di0CV2Yl67PdVbyH1lXKvtC7evcyfzEv79iHOEa4l9i704N4q5cPwSsCPTou3f05HsP3894w4ndHlJIHytrnciPg/Y4dzGf2ZAjB9MQaUvZvYizH7pnn4ll8PnueNd118lqrTvqNszcyayDm/CPG5bfiSfh2F9hK8WjjpURhfoN7fvu9uXx7Vg//kddi1inz4jIwPv62z6Ocy+yufYtRnp0mu6wdesmezbqTYOX3w2nMrkNY/W140lJLDqa6AaTQkC13k4ffvbSojw6qIp/oVdrPa/jsc/SAifLhTsFoSjuDrtAiZEzmQ9mYmT42E4h4MeYI1dwifssxk0fF3kUf4hDF+Fm89plpKCfK+M8CnTXPYznGfsIU5n0yScQ+pPnHbxdvz+Gg5FHmcjb5dgA/srptqD2NzKsQ7Y/SqWp3AfDOHrrqV3YrYvU3oQRZCABKot0MfXu3Rw8ET24wHWcpXx3FH5aFt3cbdyNVCNuC+sbc/15nGqeXKkpemnmbwIJ+wNf7uq0Z3YbT7NxNxhidmnPV3wld68fbtvij2A8B4mdkv1EI8fatHoF7DkCBrtCsdVHFZ4P8NJ5ovD7Cz2clcfxFf6Ck0XzZtsT/K2SgYE5uaXeZqJrDN9nH2Zr6Of4vPyHBh6MtC113VhhDfZdzc7xmCfzBmO7ivYT8Nr6QiXrtnZejvs14nhEMAOQ3YuYb/6r56zfXr6nzq1Zx17LDtdK09PlMAqj2t9RZ2EcUixB2JcEvTECJPpGFOtHwO4lH+YTitDPycy5rlcH+HrX9sjh214/a287y2sG2ekbsI+bca+vY0G4YS570ERH+AbwY+xHsfHnmA/c6zxiuGHGAzm5vGCZjTS1tZLxziHZhexU0ZHqW5JQAKjFOCnw9cD9luAr4b8r0xlFbfc3m1zfLMyxa9OWCZ0egr2aE+h6ereXHJiEfaOBLYJ/6DU3tHUZnyf5d/jjuWWRRt4R++45LyeDvt935TWB6qDW3utMon1SA/NLLUv5HK2mbuH0w+MbCCVn+tRs/SDidsmvc04NvR7KElZ+X6oxREI9K1nD/C15upxC5Jv5sy2RFrcmouFr6VxUhPlATPbP/S9rxdn9uTtynD0Yk30PFIn57XbjN5xOC9J7X0Myb+7/L9axbhfndo7kNgevZPtP5i6ckN8VTiplrfarSGBiUxFAJuW3GPD84wU/8gbZPAy1eahiO8y0RDOrRGzg+GrG0ehGRMRfnWxw2ZiA7sbnXYXb9+ZmTrFpoMv8MhbF/s2i32cgzwegOHdrNsSxFhjlfDViCvYxrOxAjZQnM820Fg11DIIzL8Ed/c2odDbZm1R64s4vAzdre+Q3IvtnYvDuR6WYY27PhZdvwm271kft5ULs+px2+3Ffv7tmp+3O/oS2yJYuhffzT9a4dyKzGlVvYeL60Afkyw/BPre3Ps0VuztSA7hjuXN/R3jZ2Jd61vcArpv6QI9U+yxeZNtet+8ZP/eSTbB3HaG45mlL1nmOZw7re6nj1tgK/SOs/V72nPXzC/YnVzXUT7c6k1sh7Ddx6h9HcnpZdaoyfAvbGTPMRFyd29n8w29j9oGvQM2ydwP4GCeYs1acYdfMLQ9jLNCTzsuCH3HxjY/ax2tWH/4ujq/gD9zvb3bke7Odh9mrWR5vli0DXufthV7O3FDb7tVuv1KjvUNbSmB9QYS3TGMAN+7DfPISO9OcTUcWXxhHukIRjffFHsMCcLP6D46ugWXOveKKGIabvPlUCuXW7wZs7APu3sca8zXHX7SjK8ycfdHxm2c4niEz6XHIwx4iwgxFCJbApXtzTRLudPUhzWtN2rd3Orv67+VWDPBLfa6eH28dlsAJssqMZyqtxHGyvH3FZr/1pNPpvbmk2R8jy1vZj9m3+5hDV+Rf8SBF3g9bLO8ymvxS/jwL3yy/hhDP8TX/wdh+HvqxfezT8ba2lfI7dubb3sEW/O5aBbm56wqUQTC82p16wlHzvQWkhWXn2sT4B6Osr+X6yFsA09znQzyesz1X2TfX13nwCwmOE7gujb2YUJvIfeVkAQBd6RhFrNd4KXtPsprurZFrsallO2YZOYH3+HXQLl+V2Y1g32ES/2bNWxfITnxNK8vYI27rhnwpTJowIu8Htp6yAy3u9veveOslf1J+vK5zw9tDwu3t0b50QtyLKGE591U6+/LN11CozUNtiXnvoXPx7DOwvoa5O0YJXyNObznf4CvM78qprYR21u+PxwsEF7vEfn5H6PHZY4Rc0eyzF1V+KoJjMMKUdpO8Fd0IJzDKUq4mgiSt5/AEN7oxj5h44fQgt34Bsoy78C/gJiILeH4RuS+DjDmz9CLX8SNWwPREtyGBLX31ZYaoFUXJSABCSxJ4PlN7fmeDtuDOxCTWddqmWsbGGw/N7+EuxF/4bJ/faWa/ZPX74TjQU6ftYU7iOH8kCExEepc3vcCHw9H9dzHecKRbWGZV2MAvO6/hNnRVrTNQpu9hWTt3o5kuwWF5sb68IZAWSiPbm49vYXcV7ku1u9tt7WRFj9kif2U6fxF1//N7OsDQ+sXCEeq9PH2Ahj6WMOpAHqYiQiJz0fcbDofC+e25LrGX7nMtYD9ivulX7di78J1nk/yTHAcDV0aQqAnb1f25pNtWNfqfdTW5Ta2M8zP47bxJwIMbSecXgfYTdyeZgMICZO5fC3p4fU+1gUv1bCthe0vvO48y/tC4v0mTv/G+nKcvyL1X6ZID+rtsHVCmz0dyaZ9BfsRQsKKM6osXaAnbzf35pMtem/HukjsQ4D/guuLz2XQ2f7G53t43x5e619eTy+vo7C+5sPwPNffg6zhtWNo/YTl+frwI9a3M/Y6vYXkE/2dFuKgkS9KYDXy2h/p2PvxqZHOOjTfcP+l/ANuFj5RGm6O+rw/b1/ni1I4EWjc8Rm+gxnYM27QMkR7DK2MegjrGqwxS/gj/DNwZyJm0JqINYiwoxN2iErtruFRbys1iJaXgAQk0KgCz21uL/Tm7bK+jtzePYXkvdzJeM8rtR87JrDdkaSHwew4fp5zosNO4s7IKe5+ykvXj+eHUdMstYNy/QOf6Z1r4aiqV2PkE17P7drbYWeHr7Q1qnNmx23m4WtgPR2256Lr35vs48jZoVzPXOd+OhNc3+Y2cJa5n2mpf9vMTuP1E93TI5Ic9ux12/Hl7aYnn+zQm7dP9XbkzumZMiEcdZfZ4atjFRDYzga5jf2H28OhPfnk1deHR+3/fACf4OvIAdy+vuF8TeE2tXBbg50J87C9ncHk+qme+sl8nTkuSeyL6O/7eO+lxm0svLa8VDtzu/blm37MbbTx9tNir8JdmHZutxt687ndeoaeyzTuwA5J0fZgUmuaw092Pv95feE6SuzbBjsNsBOQ8DWj2V5ZP2H5vg77Auu9yPqlgv1LKth/Vrz/AAAQAElEQVSWmqpVAcfuEbo+iATFCHFqNcSx7Hj45IOTiCWH76Db4yQYI3brNaFexOm8/XHWmOV5OI5Gp/0jZtCaiTXV+jn+gZL7a2jCCwgn/y85lAJIQAISkMDrBKbavHAurd6OpitCAqq3YKf05e0k7owc31fIHR+u8/7Teztz3+3ptN/N23D8TGxu4QiK1wXSzVoT6FvfHuydbL/pLeRO7cvnpvW021Fc10f25HNf7ynkju7J27ShxwpNP+tZ325BwcIRMrU2TPU3osCoQzGx1TfVHuTrybXcvs7ja8oJPZ25b/L6Ub15+xoTXkdyWzuG299xfZ25E7m9nT2/3f7Uu2HbQ5hmKXSpnIBZyg8g/tebz32X6+NEvvZP4/WF64ivDT15O5avD6ez/jq8dkDrB0u6KIG1JB09tlAgQX7hlRL+N8xGiidLiFDbi+atCwnKkWhqg+Mw3O0bZBJopofE3Rei981xNpNXV0SP22gBHeNheE+jDVvjlYAEJCCBuhPQgCQgAQlIoAEElMBqgJVc8hAduQgx/std5fCVr5JD1WyADlxLyZ0j99+YwNqEcQ/EdB8XOXZp4Wb5OxhgP9a4xfA0ky5nxA1ak9HuY6/D+TM4GXMZR8t3jXlpLSgBCdSRgIYiAQlIQAISkIAEsi2gBFa210/1e+duUTrhmIX17IkosWo2iDl6EU7SeV7UIRiaGW8/NOGrnGaj/MdbkeIkJkdWid6huVgbOtQetL0VjlKPagzPb50DC5EuCiMBCUhAAhKQgAQkIAEJlE1ACayy0dZJ4C7sUCcjycYwNrLnmHT4KTsT+2i0kIj4Frr9gKofiXWbL4c34WIAW7OOqixl5l7ksB02Q+9S5muMh1PcDsNT0EUCEpCABCQgAQlIQAISkEADCCiBVV8rOf5oEnwwQtCUO9qNfAL31xJ22n+YxDqCJg+99oEItxxHMe62mObVeW7f48uilX1wfDTCaF4NYUh541L+Px1mzusqnfYMEUpP5jkS3OLhKD6GU5GABCQgAQlIQAISkIAEakSg4bpZnZ3chmOu4QGniHF+nHDOosehy6sCBfyGyZiz4Hju1TujXFsdTTgCe2M5VPpynTdhENuz2U+xNrHGLNfDcRby9jR0iS3QhvFYK3ZQxZOABCQgAQlIQALZF1APJSCBWhJQAquW1lY1+mpYqeRmDfcy+TCz5Dj1FMAsheEXSPBvDivu0WmOHTAfZ6HSR2GthjWR4isA3swarxhuRxHHoNPugi7xBQzLMem5MXSRgAQkIAEJjEVAy0hAAhKQgAQqJKAEVoWgG7yZ+zn+blaVRQUK9igTWEfwrlJPxM0Qbyi74VO49A33luuO8AuIhp8zKbdV5CbCOcMuRSduiBy3XsI9wIEMsI69pFiO2+FU6CIBCVRNQA1LQAISkIAEJCABCSxdQAmspRtpjlIFHD3IY16pYepy+XabgRy2LNPYPoyZ/t0yxX5t2Gb8F463vfbOkm85Y96JQZwLs9KSNCV3JaMBHDexZ32sYy+GCVx4XdZaLuq7BCQgAQlIQAISkIAEJFDnAkpg1fkKLml4M30dLt/EWmpxJiC81CB1u3y7PYxxeCsWnqg85jDHMeYn0eVfgHv4lcIlxB7jQyFut/+AiaZNxxhh+MUMj6DT3oWppuTncEpNuJkPlZbAArcSMI0KXSQgAQlIQAISkIAEJCABCWRXQAmsWOumHuMkTKoA40semjG9UXKQOg/wAP5HpR8wlZBGHumKjLcHZuKt0ZNYQ8krfIj9/jjbiF2eRxHbxA5ad/FaMJPbzIK6G5cGJAEJSEACEpCABCQggSwLqG9VEVACqyrsNdJois3Z03GspZQFTHDE/qW9UvqTzWW3s0E04URa/acMHdwSCQ5DF9aOGrsbmzHe8azLs8Ysg3B8C1MsnN8pZtz6i7Wm9XJQOrqRCCoSkIAEJCABCdSWgHorAQlIYLQCSmCNVqyR5k9Q4HCbWcdeHM8hxfSxB2igJSfbQxztF1mvZ41dPgHD8Zjtpf+qZOhZt2/BeOfwajlO/n0xmvA9xlaplIAjweWeq1RzakcCEpCABKIIKIgEJCABCUigoQSUwGqo1T3qwS7LJUrbRgzPI4eZ0GVkAnncxYTfcZy5HEm/z6CIc3CLl5aU7PI8+3gCHLFP2s5h40fI4etotwXhhmrFBCZiQywHXSTQcAIasAQkIAEJSEACEpBArQiUlpyolVGqn9UTMLyAJsyqXgdqrGUzRyv+xeTQpez586xxi+ETaMP5Yw56t6/Avh0OwzvHHGP4Bf8Gx1lot6egS2UFDCvwebrqmBrVQhKQgAQkIAEJSEACEpCABCogoARWBZAbvIl+rIcXG9xgicN/w4PrWh+WxVkA/sfqrPFK+KpYgt3Q7V8bddBw0vYcPszk1e4ASj03GkMsUhzPwHE5CpixyL26OhIBx1MjmW2J86RYAUWsssR59KAEJCABCUhAAhKQgAQkIIEqCtRDAquKfGp6RALhqKIRzaiZXhFY3XpQsHczWXTvK/fFu9LMZNGXmcT6wKh+mfAevJlduJC19F+mZJBFyiDH+Ut02vdhVlzkfl0dmUDpST/DJDb1JlYVCUhAAhKQgAQkIAEJZFlAfWtgASWwGnjlL3Ho7iHJoe1jiUgVeDBvk5lsml2GlsJXAU9GF94yoiTWPb4hBvFgGfpR5Ph+iYJ9oQyxGyOk4Z6SB2pYBglWKDmOAkhAAhKQgAQkUAMC6qIEJCCB2hRQgqI211v5e30/1mAjE1hVqi1QxIcBPMAau2wIw2mYgylLDDzL34F+/GWJ84z9wesxgPDLi2OP0OhLprivZIIUE5FiOegiAQlIQAIjE9BcEpCABCQgAQlUXEAJrIqT10iDPUPnw2kpubeOwZJjNHqApxBOgn8KGcpxLrHtUMQZmOkdjP/GMoPJK8d5THSV4/xIj7LBL2Mje45TlbEKJCj9a6aGJjY/jlVFAhUTUEMSkIAEJCABCUhAAhIYjYASWKPRaqR5m4a+TlRaAstQZOJDyYlSt5vtbBC9uJRhzqdnkdPY5b1IcB5m+GqvCTzD38L7vwnH4pNbKOkyyKUPRcFu4VRlbAILl+rDwwuv6H8JSEACEpCABCQgAQlIQAL1K6AEVv2u29JG5ggndB5fUhBnAgt4vKQYZV24hoJvas8zkXQq6w/L0mvH9khwJdwXviZ0+eq8fQDb2wZAODqHk6hlPzyGX0eN2KjBBvBEow5d45aABCQgAQlIQAISkIAEGkcgKWmoWrieBcIJnUtLYAEpgbRzTYQopdOewQQcyliXs5ajbIFu3IRbvI3BdxuqhnJ8rexgDOKnCEeWsRGVEgU2t54SI2hxCUhAAhKQgAQkIAEJLF1Ac0igygJJldtX81kVsAhHYAFFGJTAirmO17RevIiDGfIGVmeNWYzBNmOS7GZOT2aNnbxKuT1cjPG4HFOtn/FVJCABCUhAAhKQQEMJaLASkIAEJDB2ASWwxm5X30umiHEEVkhgPV7fUFUY3Zb2OBIcyZYfYY1fDEv+VcKxtehMXt0Bx0+wLvs/thhaSgISkIAEJCABCUhAAhKQgAQaVEAJrAZd8UsdtqGV85R67qMiYzzBqhJboMP+iRQnMiE0EDt0meKFROaZKNh1ZYqvsBKQwIgFNKMEJCABCUhAAhKQgARqT0AJrNpbZ7XU4yL68XQtdbim+jrFzmN/T4AhJAp5NbNlAXt2FPJ2Caf1UTQKCUhAAhKQgAQkIAEJSEACEqiogBJYFeVuuMYcjnmLG7XuiyRQxElI8Y1I0coTJsGuKNhF5QmuqBKQgAQkIAEJSEACEpCABCSQZYFYfVMCK5ak4ixOwNGK3sU9oPsiCYSToffjbEY7hjV7xbAvOuzX2euYeiQBCUhAAhKQgAQkIIGaEVBHJSABCiiBRQSVMgmE469S9JUpusK+LLCxzccEnMGbZ7Fmpzi+B8dl2emQeiIBCUhAAhKQQOMKaOQSkIAEJFDrAkpg1foazHr/FzCFkfU+1kP/1rReDOIUGMLRTtU+J1ZK0n9wzZ+Ngs3ldRUJSEACEqgHAY1BAhKQgAQkIAEJVFFACawq4td902Hregrh/7ofaiYGONUep/YJ7MutrM5ajRLanYEcvokpNrsaHVCbEsiygPomAQlIQAISkIAEJCABCYxNQMmFsblpqZEK5JlSGem8mq90gXb7H4o4kYEeYK1GuZeNHo12+wen5SiKKQEJSEACEpCABCQgAQlIQAINKKAEVsOt9IoO2PAcWiraohoDNrCryPAVGJ5HJS+Ox5k8OxyFofYr2bLakoAEJCABCUhAAhKQgAQkIIE3CNTXHUpg1df6zNZoHAmTKJOy1akG6U3BfgXHfhztAGslSj/X9WdeSp5Voj218bJAl+s59rKFphKQgAQkIAEJSCC2gOJJQAKZEUgy0xN1pB4FjIPSzjURqlIeGzqh+55suxIndd8eBfsb21KptMA4rF7pJtWeBCQgAQlIYDQCmlcCEpCABCQQQ0AJrBiKijGcQA6GFYd7UPeXWWA7G0QRD7KVHGt5i6OvvA0o+rACfVhz2Mf0gAQkUC8CGocEJCABCUhAAhJoeAElsBp+ExgWYB4fKfXrZzkkWIVxVKoh0O1bIId/VqRpww3o8o/jPtc5zyoCvkgjORQWuTW2q47wXK/zJOTYaLSUBCQgAQlIQAISkIAEJJANgSQb3VAvMijwNPtU2g6tM30Cfb2JjpUvXb49HDdFbXjJwZr58Hnow774n6/E6yqVEnBMKbmphSf8D8/5kkMpgAQkIAEJSEACEpCABCQggXIIJOUIqpiLF6ipexOEndkFJfXZ0ATDWiXF0MKjE5jmCWb4p7jQNayVLityfR+DNnwZ032tSjfewO1NjTD255DiiQhxFEICEpCABCQgAQlIQAISACCE+AJKYMU3rY+Ijsc5kB7WUkoTHJNLCaBlRyHgnsMu2BM5nM2lxrNWo4Sjr/ZDE76Jbl+jGh1ouDY9wjmwDM/BlMBquG1HA5aABCQgAQlkW0C9k4AEJPAaASWwXsOhG68I5PAQr89nLaUkcCxbSgAtO0KB6T4R3TgQCY6HY+URLlWu2cI6/zRSXIz7fDnoUl6BBLmSG3A8w+3m0ZLjKIAEJCABCWRMQN2RgAQkIAEJ1I+AElj1sy7jjiTBwwxYagILMOhSboHbmCRqxuFs5jjWVVmzUFq57rfHAvwvC51RH5Yq8Bym48mlzqUZJNCIAhqzBCQgAQlIQAISkEAmBJTAysRqyGAn1rMnmIDozWDP1KVFBcKRV204D45pAJZhzVIJry/rostfxC0eTvKepb6pL4sKGFLsYsVF74p5XbEkIAEJSEACEpCABCQgAQmUKhB2MEuNoeUlMLyAMw3mru1seKGRPLL4ee72yWjC7UxehZO2I8OXSZiE2zHT14F76V93gy6vCNztG3D9j3/ltq5IQAISkIAEJCABCUhACdwUQwAAEABJREFUAhKoU4EGSSzU6dqrhWE52nAnVq+FrtZMH90N3b4Ncghfz1u/JvrtmMJU5q/QhXfjcZ9QE32uhU4a3slutrKWUpwLp6wqEpCABCQgAQlIQAISqAMBDaFeBZTAqtc1m5VxGd6Ecdg0K92p+X6Er+J1Yyek+BnHMom1lspmMJyF5/FFzPQ3QZfSBQzbMkgbaymlj9vTY6UE0LISkIAEJCABCdSZgIYjAQlIIIMCSmBlcKVkpkuO8KtkpZ4XZyUmLd6amTHVckdC0mcSPs8hnEnTtTitxdLJTn+d/f8e7tCRWLQorRhWYoBSv5b5LHK4hXFUJCABCUggooBCSUACEpCABCQQV0AJrLie9RUtwb/hWFDioNqYrFilxBhafLqvRcfzCfEN1vVYy1keKmdwxl6WY9kFLbhG58SiRvXL05iHG6rfDfVAAm8Q0B0SkIAEJCABCUhAAhJ4RUAJrFcodGUxAv9ioqFvMfeP7i5nlNEtobkXFXjSJyKHG3nXh5lQXJnT8hVjO+OxJVLsXr5GGDlsE453YBbuQLevwXtURitwj7dze1h+yYuN4FFHHzaFvkI4AirNIgEJSEACEpCABCQgAQlUT0AJrOrZZ7/lDrudnexnLa0Y2jCdSZjSolRn6Wq2ernncKcvj2cxF4ZV2ZUm1nKVcBLvP6IDW2NdexxT7BI2dADrIGv5iiP8it5NmOW74jov5/jKN4ZqRV6AHWBYq+TmE6bBzLzkOAogAQlIQAISkIAEJCABCUigjAJlT2CVse8KXSsCKTZCM3QerNGsry5fnWoHYhweHM1iY5x3Lpf7GXLYHWYhkcWbLAU7j6mNY3jtRdZyltVRxMVM0Z2C+3w56DIygQQbcsYVWUspznVc7vVbSv+0rAQkIAEJSEACEpBADQmoqxIop4ASWOXUrY/YIblR6kg6GGAjVpWlCbgbur0Aww846xmsE1nLWcJXx87GeHwV7fbUGxrqtJOZ4DiF98fYDhhmmGJo5pgPwwIci7t8fQSHYWbV3RQIv0YJmvFqiaUPhl+WGEOLS0ACEpCABCQQT0CRJCABCUhgGIFkmPt1twQWCjj+vPBKCf+H5ETKFEkJIRpi0fu8BXOwAxNGZ7PuyDHnWMtZHmbyYhqacTrC1waHa6nTToRhGoAia7nLQUP96cK+5W6opuO3Ic/+r89aaunDAH5XahAtLwEJSCBbAuqNBCQgAQlIQAL1KKAEVj2u1ZhjyuF7UcIlWA+zfaUoseoxSDiiph/nMUV0Fof3f6zlLs8yKbUfEvwY69sLS20sb99mUm0fzheO2OKkrOXDMJyMLj8L01yvUYujNmzFuzdjLbWkmGqPlxpEy9ehgIYkAQlIQAISkIAEJCCBjAlo5zBjKyRz3fk5uqP0KcWHMIBNoMsbBR73CZiIvzNBtDuATtbyF8P7kLdr0G4LRtxYAT9mH/eA4bYRLzP2GcOv630Bn8KPcbdPHnuY6i1Z5paXYfxJrKUVw9OlBdDSEpCABCQgAQlIQAISkIAEKiOgBFZlnGu3lWmWRum8YRU0YTQ73FGazXyQGX4cnkc3gK1ZE9Zyl5TrYS3k7eZRN2TmKOBaLrcr6+Ws5S7j2MCnkOCf6PZw9BdvquBeXxuGcARWDIzvxgiiGBKQgAQkIAEJSEACEpCABEoQGNGildhhHlFHNFOGBRw/j9K7FFNwh0+IEquWg1zuOdziyzIpczEShF/5W6MCw0nheIaJjw0w2R4ac3vGhGbeutCK/RnjItZB1nKWJvZ5Nfb9Aszy/XAP3crZWi3EXoDwgwgfi9LVvCmBFQVSQSQgAQlIQAISkEC1BdS+BOpfQAms+l/HpY8wwamlB2EEw4EYjzfzWuOWh7wVG2IXTMS/mJT5XIUg5rGdPyOH9yAkn3ij5LK2PYeC7cU44dcS+zktf0lxPgbxX8z0rRv2VwrDudIMK0bBNvRGiaMgEpCABCQggXoR0DgkIAEJSCDTAkpgZXr1ZKRzjnuj9MSxCuOs0bDJh7t9W8zHl2AIR7RtSItKlHDU1XeQYn902O3RGyzYF5HgfI4pzldNl9ZBR4Ft/Ruz8Wnc7Zsubfa6e3zZoefQAVHG5bg6ShwFkYAEJLCIgK5KQAISkIAEJCCBcgkogVUu2XqKOw9FDidO8sNwGG5FE+M1TnHPocsP5qjP56BPYa1MccyD42tow/GYYg+UrdEOO5ixv8VauV+zS/Fj5HAOZvpODfVLhYNYk86bs5ZeHKeVHkQRyiCgkBKQgAQkIAEJSEACEpDAYgSUwFoMiu56ncBm6GMi5NTX3Tu2m44dEU7nPrala2+p2f5xzEI4V9TxcEyp2AAMRSTYHZ12Ada03rK324HjkMOX2M5fWStRQhL07TCciU/hXMz2RWwr0XwV2nBPON7jI7XsjHM/q4oEJCABCUhAAhKQgAQkIIGaEEhqopfqZGUFXt9aOHE3MOv1d4/59nz8ZMzL1sqC3b4iuv0bKOJsAJ9hnchaqXInHO9E3n5TqQYRtpGHcSWaEE7ufiEqd1mfTe1F51/T+92AG2/XZ7mVKUJgu0iDuwjzUf7EZqTOKowEJCABCUhAAhKQgAQkUCaBGgqrBFYNrayqdjWH52D4b6Q+fDRSnGyG6fI8O3YPHEdxujqnlXueJTgeTdgBBfyHbVe2bGeDmGxz8BgO5Lbykwo23sy28nS+Gl14DuFIJd5Rd2Ui7uKY4iToDBdhc+thPBUJSEACEpCABCQggRIFtLgEJFAZgcrtWFdmPGqlXAIddi8WHk0Uo4UE3f6XGIEyE2O6T8S9vgq6PBzV0gXHMuzbONZKlV4mjQ5Dhx2DyfYkYOErYqjKZTvrQ94+x/78mO2/wFqp0saGlkU3ergeLsBtvhzcc7yv9stsX4mDCIlRTkouLyBFb8lRFEACEpCABCQQT0CRJCABCUhAAksVUAJrqUSa4RWBhIkBIE5CwrER7vENX4ldq1e6fBKTcRujGRdgAR7kMFpYK1nCr/91I8WxyNuZlWx4qW3lbQ8Y9uR8N7FWsoxnY/ugFX9CF3bBXb4KE1nG+2qzhORoETdG63yKM9BPmWgBFUgCEsiGgHohAQlIQAISkIAE6ltACaz6Xr9xR5fD/2C4JlLQlTGA85n8WTFSvMqGucWbMdO3YqNfheM3cHyKNpU84opNszjC+ab2xhSr3K8bstkRl3Aerl68l/NfzeqslSxbcp38nMnFEzATezOJVZuvdznsynEsHwnuBeQwHRvb/Ejx6iuMRiMBCUhAAhKQgAQkIAEJZFagNnfoMstZ5x1rt4fhuI2j7GctvRja4fhE6YEqHCEkribhJCYVvsuWj2Zdl7XSJRx59S0UsD8K9u9KNz5ce4u9f1N7HoPYj499n2ZPclrpsjcSXIBunMSk42E1lcia5TvQ7HA+T5aLhPZnDODWSLEURgISkIAEJCABCUhAAhKQQMUElMCqGPWIGsr+TDlcwx3qOF9ncoTz+nyZSYWdsj9w9nCmv5d9vZjjP5cJhcN5z1tYq1H+zkb3ZVLoeIRf/+ONzJep9jgMx9Dt86xxtp/RD/qr7MM0JrIu53rcg4ksG32ICi7R5esixQFscTJr6cUYzTEDUy181bX0eIogAQlIQAISkIAEJCABCZQioGVHKZCMcn7N3ugCkzGTBA+wxirrMalwKu72t8YKGD1Ol78PXf5v9vNC1s8y/ias1SrfxwB2Rx4/YSIizpFwlRpJ3p5mv3/LBNYn6Xh7pZp9XTuTePtjbP80JrLuwAzfkYms7J3o/VEPJ6QPRyfuwP7GeZ12XIc+XAxdJCABCUhAAhKQQN0IaCASkEAjCcTZMWoksUYfazjiZxAnkyEksjiJUvLI4XzM8TWjRIsVpNsLTFz1MNxVTHiE812twevVSnb0IMGpmIcvYUN7CGaD7EvtlbD9TLEHOJa3sR5TxQGEc69tyD78momsuVzPh1SxL69teponeBE7wHECH5jAGqc4nsKmdn+cYIoiAQlIQAJ1I6CBSEACEpCABGpEQAmsGllRmermBnY3+3M/wleSeCVCMcbYBIP4O2b42qjGxT2Hmf6moSRal3+PCY0BJhBCkq6V3RnH66GPvFrhstC4GxOwJjrsCGxuAxXuQXmaa7cFHM/x6McK3I4eYyPVSsiFE++HdXwm13kR3f4b3ONrcboirvMm9quy5Q6fgF2wMxu9ki4x25+OIg5lXBUJSKAMAgopAQlIQAISkIAEJFB+ASWwym9cny04DoFjLuJe1kOC+5k82IbJhPBVL5T9MsNXY3vvRjfC18ouZxItnB8onHcoZvJgbMMI5ysCrkHBCljTnh1bkIwvtZE9x+3o7ezl5azBnpOqlYR9+TAG8ABS/A6r4ZND28Z0X7UiPZrtb8M4HMvnwK8jt1fkuG5AOA9Z5MARwymUBCQgAQlIQAISkIAEJCCBJQoogbVEHj04rECnzYLhsmEfL+UBZ/IAOAKz/D34j4ejY0qJ9tpl3Q0hUdDt+zBJtj/HcDJ37q/lTGEs23OahVJkJ/7Gfu2NDoSjcXhzaaWGHy/YfZiHPQCEX9ubznUSxs+bVSyGcE62n8JxLXI4cWhb6fbdcI+3R+9Vl2/ORNm+KOI3HHv4cYDYTTyFFhwUO6jiSUACEpCABCQgAQlIQAISqKSAElgva2s6eoEEX+FCL7DGLssy4FFI8V2sgG9jpp/Oug7vG30JCauF57I6hUmCM9CFM1DEOXCcx2DnMWGwO6dZKl3s29FIcCCm2H8RzhmVpd6Vqy/hq5EF+xUMIdFyDJtZwJqNYtiTHTmP6+VcDOJsbovfHtqWZvqX4D6219Dw9cTZ/s6hWP7K9lieI70MR2Jd6+MYVCQgAQlIQAISkIAEJCCBIKBakwJj2/mqyaGq09EF2u1F7tTvFT3uqwHzvLo/DIex/hRdfvUi9Wfc+T8Ss/zTnO7E6Z587HgmFn7N6SLz4WqkuJjLh6N7QpxwHqDNATSxZqk4O3M9EuyB+TgDHRbOv4WGuxTsOgxw/IaPcOyPsGapTOT2/n4YDuU0bEvTMAtXcfv77SLb3M8www/hfZshfPVwuk/k9XW4fe7IbfMczncV69VYjcul+B5CLMPbOMhy/TjANcjbjxlfRQISkIAEJCABCUQVUDAJSEAClRZIKt2g2qszgYn4A0f0fdZyFmPwt7Pu9Eo1fJI7/19ncuocTn/I6elMKoTEwodfmQfYiY99kPWtfKxcCQI2F6V0Msonmbi6EeFoJN5o2DLV+pG3sF1ty4TeZzLssAK3q7B9fZB93Oml+knkMI3b3JVowr95/TZev47b5484774APsQa5v0Ab2/A6+UtRXy1vA0ougQkIAEJlCCgRSUgAQlIQAISGIWAElijwNKsixFY03q5k37xYh4p713OVoFJbORNrCuzrsBEQRunIdnFSY0Ux0kY5DgK1o2CPVojva5MN8O5sTpwKRM9b2f9X2UaLbmVHPsavqFjgxUAABAASURBVAL7ZkZaj9vkZE7XYQ3b6HhOK1cSvBMLfzG0cm2qJQlUXEANSkACEpCABCQgAQk0ioASWI2ypss5znb7LxwfYxPlOB8Ww9Zdmc8R3YkUH0GnfR1TbR5vqyxWwJxG/2HdjNvY9zjLfazOqjK8QMqHzodhZF9D5cwqEpCABCQgAQlIQAISkIAEsi6gBFbW11Ct9G9Z/JFd/Q5rD2tDlVEMNiRe/s7Ewmko2MaYYleOYlnN2mkHYgVsRIjfss5mVVm8wN1IcSna7anFP6x7JSABCUhAAhKQgAQkIAEJ1J5AFhJYtaemHr9RYHULiavwK3L/4YNFVpXXClzPm2ejiI8hb8fyuspYBFa2eUz+7YwcvsRE4GUMEY5m40RlSMAwB46jmBz959Bt/ScBCUhAAhKQgAQkIIFsCag3EhizgBJYY6bTgm8QKNidvC8kZx7kVGWhwANMtJzEhMtBTLwcig3s2YV36/+SBNrtT2jGwYzxJTiu5TQc3cZJQ5dwDrWD0GnhCLWGhtDgJSABCUhAAvUtoNFJQAISaEwBJbAac72Xb9R5ux4pdmUDvayNWwzPI8HZrJ9kguUktNtt0CWuwHr2BJOCF2EcDqDx+2B4KG4DNRTNMUCDvbDw1xtrqOPqqgQkIIEqCahZCUhAAhKQgARqTkAJrJpbZTXQ4Sn2XzSjUAM9LVcXr0AOGyHFMeiwG1GwueVqSHEpsL7NRqf9mde2Qj/W57TxSjO2QgF/abyBa8TVFFDbEpCABCQgAQlIQAISqKSAEliV1G6ktta3B9GEVWB4gcOu9693hV99G0CC7+MXyKFgH8dke4hTJa648itW8vYINrJ76W5s8/2sA6xh3XCSyRKjU4MYh3W4vd0Ks3ofK3SRgAQkIAEJSEACEpCABBpXQAmsxl335R/5ZHsSTdiCDf0RhucR/VL1gPPhmMGxHYciVkWH7Y9pSiIgC5eC/REFjGdXvs51NJ3r6AVer6fiHMyjTJdui/XsAV5XkYAEJCABCUhAAhKQgAQkUMcCgBJYdb16MzC48PWuZnyaSYRp7E04yTQnNV4cz3AEV7GeibuwEcKvCurk7OTIWjFHwU5BgesoxfHsXVhnt3Na6yUk4/7GpNzuaLf/1vpg1H8JSEACEpCABCQggQoJqBkJ1LiAElg1vgJrovvr2wso2Nnc4T6Siaxfs8+1+lWnP7Lvp3McRyOPj3BMx2AXK/I+lSwLGBNZnXY619eHUcT+7OpprH+F8Rav1FRxhF+xnIYm7Im8/bWm+q7OSkACEpCABOpAQEOQgAQkIIHqCSiBVT37xms5b5dgHA7lwD/P+jRrLZQn2cnTmHgLfT4Ev8ARKNj5CEkRPqBSYwIbWDip/leRw8FwhHV6JAzhiKbsD8RxHAz7o2BnYbI17i8uZn9NqYcSkMCSBfSoBCQgAQlIQAISGJOAElhjYtNCYxZY3x7kDviFKOKDjHEway9r9orhXCY53sWEwU5oxgnotAvY727oHFeoi0u73c31+SM8hrORIpzwfXsYzsno2H7EZNv7sDxOZZ9/mdE+qlsVFVBjEpCABCQgAQlIQAISaDwBJbAab51nY8Qb2I0YxPlMHqzPDu3Geh9rdUv4FcEmtLMTa2AAR6Dd/oG83YTwFUjeqVJHAi8PZTvrQ6fdgIJdh2XxNd69BrfLDWD4Ha9XtzguRYLw/DgEBfwZq9r86nZIrUtAAhKQgAQkIAEJSEACEqiegBJY1bOv6ZajdH6q9WOKPYaC/ZR1PdyJJjiuZex5nIad9X4mEsKvrfGuKCVlvHDE1zxGe7nujDxybN8QfkVwss3h9Ucx1cLjnE2lYQRCgqhgYd3PQN524nZgyA9tk8fRIGwPoYbtcoC3Y5awjfcxYIgf6m5sN0Gn7cpt8l72Yy70lVXyqEhAAhKQgAQkIAEJSEAC1RDISptKYGVlTagfQDgheqftwB32SXgOK8HweaT4L6e3vVRvJ9NMOB7nNCSiwo4/r75UFp6UOyQAHuH8d7PezvrysrdxuStZd2CibDkUbNJL9WqYpS9F0EQCrxUwKzKR9M2hbSWPZfAC1obhBNYbWW8bqsDtAMJ2+QSn/azDlbC9vsgH72W9Y2hZw228fj3rB5DHskPthISuWZiXd6tIQAISkIAEJCABCdSBgIYgAQlEEFACKwKiQpRBYGvrRd5+zOTB1py+BXlshkexBVt6D3f8v8Tpd1gv5fXLhipwGW9fghxOQ4L9WLdDB+fPG5d9qXbax5gg+DdCoowzq0hgVAIhqfRWewZ5O5b1bawvbVvYnHHeA8chMPwAYVs0bo9vrD/j4ydjAJ/EPG6bHdgMYfss2Du4XV4Hs5TLqkhAAhKQgAQksFgB3SkBCUhAAo0uoARWo28BNTN+c2xng9zRf5T1V6xHsn6GCYBPDdWChemeaLfj0GG/5/QpGOevmfGpozUrYFbktvgoptgvuC1+idfDtri4uhsfPwkb2i3Y3Aa4feooq5pd6eq4BGpUQN2WgAQkIAEJSEACNSygBFYNrzx1XQISkIAEKiug1iQgAQlIQAISkIAEJCCB6ggogVUdd7UqgUYV0LglIAEJSEACEpCABCQgAQlIQAKjFlACa9Rk1V5A7UtAAhKQgAQkIAEJSEACEpCABCRQ/wIa4aICSmAtqqHrEpCABCQgAQlIQAISkIAEJFA/AhqJBCRQNwJKYNXNqtRAJCABCUhAAhKQgAQkEF9AESUgAQlIQAJZEFACKwtrQX2QgAQkIAEJSKCeBTQ2CUhAAhKQgAQkIIESBZTAKhFQi0tAAhKQQCUE1IYEJCABCUhAAhKQgAQk0MgCSmA18trX2BtLQKOVgAQkIAEJSEACEpCABCQgAQnUqIASWKNYcZpVAhKQgAQkIAEJSEACEpCABCQggfoX0AizJ6AEVvbWiXokAQlIQAISkIAEJCABCUig1gXUfwlIQAJRBZTAisqpYBKQgAQkIAEJSEACEogloDgSkIAEJCABCbwsoATWyxKaSkACEpCABCRQfwIakQQkIAEJSEACEpBAXQgogVUXq1GDkIAEJFA+AUWWgAQkIAEJSEACEpCABCRQbQElsKq9BtR+IwhojBKQgAQkIAEJSEACEpCABCQgAQmUIFAjCawSRqhFJSABCUhAAhKQgAQkIAEJSEACEqgRAXVTAosXUAJr8S66VwISkIAEJCABCUhAAhKQQG0KqNcSkIAE6lBACaw6XKkakgQkIAEJSEACEpBAaQJaWgISkIAEJCCBbAkogZWt9aHeSEACEpCABOpFQOOQgAQkIAEJSEACEpBANAElsKJRKpAEJCCB2AKKJwEJSEACEpCABCQgAQlIQAJBQAmsoKBavwIamQQkIAEJSEACEpCABCQgAQlIQAI1L7DUBFbNj1ADkIAEJCABCUhAAhKQgAQkIAEJSGCpAppBAlkWUAIry2tHfZOABCQgAQlIQAISkIAEaklAfZWABCQggTIJKIFVJliFlYAEJCABCUhAAhIYi4CWkYAEJCABCUhAAm8UUALrjSa6RwISkIAEJFDbAuq9BCQgAQlIQAISkIAE6kxACaw6W6EajgQkEEdAUSQgAQlIQAISkIAEJCABCUggOwJKYGVnXdRbTzQeCUhAAhKQgAQkIAEJSEACEpCABOpfoCIjVAKrIsxqRAISkIAEJCABCUhAAhKQgAQkMJyA7peABJYmoATW0oT0uAQkIAEJSEACEpCABCSQfQH1UAISkIAE6lpACay6Xr0anAQkIAEJSEACEhi5gOaUgAQkIAEJSEACWRVQAiura0b9koAEJCCBWhRQnyUgAQlIQAISkIAEJCCBMggogVUGVIWUgARKEdCyEpCABCQgAQlIQAISkIAEJCCB1woogfVaj/q4pVFIQAISkIAEJCABCUhAAhKQgAQkUP8CDTRCJbAaaGVrqBKQgAQkIAEJSEACEpCABCTwWgHdkoAEakNACazaWE/qpQQkIAEJSEACEpCABLIqoH5JQAISkIAEyi6gBFbZidWABCQgAQlIQAISWJqAHpeABCQgAQlIQAISWJKAElhL0tFjEpCABCRQOwLqqQQkIAEJSEACEpCABCRQtwJKYNXtqtXAJDB6AS0hAQlIQAISkIAEJCABCUhAAhLIooASWHHXiqJJQAISkIAEJCABCUhAAhKQgAQkUP8CGmGFBZTAqjC4mpOABCQgAQlIQAISkIAEJCCBIKAqAQlIYOQCSmCN3EpzSkACEpCABCQgAQlIIFsC6o0EJCABCUigQQSUwGqQFa1hSkACEpCABCSweAHdKwEJSEACEpCABCSQfQElsLK/jtRDCUhAAlkXUP8kIAEJSEACEpCABCQgAQmUVUAJrLLyKrgERiqg+SQgAQlIQAISkIAEJCABCUhAAhIYTqB+EljDjVD3S0ACEpCABCQgAQlIQAISkIAEJFA/AhpJQwoogdWQq12DloAEJCABCUhAAhKQgAQaWUBjl4AEJFBrAkpg1doaU38lIAEJSEACEpCABLIgoD5IQAISkIAEJFBBASWwKoitpiQgAQlIQAISWFRA1yUgAQlIQAISkIAEJDAyASWwRuakuSQgAQlkU0C9koAEJCABCUhAAhKQgAQk0AACSmA1wErWEJcsoEclIAEJSEACEpCABCQgAQlIQAISyLZAjARWtkeo3klAAhKQgAQkIAEJSEACEpCABCQQQ0AxJFA1ASWwqkavhiUgAQlIQAISkIAEJCCBxhPQiCUgAQlIYCwCSmCNRU3LSEACEpCABCQgAQlUT0AtS0ACEpCABCTQcAJKYDXcKteAJSABCUhAAoAMJCABCUhAAhKQgAQkUEsCSmDV0tpSXyUggSwJqC8SkIAEJCABCUhAAhKQgAQkUCEBJbAqBK1mFieg+yQgAQlIQAISkIAEJCABCUhAAhKof4HSR6gEVumGiiABCUhAAhKQgAQkIAEJSEACEiivgKJLoMEFlMBq8A1Aw5eABCQgAQlIQAISkECjCGicEpCABCRQuwJKYNXuulPPJSABCUhAAhKQQKUF1J4EJCABCUhAAhKoioASWFVhV6MSkIAEJNC4Ahq5BCQgAQlIQAISkIAEJDBaASWwRium+SUggeoLqAcSkIAEJCABCUhAAhKQgAQk0FACSmA11Op+dbC6JgEJSEACEpCABCQgAQlIQAISkED9C9TLCJXAqpc1qXFIQAISkIAEJCABCUhAAhKQQDkEFFMCEsiAgBJYGVgJ6oIEJCABCUhAAhKQgATqW0Cjk4AEJCABCZQmoARWaX5aWgISkIAEJCABCVRGQK1IQAISkIAEJCCBBhZQAquBV76GLgEJSKDRBDReCUhAAhKQgAQkIAEJSKA2BZTAqs31pl5LoFoCalcCEpCABCQgAQlIQAISkIAEJFBxASWwKk6uBiUgAQlIQAISkIAEJCABCUhAAhKofwGNMKaAElgxNRVLAhKQgAQkIAEJSEACEpCABOJP1JCpAAAK5ElEQVQJKJIEJCCBlwSUwHoJQhMJSEACEpCABCQgAQnUo4DGJAEJSEACEqgHASWw6mEtagwSkIAEJCABCZRTQLElIAEJSEACEpCABKosoARWlVeAmpeABCTQGAIapQQkIAEJSEACEpCABCQggbELKIE1djstKYHKCqg1CUhAAhKQgAQkIAEJSEACEpBAgwo0VAKrQdexhi0BCUhAAhKQgAQkIAEJSEACEmgoAQ22/gSUwKq/daoRSUACEpCABCQgAQlIQAISKFVAy0tAAhLIlIASWJlaHeqMBCQgAQlIQAISkED9CGgkEpCABCQgAQnEElACK5ak4khAAhKQgAQkEF9AESUgAQlIQAISkIAEJEABJbCIoCIBCUigngU0NglIQAISkIAEJCABCUhAArUuoARWra9B9b8SAmpDAhKQgAQkIAEJSEACEpCABCQggSoKVCiBVcURqmkJSEACEpCABCQgAQlIQAISkIAEKiSgZiRQHgElsMrjqqgSkIAEJCABCUhAAhKQgATGJqClJCABCUjgDQJKYL2BRHdIQAISkIAEJCABCdS6gPovAQlIQAISkEB9CSiBVV/rU6ORgAQkIAEJxBJQHAlIQAISkIAEJCABCWRGQAmszKwKdUQCEqg/AY1IAhKQgAQkIAEJSEACEpCABGIIKIEVQ1ExyiegyBKQgAQkIAEJSEACEpCABCQgAQnUv8BSRqgE1lKA9LAEJCABCUhAAhKQgAQkIAEJSKAWBNRHCdSzgBJY9bx2NTYJSEACEpCABCQgAQlIYDQCmlcCEpCABDIqoARWRleMuiUBCUhAAhKQgARqU0C9loAEJCABCUhAAvEFlMCKb6qIEpCABCQggdIEtLQEJCABCUhAAhKQgAQk8BoBJbBew6EbEpBAvQhoHBKQgAQkIAEJSEACEpCABCRQPwJKYNXPuow9EsWTgAQkIAEJSEACEpCABCQgAQlIoP4FamKESmDVxGpSJyUgAQlIQAISkIAEJCABCUgguwLqmQQkUG4BJbDKLaz4EpCABCQgAQlIQAISkMDSBTSHBCQgAQlIYAkCSmAtAUcPSUACEpCABCQggVoSUF8lIAEJSEACEpBAvQoogVWva1bjkoAEJCCBsQhoGQlIQAISkIAEJCABCUgggwJKYGVwpahLEqhtAfVeAhKQgAQkIAEJSEACEpCABCQQV0AJrLiecaIpigQkIAEJSEACEpCABCQgAQlIQAL1L6ARjlhACawRU2lGCUhAAhKQgAQkIAEJSEACEsiagPojAQk0hoASWI2xnjVKCUhAAhKQgAQkIAEJDCeg+yUgAQlIQAKZF1ACK/OrSB2UgAQkIAEJSCD7AuqhBCQgAQlIQAISkEA5BZTAKqeuYktAAhKQwMgFNKcEJCABCUhAAhKQgAQkIIFhBJTAGgZGd0ugFgXUZwlIQAISkIAEJCABCUhAAhKQQD0KKIH12rWqWxKQgAQkIAEJSEACEpCABCQgAQnUv4BGWGMCSmDV2ApTdyUgAQlIQAISkIAEJCABCWRDQL2QgAQkUDkBJbAqZ62WJCABCUhAAhKQgAQk8FoB3ZKABCQgAQlIYEQCSmCNiEkzSUACEpCABCSQVQH1SwISkIAEJCABCUig/gWUwKr/dawRSkACEliagB6XgAQkIAEJSEACEpCABCSQaQElsDK9etS52hFQTyUgAQlIQAISkIAEJCABCUhAAhIol0B2EljlGqHiSkACEpCABCQgAQlIQAISkIAEJJAdAfVEAmMQUAJrDGhaRAISkIAEJCABCUhAAhKQQDUF1LYEJCCBRhNQAqvR1rjGKwEJSEACEpCABCQQBFQlIAEJSEACEqghASWwamhlqasSkIAEJCCBbAmoNxKQgAQkIAEJSEACEqiMgBJYlXFWKxKQgAQWL6B7JSABCUhAAhKQgAQkIAEJSGCpAkpgLZVIM2RdQP2TgAQkIAEJSEACEpCABCQgAQlIoL4FQgKrvkeo0UlAAhKQgAQkIAEJSEACEpCABCQQBFQlULMCSmDV7KpTxyUgAQlIQAISkIAEJCCByguoRQlIQAISqIaAEljVUFebEpCABCQgAQlIoJEFNHYJSEACEpCABCQwSgElsEYJptklIAEJSEACWRBQHyQgAQlIQAISkIAEJNBIAkpgNdLa1lglIIFFBXRdAhKQgAQkIAEJSEACEpCABGpEQAmsGllR2eymeiUBCUhAAhKQgAQkIAEJSEACEpBA/QtUf4RKYFV/HagHEpCABCQgAQlIQAISkIAEJFDvAhqfBCRQkoASWCXxaWEJSEACEpCABCQgAQlIoFICakcCEpCABBpXQAmsxl33GrkEJCABCUhAAo0noBFLQAISkIAEJCCBmhRQAqsmV5s6LQEJSEAC1RNQyxKQgAQkIAEJSEACEpBApQWUwKq0uNqTgAQAGUhAAhKQgAQkIAEJSEACEpCABEYhoATWKLCyNKv6IgEJSEACEpCABCQgAQlIQAISkED9C2iECwWUwFrooP8lIAEJSEACEpCABCQgAQlIoD4FNCoJSKAOBJTAqoOVqCFIQAISkIAEJCABCUigvAKKLgEJSEACEqiugBJY1fVX6xKQgAQkIAEJNIqAxikBCUhAAhKQgAQkMGYBJbDGTKcFJSABCUig0gJqTwISkIAEJCABCUhAAhJoTAElsBpzvWvUjSugkUtAAhKQgAQkIAEJSEACEpCABGpOQAmsUa8yLSABCUhAAhKQgAQkIAEJSEACEpBA/QtohFkSUAIrS2tDfZGABCQgAQlIQAISkIAEJFBPAhqLBCQggUgCSmBFglQYCUhAAhKQgAQkIAEJlENAMSUgAQlIQAISAJTA0lYgAQlIQAISkEC9C2h8EpCABCQgAQlIQAI1LqAEVo2vQHVfAhKQQGUE1IoEJCABCUhAAhKQgAQkIIHqCSiBVT17tdxoAhqvBCQgAQlIQAISkIAEJCABCUhAAmMSqKkE1phGqIUkIAEJSEACEpCABCQgAQlIQAISqCkBdVYCrxdQAuv1IrotAQlIQAISkIAEJCABCUig9gU0AglIQAJ1JaAEVl2tTg1GAhKQgAQkIAEJSCCegCJJQAISkIAEJJAVASWwsrIm1A8JSEACEpBAPQpoTBKQgAQkIAEJSEACEoggoARWBESFkIAEJFBOAcWWgAQkIAEJSEACEpCABCTQ6AJKYDX6FtAY49coJSABCUhAAhKQgAQkIAEJSEACEqhhgREmsGp4hOq6BCQgAQlIQAISkIAEJCABCUhAAiMU0GwSyKaAEljZXC/qlQQkIAEJSEACEpCABCRQqwLqtwQkIAEJRBdQAis6qQJKQAISkIAEJCABCZQqoOUlIAEJSEACEpDAogJKYC2qoesSkIAEJCCB+hHQSCQgAQlIQAISkIAEJFA3Akpg1c2q1EAkIIH4AoooAQlIQAISkIAEJCABCUhAAlkQUAIrC2uhnvugsUlAAhKQgAQkIAEJSEACEpCABCRQ/wJlHqESWGUGVngJSEACEpCABCQgAQlIQAISkMBIBDSPBCQwvIASWMPb6BEJSEACEpCABCQgAQlIoLYE1FsJSEACEqhTASWw6nTFalgSkIAEJCABCUhgbAJaSgISkIAEJCABCWRPQAms7K0T9UgCEpCABGpdQP2XgAQkIAEJSEACEpCABKIKKIEVlVPBJCCBWAKKIwEJSEACEpCABCQgAQlIQAISeFng/wEAAP//BY4P1QAAAAZJREFUAwBCVPXZeg4CPAAAAABJRU5ErkJggg==;imageBackground=default;imageBorder=light-dark(#9267a2, #ededed);" vertex="1" parent="nlxBfLqZfcz5ABgJfBdi-10">
          <mxGeometry x="110" y="-10" width="71.1" height="40" as="geometry" />
        </mxCell>
        <mxCell id="nlxBfLqZfcz5ABgJfBdi-20" value="" style="shape=image;verticalLabelPosition=bottom;labelBackgroundColor=default;verticalAlign=top;aspect=fixed;imageAspect=0;image=data:image/png,iVBORw0KGgoAAAANSUhEUgAAAoAAAAFoCAYAAADHMkpRAAAAAXNSR0IArs4c6QAAAERlWElmTU0AKgAAAAgAAYdpAAQAAAABAAAAGgAAAAAAA6ABAAMAAAABAAEAAKACAAQAAAABAAACgKADAAQAAAABAAABaAAAAACeojBPAABAAElEQVR4Ae3dB3xUVfYH8PNmJr0nhBRIQoCEXkJCEaSDioodFLEsuurfsqu76zZ397/u3626rru69rVhBTsiSkd6CSVAQkloSUglpPeZef9zx01IIJnMTGaSV37vIyaZ9959537vZDjc9+69RNggAAEIQAACEIAABCAAAQhAAAIQgAAEIAABCEAAAhCAAAQgAAEIQAACEIAABCAAAQhAAAIQgAAEIAABCEAAAhCAAAQgAAEIQAACEIAABCAAAQhAAAIQgAAEIAABCEAAAhCAAAQgAAEIQAACEIAABCAAAQhAAAIQgAAEPCIgeaRUFAoBCEBAQQKyLBuKi4v9/Jr9fBp9jN7VpVXerz25NcRHtvS1GuQgyWrwtUqyl5GoyUpUTzJV1UvGkif+eW212WRt8mkwN1UbQhr696dGSZL4EGwQgAAE1C2ABFDd7YfoIQCBTgSys7N9yk/QYFmm/hs/OTAgP6dyNCdvg0iWE4mkWJIosJNTW16WORGsJJILSJJO8Q9HRoyPPZI2e3CuZJVO+SU05Y0YMaKp5WB8hQAEIKAmASSAamotxAoBCHQp8NGzW5ItFpqRuSNvfNX5ek765HhO+PrwiaYuT+7qAJmaSJJLZFk6GZkQkpk0InJXULDXuvkPTj7b1anYDwEIQEBJAkgAldQaiAUCEHBagG/vGnfsyA9Z8+rONMlMt5fmV8+UyBrKSV8g9/IZnC7Q8RMs3JtYI5mk4j79QtZYybps8e9mHxw8OLyaexplx4vBkRCAAAR6XgAJYM+b44oQgIAbBDjxM2VsPTnws3+mTy8/V/NDTvbGcbHd7+VzPbZmvmW8MX5Yn7dmLxi1I2VWYh6eF3QdE2dCAAKeFUAC6FlflA4BCHhAYNWb+yJPZRbfcWTv2Rv5Q2w89/b5euAyrhTJPX9yjSxbOQEcuHzMuNAP0+an1blSEM6BAAQg4EkBJICe1EXZEICAWwXSvyrwX7Nqx5zSnKpfmputo7hwMZBDiZ9jPPZEqvDxN24Ljfd/9rafjd2RlJTU6FYMFAYBCECgGwJK/ODsRnVwKgQgoEWBgvQC/5tvL78sNWbnjzndu4I/uJTS49clN2eCdRzvpzlNs597fmlCVlKShESwSzUcAAEIeFoACaCnhVE+BCDgsoCYv+/zV9KHH9x6ZvG5s5WL+QMrzuXCevlE7hHMHDAs8qPEUdEf3PzQ+JO9HA4uDwEI6FwACaDO3wCoPgSUKrB8eaZ39uojDxaeqLyXP6iSOE4f/qPmzywxMriOE8GjiUPD/jI9JW5F2gNpzUr1R1wQgIC2BdT8YartlkHtIKBTgWPpBX12rT0+c/e3OY9zvjdeklSd9HXYinxbuEmMGL7i7tH/Sp4yYOvQoZHVHR6IFyEAAQh4SAAJoIdgUSwEIOCcwMaNsqn+TPrEVW8eeoin0buK075w50pQ5dHF/v6+H02/dcQ78+4ac5CnjbGoshYIGgIQUJ0AEkDVNRkChoD2BF597N2YggLfR84XV93MiV8y11A/n00yNcsSZUUnhH4wKsr08vVPX4/eQO29xVEjCChOQD8fsoqjR0AQ0LeAGOBx5si5qHf/8t21JbkVv+Ocrx+nfeIzSY+fS+L5QCubHBmWFveHOfeP2pScHFOGFUX0/TuC2kPAkwJ6/KD1pCfKhgAEHBBYvTojoGhPxbV71+bcwb1fc/gU1Uzr4kD1untIJT8j+M30W4Yv7TNy0tqZM3mBO2wQgAAE3CyABNDNoCgOAhCwL/D2X1eMOPRd+c8a683z+AMoio/G59ClZNwZSKeDIgI+HjbT/5W7fnTdqUsPwSsQgAAEXBfAB6/rdjgTAhBwUICzGePh7XkD3v7j+nsaG8x3S1ZDNKd9RgdP1+dhMo8TJrKQQc7z9Te99PgL897tm9i3FOsL6/PtgFpDwN0CSADdLYryIACBdgKbP82K2flt1ry87PIHiQxp7XbiBwcFuD+Q5NVDx/d7e/T0/mumXju63METcRgEIACBDgWQAHbIghchAAF3CDz3s9Xzcvbn/Y/BapjKCUwol4nPHNdhRY9gicVo3ZQ0buTTP3nmsn2uF4UzIQABvQvgw1jv7wDUHwJuFsjOln1ytu8b8sWbxx/2kusX8Jx+IZz2Gdx8GT0XZ7FYjIVGH5/37/jJ2DcnXD30JN8WxkARPb8jUHcIuCCABNAFNJwCAQhcKsDP+UnpX2cnvv3s1jsMsvwDPmIA/8FnDCN4aBP3hY8Ghvk/f8N9aSsnXZ2U76HroFgIQECDAvhw1mCjokoQ6GmB0qOlQa8/891NhSfO38HP+U3nvM+rp2PQ7/XkGpKsGwaOiXrnseeuW8m9gU36tUDNIQABRwWQADoqheMgAIFLBPLyZL+VL6welX+i7KnKsvqJkkxBJEm43XuJlIdfkGUr9wZWRMQErBoyIe6vi+ZPyZGSpEYPXxXFQwACKhZAAqjixkPoEOgtgY0bN5oqjvqM2/hx1u2yRbqbb/SKAR7Yel9AzB9YYDDQmzc+kLZ85m1jDvd+SIgAAhBQogASQCW2CmKCgIIFdm88Fb3imXV3VtYa7uLEbyiHalJwuHoNrZlkOb1vjOmNm348+/MRk+PO6xUC9YYABDoWQALYsQtehQAELhIoKioKePNX26+sLKt9tK6qKZWTv4CLDsGPShL4fiLpyuAIv53+oQFPP/HGddvwfKCSGgixQKB3BZAA9q4/rg4BxQtkZmYGrn3t9LgTB4p+xEnfjRwwVvBQfKtdFKAsN/Ozma+lzUlaOvnWmIykpCQ8H3gREX6EgN4EkADqrcVRXwg4IfDZvzaO3Loxc0lzue9NPLI3nhNADPBwwk9Rh8q8rBzJx3wiaz+dt3D6q7MXjj2rqPgQDAQg0KMCSAB7lBsXg4A6BHauyg7esjLr1ryjZY/JFnkQJ34+6ogcUXYpIFODt58pPTYx9PlF947/OjYttq7Lc3AABCCgOQEkgJprUlQIAq4LHNxSEfbqXz6dK9XRT/nDQazbi9u9rnMq/UyxesimoHjfP199/xXpl18eWa30gBEfBCDgPgEkgO6zREkQUK2AnCl7P/70/kklR48vDvWtXcQ9fkGqrQwCd06Ap40pro5cljKz3/u/+vu4/TxQxOpcATgaAhBQowASQDW2GmKGgBsF3nt+Z3B+RsHvzp44zwM8+Dk/Iqzi4UZflRQlBoWcGjCi7+vJV8W8Mn9+Gm4Lq6ThECYEXBVAAuiqHM6DgIoFxLq9mz472G/Vf/bPr68zP869Pon/rQ4+E1Tcrt0MnRcTsa0ocsg/0Ofvt/1i0ppx05JKu1kmTocABBQqgA97hTYMwoKApwQyMooCcvflz13zTsYDRFZet9fg56lroVy1Csg13v5eX81dPOb1IZNDdiQmJjaotSaIGwIQ6FgACWDHLngVApoUePmJ1SOLTpQ/WlZcPY9ndOmnyUqiUu4RkMkqS/KpmITQFTFJQc/d89sr89xTMEqBAASUIIAEUAmtgBgg4EEBvt3r9cFvP4vN2FuxpL5BfoSf8xPr9or5/PD770F3jRTNt4V5/kCZSvz9rX+cfHXCl9c9MreYHxngOQWxQQACahbAXwBqbj3EDoEuBHZ+eSgqM6Pkxv3rTv1AMkipfDjW7e3CDLs7FWiwyNatM24avnTI0EGfjbkyurbTI7EDAhBQvAASQMU3EQKEgPMCGzfKppOb1089tDn3JxaL9XLu7AtzvhScAYGOBORz/sHeK5LHxb18z+9n7MO0MR0Z4TUIKF8ACaDy2wgRQsBhAb7d6/3337w8tGh/wKNN9eb5JMsRvAYslm9zWBAHOiQgyxZ+X5X4B3h9lDTP+K97H769gBPBZofOxUEQgIAiBJAAKqIZEAQEuifAiZ9h88ojg7Z+cuS6wjMVj/Ivdlz3SsTZEHBMgB8SzEgeF/PqmGnJK6ffMBgDRRxjw1EQ6HUBJIC93gQIAALdE9j45EZTVk3jkqw9Z+/gX+g0SSL/7pWIsyHgnIAsUxX/2ZE6a+C/A4fP+GbhQgwScU4QR0Og5wWQAPa8Oa4IAbcIfPWV7L/02b3j+psOPW42W2dxoYH8B7/TbtFFIS4IyDxa+JyPn2lVZmXav55fOjwrKUkSK4xggwAEFCiAvywU2CgICQL2BGQe4LGjPmfU+09vvpcf7ruNj42wdzz2QaAXBIp8An1fWfDYpA8nzB54AtPG9EIL4JIQ6EIACWAXQNgNASUJLH9xd3T23tw7i05U3UqSPI5jw++wkhoIsVwQkKmZuwR3DBwV9eHQSZEfXH3HpKoLO/EdBCDQ2wL4y6O3WwDXh0AXAmLdXson338/9+3c7AOFT1it8gj+xQ3g0/D724Uddve6AD8aSFUmk3HPxDmJv7/tl9PEtDFYVq7XmwUBQAB/geA9AAFFC6SnF/if3Jk7ZfMnh+6VZMP1nPL5KjpgBAeBzgRkqrSSddn196Ut9eo3dtfMmZK5s0PxOgQg4HkB9CB43hhXgIBLAl++tHXIlq9yflhfb7mFn/VL4ELw++qSJE5SkAB3aNOxsCi/tyZNi1p2zSOzzygoNoQCAV0J4C8UXTU3KqsGgRMnzoe8+8S3i8uKau4lMo7gtM9HDXEjRgg4JCDGChPVSWTO6NM/7MXfvbfgE74t3OTQuTgIAhBwmwASQLdRoiAIdE/gyK78iJXv7J+cm1n8W15lYUL3SsPZEFCJgCyvGDVzwAszr0rYnTQpCQNFVNJsCFP9AkgA1d+GqIEGBN7/06aZu9fk3GUlupbv9PLybbjdq4FmRRUcEbD1CMpnJVn6cvadI167/r5JBx05DcdAAALdE0AC2D0/nA2BbglsW53Td+Wbm/+nulj+Af8yiuXbTN0qECdDQL0CZjJYMkNi/N9Y8pPLlg5KG1Sp3qogcggoXwAJoPLbCBFqUCAr/XTMSz9bcws/4/cYL902UINVRJUg4LIAPyR4ODjU+6m7fzt7w5C02HMuF4QTIQCBTgWQAHZKgx0QcL/Aiy+WBDYdTp9zMrPoTjLI1/EV0OPnfmaUqAEBTgJryGr4dMzlce+HeM/+buGTGCiigWZFFRQkgARQQY2BULQt8O5ftg/++pOi3/YJLJ/Lv3jR/JQfz+6CDQIQsCNg5udi88vqoj6/88G+T1+zZEKRnWOxCwIQcEIACaATWDgUAs4K8KRnxvXLMgatenP/ouZm60NklfvwCF8kfs5C4nhdC/A4EbPBIOV6eRmeX/T4tM/T5g7K1TUIKg8BNwggAXQDIoqAQEcC2ZsLI5c+/931FaW19/P+FO7xw+3ejqDwGgQcFeD1hXkWwc3xQyJevOWh6RsTU8IqHD0Vx0EAAu0FkAC298BPEOi2APf6mf7zuw3Tco+VPlRRUjOLe/zCul0oCoAABFoEuENQLuobH7Y2Nj7ohXv/dEV6yw58hQAEHBdAAui4FY6EgF2BU6dO+a557fiA44eKf95U3cwjfCkQz/nZJcNOCLguIJOFf7+q/YK8Xxg3d+A7t06enCulSc2uF4gzIaAvASSA+mpv1NZDAl+9tTNp09LdCxqt/kt4DueBSPw8BI1iIXCxACeC3CV4yI9q37z113M/SbtqeOHFh+BnCEDgUgEkgJea4BUIOCyQnl7gn/ntsfl71598hBe5T+UT/Rw+GQdCAALuFKjxDfBaP2pS/9cuuy1ufVJSUqM7C0dZENCaABJArbUo6tMjAnl5eX7vPLp9fGVD4+MNtU1TuccvhJdww+9Tj+jjIhDoRECWedYYKg8I8fm2f1TIXx7+xfwcKUlCItgJF17WtwD+wtJ3+6P2TgrwAA+vN/6xYuShNYW3Whu9HubTA50sAodDAAI9ISBTgSmk/uWJ84d8eusP5xyTJEkkh9ggAIH/CiABxFsBAg4KrHz/YNjpfQUPHt2bv4Cf8xvBp3k5eCoOgwAEekeggXvmD6TMGPDW6NTg99Lmp9X1Thi4KgSUJ4AEUHltgogUJrB169GgTS8dn1VWUvZzc7NVzOfnr7AQEQ4EIGBPQKZKHz+vrWHhIc8u+en4XbFpsUgE7Xlhny4EkADqoplRSVcExHN+pw/UTFz27PZHJJnmIfFzRRHnQEBRAtUmb9NHd/9m+ssBsQlZSXg+UFGNg2B6VgAJYM9642oqEODn/KRlL+0cmrPr7F1FZyoW8rNDA1UQNkKEAAQcEfh+oMjhAaP6Lo8dFr100cMT8hw5DcdAQGsCSAC11qKoj8sCIvFb+dpev0M7T99dcLLyEUmSOfGTfLhA/J64rIoTIaBIAZlIrpNJOp4wJPIPU2anrLlsQf8G/scev44NAvoQwF9s+mhn1LILgczteeEHt+fO2rbyyI95gMdkPtzYxSnYDQEIaEOggbO+dVcvSXlp7Ijo7/B8oDYaFbXoWgAJYNdGOELDAvJy2fjVuV3jN3ya9aDFLF/NfX19NFxdVA0CEOhMQKai4HDf9ybMHfTudQ9OPIxpYzqDwutaEUACqJWWRD2cFnj90Q+i8s5KD5eV1i40kDSYkz/0+jmtiBMgoCEBmZr4EcFjUXGh74xN8n15/pPzMVpYQ82LqrQXQALY3gM/aVyAn/MzHNufF/3Zi+lzC06U/4l/AfppvMqoHgQg4IIA3xbeP3xS3F9m3zJy45C02HMuFIFTIKBoASSAim4eBOdOAflJ2fCu6btr9qw7fo9Mxrn85g9wZ/koCwIQ0JYADxIplyTzSk4CX7nh4cnbtVU71EbvAkgA9f4O0En9ty/PDF/xzvbHamsNPyCZe/0kMuik6qgmBCDQPQGLLFuOhUd4vXL7Ty97e+jlQ6u7VxzOhoAyBJAAKqMdEIWHBNLTZa+HFxyeMSlx9+8tVnkij/A1eehSKBYCENCogEw8RxSR2WCQVu84O+MPu44O3IdBIhptbB1VCwmgjhpbb1VNTy/w//j/1i2urWz6X/6w7q+3+qO+EICA+wWsVktWdHzIb277/bhvkpKSGt1/BZQIgZ4RwG2wnnHGVXpYIDMzL3zF01t+UVvZ/Eckfz2Mj8tBQMMCBoNxWFFezXPLnjp8X0FBAdYF13Bba71q6AHUegvrsH7ZGfn9X/n52j82NVoXcfW9+Hk/vM91+D5AlSHgMQG+J8xlNwQEef/7Z29d9VRkZCSeC/QYNgr2lAB6AD0li3J7RSBrX0HC67/Z+NemJuvdnPZ5I/nrlWbARSGgbQHxj0qJ/Gprmn76ys82/+ZUZkm0tiuM2mlRAAmgFltVp3U6ui83dtnT3/1vXXXTAp0SoNoQgEDPChiLcise+uDZrY+dOlUe2rOXxtUg0D0B3Brrnh/OVohATkZR39d+vebP9bXNd/C/zH0UEhbCgAAE9CAgU51/sM/zP/zH4ieTkiQMDNFDm2ugjkgANdCIeq9Cdna2zys/3vZ/TXWWxzn5Q6+23t8QqD8EekfAEhET8D8Lfnvr0hEjpKbeCQFXhYDjAvjL0nErHKlAAbG02/tP7F/UVGe+H8mfAhsIIUFAPwLGcwU1v/7yb19dwZ9L6FzRT7urtqZIAFXbdAhcfMh+/db+WedKqn9BkhQCEQhAAAK9KcAjQwYUnil9Yvfq46N7Mw5cGwKOCCABdEQJxyhSYM27BwesWXrgF5JEwzhA/Itbka2EoCCgIwHxCIpEl7331y2/Prr1aJCOao6qqlDAqMKYETIEbAKR1eN/abXS7fwD3sd4T0AAAsoRkKXkwtOVJ9cd+PiAcoJCJBBoL4AewPYe+EklAu//ZUuquZnu53C9VBIywoQABPQiwHOQFp2t/clXb6UP1UuVUU/1CSABVF+b6T7iVcv3RW5be+wpvtUSpnsMAEAAAooUMDdZhn773v6f7NyZHazIABGU7gWQAOr+LaAuADHq98iWwmuMVmk8R47n/tTVfIgWAnoS8DKYjVcdWHFmop4qjbqqRwAJoHraCpGywOE9Bf1OHSpayCtxhgMEAhCAgLIF5P6ZO87cWVRUFKDsOBGdHgXw8LweW13FdfbJGXqLTIZHue8P710VtyNCh4AuBMSKwUTDj+48u3bjwU9zdVFnVFI1AugBVE1TIdD0V9O9zLJRDPwwQQMCEICASgS8airMD4jHV1QSL8LUiQDekDppaC1Uc9Pe0on8z+lULdQFdYAABPQjUFfdNG3pn7eM1E+NUVM1CCABVEMrIUbifz2bGhvrH2AK9P7h/QABCKhLQKLIuuq6hfw5hkdX1NVymo4WCaCmm1c7lfvq9T1DCs+Up2mnRqgJBCCgFwG+c+GbuSPvsu2rjvTXS51RT+ULIAFUfhshQhawyNIU/hIDDAhAAAKqFJAMw3ilOLFsJTYIKEIACaAimgFB2BPI5olUN31ycBL/KxoTqtqDwj4IQECxAvz5Fb38X9smyZmyt2KDRGC6EkACqKvmVmdlm8zecdZmeTRHz5+h2CAAAQioUkCyNFmnFIZV4x+yqmw+7QWNBFB7baq5Gn23bCvf+pUGa65iqBAEIKAzAUPKxtfWIgHUWasrtbpIAJXaMojLJiBGzR09XCt6//ChifcEBCCgdoHwrIyGUWqvBOLXhgASQG20o5ZrYSKrScz9h9u/Wm5l1A0C+hDgzzFpkj6qiloqXQAJoNJbCPEZrRINAQMEIAABLQhYeWk4LdQDdVC/ABJA9behpmtQfrLcSyY5WdOVROUgAAHdCMiydRg/2oI7GrppceVWFAmgctsGkbHA63/ZFMtv0iBgQAACENCCQE1FQ+h//ry+rxbqgjqoWwAJoLrbT/PR8+0STP6s+VZGBSGgIwGZjCaLjARQR02u1KoiAVRqyyCu7wWsSADxVoAABDQkwMuBmK2GSA3VCFVRqQASQJU2nG7CluQQ3dQVFYUABDQvIJNklEjGtFaab2nlVxAJoPLbSN8RyuSnbwDUHgIQ0JIA/6UrGazko6U6oS7qFEACqM52003UEhnxQamb1kZFIaAPAdlgwOeaPppa0bVEAqjo5kFwJMl4j+JtAAEIaElATAaNzzUttahK64I3oUobDmFDAAIQgAAEIAABVwWQALoqh/MgAAEIQAACEICASgWQAKq04RA2BCAAAQhAAAIQcFUACaCrcjgPAhCAAAQgAAEIqFQACaBKGw5hQwACEIAABCAAAVcFkAC6KofzIAABCEAAAhCAgEoFTCqNG2FDAAJOChhNBvIN8OryLNkqU31tM4mvSti8fIzk7Wv/o6qxrpnMzbxytIubozYuFu/SaeYmCzXWmzs918ffRCYvY6f7lbxDvLdEm1ksyniPKdkKsUHAUwL2P1U9dVWUCwEI9LhAXHIEXXtvapfXbeC/mLeuOEJH9xR0eaynDzDwolnjZg2k8XMGdXqp5mYLffdZFh3dfbbTY7raET+0D11111gyGpVzUyRrdz5tWHa4w9B9/L1o2k3DaEhKbIf7lf5i1fk6WvfRISo4Ua70UBEfBDQrgARQs02LikGgvUBgiC8lj+s6YZBlmUSCUVZYQ6X5Ve0L6eGfJINEfWKD7Mbd1GimA9+d7lZkQaG+lDQ2RlE9aueLazqtk+ixjBkQZtel05MVsKOssJr8g44rIBKEAAH9Cijnn7v6bQPUHAKKEpAkiQaPiaYp1w4ho4kXLcAGAQhAAAKaE0ACqLkmRYUg0H0BcSt00tXJNGh0dPcLQwkQgAAEIKA4ASSAimsSBAQBZQj4B/nYnhkMjfRXRkCIAgIQgAAE3CaABNBtlCgIAtoT6Dc4nGYuGGF7JlB7tUONIAABCOhXAAmgftseNYdAlwJe3iZKmTnQNtiAHw3EBgEIQAACGhHAKGCNNCSqAQFPCYRE+NMVi8dQ7tFSqjxX56nLKL7cxvpmOnmomKrL63skVnGtzjYLT30jplA5Euz61DctZRt5qp1oHlEcHO7X8lKHX+trG6n4TCVZ3TA/ZGVZHTXUNHV4HbwIAQj0jAASwJ5xxlUgoFoBMSo4gefJm7t4NH3x0u5uTbisWgQOvK66kda8n0EnDnaemPVU/cQE0es+PGj7091rBgT70MKfTqaU6Yl2izqbc55e+806auBJwrFBAALqF8AtYPW3IWoAgR4RGDdjIA2f2L9HroWLQAACEICAZwWQAHrWF6VDQDUC4taeWKJLTATd0SZ6iqbfPIKi4kM62o3XIAABCEBARQJIAFXUWAgVAp4UyD9+jk5mFneaAIpVOQaNjuIlyIaTjx+eHvFkW6BsCEAAAp4WQALoaWGUDwGVCDQ3WWjz51nU1GDuNGKDwUBpswfS0PH9Oj0GOyAAAQhAQPkCSACV30aIEAI9IuDlbaSCk+V0cGtup72AIhC/QB+66q6xFNTFqNEeCRoXgQAEIAABlwSQALrEhpMgoD0BL18TGXjE74blh6issMZuBcW0Idfem4oJou0qYScEIAAB5QogAVRu2yAyCPSogIl7AA28BvC5s9W0f9NJnu7F0un1xVrBIyb1p1FT4kk8G4gNAhCAAATUJYAEUF3thWgh4DEBseqH0STZngHM2HKGE8Equ9cKCvOjaTcOo/CoQLvHYScEIAABCChPAAmg8toEEUGgVwR8+Baw0WS0XTv36Dna+W02NdvpBfx+guhIuuaeFDJ54aOkVxoNF4UABCDgogA+tV2Ew2kQ0JqAgXv/2t7O3flNNhWdLrdbTZEEjpk2gEZdHm/3OOyEAAQgAAFlCSABVFZ7IBoI9JqAiXv/DLwubMtWV9VImz7OJIu582cBxbEmLyPNuHkkrycb2nIqvkIAAhCAgMIFkAAqvIEQHgR6SkAkf8aLBnRk7cqnA9+dJrFKSGeb6AWM57WCZy4YQf7B3p0dhtchAAEIQEBBAkgAFdQYCAUCvSkgEjkvX692IdRyL+Cu1dlUXmx/WhgxKjhlRiKNmTqg3fn4AQIQgAAElCmABFCZ7YKoINArAl7el34knDxUQkd25/OtYKvdmHz9vWnu4jEUEuFn9zjshAAEIACB3he49NO+92NCBBCAQC8JiKlgLt7E0nDrlx2msiL708KI8yKiA+naH/IE0Vgr+GJG/AwBCEBAUQJIABXVHAgGAr0rYOqgB1BEVFZYTes+PERivWB7m7iNPHJyPKXNHcRTyuDjxZ4V9kEAAhDoTQF8QvemPq4NAYUJtMwD2FFYh7bm0rG9Zzva1e41/yAfmnLtEIpOCGn3On6AAAQgAAHlCCABVE5bIBII9LqArdfuwkww7eIRA0I2f36EznFvoCzbHxUcOyicZt82irx8vp9Yul1B+AECEIAABHpdAAlgrzcBAoCAcgQMF00Dc3Fk2QcKKX3tCTJ3cSvYYDBQ6uxBlDprIPFdYWwQgAAEIKAwASSACmsQhAOB3hQwedvvsbM0W2nHN8ep4JT9FUJEHcTzgDN4bsB+3BuIDQIQgAAElCVw6ZA/ZcWHaCAAgR4UED2AosOu8xu8ROVFNbR66QFa8uQs8uoiYewbF0rTbh5OX76yh2orG3uwJu6/VECIL93w4ASqr2lyf+FtSjx9pJTWvp9BzY32B9y0OQXfQgACEHBaAAmg02Q4AQLaFRDrATuyHU0/S1u+PELTbhhmWwqus3NMPBI4ZXoi5R8vo60rjpLVYi+17KwUZbzu7WOihKGRHg9GzLdo4Im1iZAAehwbF4CAjgVwC1jHjY+qQ+BiAbGuryObmW8F71x1nPKOn7M7IESU5ePnRTNuGUFR8S6MCuZ8UbY//7Qj4eIYCEAAAhC4SAAJ4EUg+BECEHBMoCS3krZ+ddShW7t9YoPpyjtT7PYWdnRVsQax2YyesI5s8BoEIACB7gggAeyOHs6FgI4FRHImRgTvXX+CewG7hhgxqR9NvXGo8xNEO1B211fHERCAAAQg0FYACWBbDXwPAQg4JSBuz25YfpiKciu6PM/Hz5smzUumuCF9ujwWB0AAAhCAgGcFkAB61helQ0DzAuWltbT+g4NUX9v16NiouBCaev1Q8g3w0rwLKggBCEBAyQIYBazk1kFsEOhhAZcmbeZbtAe3nqb+yeF0+XX2RwWL0a1pcwbR6axS2vLFka5rJwaBOHJ/ueuSun1EY30TnThUQjXlDd0uy14BZ0+UkRgJjA0CEICAJwWQAHpSF2VDQGUCJi/XPhIa6sy0feVxShweRfFD+9gmge6s6mKC6Jk8QXTOwSIqPGl/QmmR/FnNyngIsK66yTY/34mDxZ1VDa9DAAIQUI0AbgGrpqkQKAQ8L9DVUnD2Iig6U0Hrlx20d0jrvrC+ATSTp4bxC/Rufa2zb8RgE2wQgAAEIOBeASSA7vVEaRDQrwDnaRmbz9BOXirOarF/C1PcCh4zbQCNmz2QJz22P/m0haeBwS1R/b6tUHMIQMAzAkgAPeOKUiGgSwHxuN7G5ZmUn3Pebv3FbWC/AG+adv2wLieIVsgjgHbrg50QgAAE1CaABFBtLYZ4IaBwgZL8StrGE0TXVHY9WCJ6QChdzkmgvc3WA9hFj6K987EPAhCAAAQuFUACeKkJXoEABLohINb73bvuJN8OPt3lrWDREyhGBQ8d36/TK4pnAGU8B9ipD3ZAAAIQcEUACaArajgHAhCwK9DUaKY172VQ6dkqu8eJnb68VvCshSMpNDKgw2NFQqmUqWA6DBAvQgACEFChABJAFTYaQoaAGgTKS2pp3UeHSCSD9jbJINGAYZE0dsaADpeJMzdjEIg9P+yDAAQg4IoAEkBX1HAOBCDgkMChLWdoz9ocsnTxDJ+PvxdNmT+ExDOBF2/mZitGAV+Mgp8hAAEIdFMACWA3AXE6BCDQuUBdTRNt+fwI5R07Z/c2rngWMCou1DY3IH/bbmtuQg9gOxD8AAEIQMANAkgA3YCIIiAAgc4FCk+X01YeFdzVrWBRwuipCZQwNLJdYbZbwF30ILY7AT9AAAIQgECXAkgAuyTCARCAQHcEZJ4Tet+GU3R4W67dXkBxDW9fL5q9aBSJW8Itm7mRewCbsRpIiwe+QgACEHCHABJAdyiiDAhAwK6AmW/jfv3WPio8ZX/tX7EU3eAx0TRu5gASg0PE9n0PoMX2Pf4HAQhAAALuEUAC6B5HlAIBCHQhcL6ohr77NKvLCaL9g3woddYgCuvrbyvR9gwgDwTBBgEIQAAC7hNAAug+S5QEAQjYERDz+WXwqOAju/PtjgoWA0ISR0bRyMvibKU1NphJJIHYIAABCEDAfQJIAN1niZIgAIEuBOqqG+nbpQeo+EyF3SO9vI00Z9EYCgrzpca6JiSAdrWwEwIQgIDzAkgAnTfDGRCAQDcESvOraMPyw5zU2Z8gWqwMMmleMjXVm8ncxbHdCAenQgACENClABJAXTY7Kg2B3hU4tPUMHeTbwV1t42YmUlhUIDXxbWAsB9eVFvZDAAIQcFwACaDjVjgSAhBwk0B9bTOt/eAgneliguiohFC67JpkauReQKsVU8G4iR/FQAACECAkgHgTQAACvSJQxM8B7lh5lOp5tZDONpOXkUZMiqNw7gXEBgEIQAAC7hNAAug+S5QEAQg4ISBGBYsJoo+lF9g9q29cCMUP7UNijkBsEIAABCDgHgGTe4pBKRCAgLsEvHyMFBTqx6timGy3Petrm6i2soFEwqS1raGumb54dTfFcYLXJyaow+oZjQYy+nt3uA8vQgACEICAawJIAF1zw1kQ8IhAVHwITbhyMCWNjaHQvgFkabJSId8qzdqVZ+stE9OoaG2rKK2jdfw84PUPjCe/QCR6Wmtf1AcCEFCmABJAZbYLotKhQP+kCJp/Xyolj4sl0evVskXEBtGg0VHUb1AEffrCDl4aTVurYsg8uOPg1tO2JeBSeNRv27q3GOArBCAAAQi4VwAJoHs9URoEXBIIDvejq+4cQ0NS+3X4rJtfgDeNnzuIygqraP2ywySSJi1tNRWNtGHZIYpJDLUlukqsW0CIL117byrVVvVcL2xZUTVt+iSTyotrlUiCmCAAARULIAFUceMhdO0I9BscQcMm9O8w+WuppXgmcNSUBDrw3Wk6V1Dd8rJmvubnnKeNPEH0op9PJaPpQg+oUiro7WPintjoHg3n7InztOubbConJIA9Co+LQUAHAsr7lNUBOqoIgYsF4pMjyIsTjK62kAg/6sO3hLW67efkNmtXvlarh3pBAAIQUIwAEkDFNAUC0bOAX5CPQ9UX8+J5eXedKDpUmAIPam600Op3D1DhqXKs/KHA9kFIEICAdgSQAGqnLVETFQuUnq3ihKfrCtTX8ZQwVQ1dH6jiI/JzymjzZ1mkxRHPKm4WhA4BCGhMAAmgxhoU1VGnQO7RUqo4Z/85L7EUWnFuJRWfqVRnJR2MWsx3uH/zadsE0Vj+zUE0HAYBCEDASQEkgE6C4XAIeEKgOLeCH/Y/To0NzR3e+pS5e7CmvJ57xo5QrQbnArzYtI5H2q56ex/V8ATY2CAAAQhAwP0C2n2YyP1WKBECHhNoarDQpo8zbSt/TJqXRGF9A0mSvl/6rLnJwj1/FbTmvQw6vq/A5RiqOYHM5AmlL97EdVqWWSvi6zhyK/riMjzxc0leFX3x8i5KnT3IbvHmZguVl9jvPbVbAO+sOl9PWbvzFTf6uIxHe4vVUjy5Cb/84+dsK8/Yu07hyfNkMWtrDkp79cU+CGhdAItrar2FVV6/v977+W95KoynVF4Nh8M3eRspaUw0JQyPpLDIAJ70mZO/vEo6cbCYCk+W2xJEhwu76ECDUepwpLFI/sQ+sYlks6nefNGZvfejxPcovH297AfAGauIuztL5dlsxOAahX0iylYriYExnk7Kvfh9Z+hi6h2r5ftY7DcG9jogUDt2xsBH7n1y5tsOHItDIOAxAfQAeowWBUPAeQEzJzJH9pyl4/sLOVkz2iZ8bhIJgBsmfhYJUqOHe5Ocr7H9M2TucOqJmG029Z7tabNf097dKxJoEn+wQQACuhFAAqibpkZF1SQgbrXhdpuaWgyxQgACEFCXAAaBqKu9EC0EIAABCEAAAhDotgASwG4TogAIQAACEIAABCCgLgEkgOpqL0QLAQhAAAIQgAAEui2ABLDbhCgAAhCAAAQgAAEIqEsACaC62gvRQgACEIAABCAAgW4LIAHsNiEKgAAEIAABCEAAAuoSQAKorvZCtBCAAAQgAAEIQKDbAkgAu02IAiAAAQhAAAIQgIC6BJAAqqu9EC0EIAABCEAAAhDotgASwG4TogAIQAACEIAABCCgLgEkgOpqL0QLAQhAAAIQgAAEui2AtYC7TYgCIAABVwUkg0QmLwMZTQYy8Pdis1plIv7PYrGSudlKsvgZGwQgAAEIuFUACaBbOVEYBCDQlYDRKFFETBD1jQ+h8OggiogOpKBwP/L25Y8jTvaamyxkMctUU1FPZUU1/KeaygprqDS/kqwWJINd+WI/BCAAAUcEkAA6ooRjIACBbgtInPglDOlDY6YNoAHDIykqPpT8g7y556/zJ1GsVivVVjbaEsCTh4po64qjdK6gutuxoAAIQAACehdAAqj3dwDqDwEPC4hbuyF9/Gn2baNo7PREW9InbvlK0ve3fO1dXiSHQWF+tj/B4b60Z22OvcOxDwIQgAAEHBRAAuggFA6DAAScF/DyNtLIyXF0xeIxFDMwvPU5v5aSzM0WvtXbQDWVDdTUYOZbv1YyGA225wL9ArwpOMKPfP29bYeXl9ZS0ZmKllPxFQIQgAAEuiGABLAbeDgVAhCwLzD5uiE0a8FICusb2O7A+pomytqdT6cyS+jc2UqqPFdPjfXNPOjDYhsQYuLEMSDYx/aMYL9B4ZSUEkPH9xbYng1sVxB+gAAEIAABlwSQALrEhpMgAAF7AuK276Srk+iqO8dyIudrO1SWeYBHo5mOphfQ+mWHqDi3kkQiaG+U78lDJZSx+TQFfuZrSxDtXRP7IAABCEDAcQEkgI5b4UgIQMABAQMP9kiZPoCuujulNfkTp5WX1NDa9w/S7jU5nAhaHCjp+0PEseUltQ4fjwMhAAEIQKBrASSAXRvhCAhAwAmByP7BNOOWkRTaJ6D1rNqqBlr5n320b8PJ7+f5a92DbyAAAQhAoDcEkAD2hjquCQENC0y+JpnikiNaayjm9duw/DDt/+5U7yR/PNi4Zbwx34X2/NZ6MScv9d84bSH2RJxOhofDIQABbQkgAdRWe6I2EOhVgb5xwTT1huG2kbwiEDGP38GtZ2jn18fJwqt69MQmZpfx5wEkoZEBPPhE/Akkv0BvftbQStU84ri8uJYqzvEfvq3cWG92OKRgnqzaP8jHdryoV+W5utbzxW3vML5eH+79jE4I5VHMRtq/6RSd54msO9vENDiBob62GMOjAiiEz/fx86KG2maq4BHP4pa5OL+2qrGzIvA6BCAAAZcFkAC6TIcTIQCBdgKceE2al2wbxdvyukheMjafsiVeLa958qsvTx0jnj9MTo2h+OQ+1Cc2mMRyc2030SNZnFtBJw4WUeaOPMo+UGSbfqbtMR19nzp7IE24YrBtVx0PXvl26QHK3l/ISZuJxs8dRCkzB1LC0MjvVzTho8Q1OksAxQjnMVMTaOj4fjwpdl+eJzGA50W8cFUxMEYkgdkHCiljyxkeOHPWqecmL5SE7yAAAQh0LIAEsGMXvAoBCDgpIHrIBo+JbnfW+cJq26jfdi966IfoAaG2gSdDU2NtPX6dTTQt5ibsPziCYhLDaPSUBNqz7gR9+85+27rD9kITvYj9+DyxicRWjG4Wo52v5JHOk68d0to7aK8MsS+Me/tu/tEkGjw6utM4RdIaFhVIaXMH05DUfrRrdTY/Q7m3q6KxHwIQgIDDAkgAHabCgRCAgD0B0fslkpa2idfB7bm2W5r2zuvuPolXkhs1OZ6u+58JFBkb1Hp9i8Vq60Wr42TNzL1+IqkSPYQhEf781YuMPOG0iHf2raOob1wIffHSbjpf3PktWzFRdcsmeuv8uAyxusm0G4dxr59Xy65Ov4rrJ/ISeAsenUyxA8NaeybFVDjn+Xav6PFrqG2y3bIWt63FJNgiRrGKypxFo/i2ukSrudfRmdvWnQaDHRCAgO4FkADq/i0AAAi4RyCyX7CtR6ttaScyitv+6JHvxa3e60Xyx9dv2cTzeQe3nuZRx6eo8HQFzzfYaLs1HcEJ4qBR0TxHYTINGBZpO1wsSzfysjiqq26kFa/u4a9NLcW0+ypuHbdsIsntzwNdEkf0bU3+qsvrKe94mS2JFLdwyy9KJvvwta+5Z1xr8mflBDU/5zzt/OYYZe06azteDFIRt5TFbeHUOQNp/JzBtrjFkngTr0yiwpPllL7+BD/P2BIJvkIAAhBwTQAJoGtuOAsCEGgjIJZvC+aeNXF7tWUTPXDiOThPbmK5uHk/SGmX/ImetFVv7eNBGKfbTR5t5kEoxWcqbX/yss/RDQ9MsK0wIuITgzZSZw2kk4eKaffqjtcbFr2ILZvRy8C3ZmNtvXWinjn8LOCmTzPp7Ilyvj3cQCKREwle223ajcNpICefoidQ7DvKK5t8/eY+yudY2iZ0oofvGO/LzymjpnoLTeHVVERPoBgwkjpnEOXws4tiIAs2CEAAAt0R4Jsn2CAAAQh0T8Db18jPwHm33n4VpVWfr7et79u9kjs/W9z6nTgvyZZUtRwlVhr5+u19/MxcTrvkr2V/y9e8Y2X0Jff25R7n5Ou/c8OIEbhX3TX2kl7MlnPaJmki0RU9jibuPTzA09u88eQGytyZb7uNKyauFsmi1XJhLpfYQWE05doLA2REcvfxv7ZT3rH2yV/LtcTX2spGWvfhQcrigSqiR1H0OiaPjeHbyH3bHobvIQABCLgkgATQJTacBAEItBUQgyHErdS2Wz0/z0YXcqC2u9zyvZhoevjE/uTrf+H5u9NZJbSHkz97y8u1XDyPk7+960+2S1JD+Xm70ZcntBzS6VeRjIk/RdzDufKNvXafcxSJ6pRrh7LP972jIuHc9EkWlRV0/rxhy4VFb+bBbbkkRh2LTayRPHxSnO15wJZj8BUCEICAKwLtP7FdKQHnQAACuhcQnWj/7UhrtXAkCWs92IVvoni+PTGYomUTidWOVcfb9by17Ovoq4g3g3vvxC3bls3ASeywCf0uSWZb9rf9Kq4nVjYR8wna28R8hGKATMts1CKpy9qdb++Udvvys8uopqK+9TXx7KJIuLFBAAIQ6I4AEsDu6OFcCEDAJiCeaWv7jJx4UTwn56lNjIiNSQyloDC/1kuU5lVRLt9SdWY7z8/SnTpc0nqK6NWLiAmyTc7c+mIn34jEUSRnFrP9bs5+g8JtI3lF2WI7c7TUZiXq4MgfMTil7QCUPnzrWYxmxgYBCECgOwIYBNIdPZwLAQjYBCxm6yUTFQeGcHLmoY4qMWgjOj603TOH4nZsZyN47TXTycwSSp09yHaISNLEah+i1+5cQbW907hXrtH2x+5BvFMklH78fGTLJiZ9nnHzcIeXxRPJXhAPAGnZRO+fmCKmhlc1wQYBCEDAVQEkgK7K4TwIQKBVQIywreWeKtETKEYEi01MnBwQ4sO3SOtaj3PXN0YTJ0E88XTbrbKsjpPQC3P1td1n7/tzZ6va7fbyMdrmCWz3Ygc/NNQ12x1oIk4RnX6BIb7tRkeLQRzdHcjh7YOP7g6aBC9BAAJOCHjuHo0TQeBQCEBA/QKVvL5uQ31za0VET1V88vdz7bW+6KZvRE+dT5vBH6LYRk7ILG1G3jp6qYvX2hVTrojBFl1t4hnHlhHEnR0rnin05nn9Wm7/dnacs6+3nZTa2XNxPAQgAAEhgH9G4n0AAQi4RaA4t9I2mbJ/oE9reSN4xOrBbWfcPhpYTIzsdVEvmEg4//uYXev1Hfnm4uRMPJcnkkB3bCKmi8s6e+I8T05d3i2TyrILg0LcESfKgAAE9CeABFB/bY4aQ8AjAkVnKqiKE5OI6AvLsQ0YEck/B1JZYddTnjgTFPe9XdL75su3nMVUNGIePmc28Txd283KPXtt5/Bru8/Z78Wkzy23xFvOzdh8mta8n+G2a7SUi68QgAAEnBFwzz9znbkijoUABDQpINbcPb6vsF3dwnmt3ZQZia3r3rbb2Y0fRIImJkpuu4VHBfCybM7/m7btVDKivCZeiaPt1DBtr+Hs9xZ+NrKRb4u3vVUcJJ5d9NDgGGfjw/EQgIB+BZAA6rftUXMIuF1gx6pjPCnyhbV0xeoaabx8WeJw9z4LKKZFsd1GbVODfoMjKISXo3NmM/13SbeWc8TcgGJN365GALcc39VXMTpaLNvWtldy4MiodoNCuioD+yEAAQh4QgAJoCdUUSYEdCogkh2xukbbLXpAGM1eNJrn7LswlUnb/a58L+YcFHPwNdRdSDaDQv1sK4M4U14CT6ocFRfaeorVaqXCU+W2Jd1aX+zmN0X8vJ9IKlu2aJ7AegCWc2vhwFcIQKCXBJAA9hI8LgsBrQpsW3mMxECHltueYiDE8An96aaHJlJg6IUBIt2tf372eSo4Ud56HVHe5PlDbHPkOVK2WEJu4lWDyT/4Qkwisdy38ZRbn887w5NTl+RVtsYpnlOcc9soniLHfQmxI/XFMRCAAATaCiABbKuB7yEAgW4LnM05T9+8s5/KeYm0liRQJD0pswbS/X+aS6Muj7dNtuzMhcT5Yn6+tptIqtLXn7BN/9LyekhEAN3y40kUEmn/VrAoa+oNQ2ns9MTWUboi1sPbc+nY3oKW4tzyVUxPs/Hjw9TUZo7CQaOj6YaHJpB4bhEbBCAAgd4QaP+J2hsR4JoQsCMwZ9xt0/j22Sw7h2CXAgXKCqupnp8FHDw2pvV5NzHdilhhIzklhiL7B5OXr5Gs/IxcQy0PkuCRt5dsPFAinEcQDxodZVupIyTc39az2PY4cR1xi1ncVhWbuEYYDzwJ5dU2xATP1eWXrpbhz6tyTL1hOM1aOJIT0Qu9cAXca/nFq3uo+vyF27VtrxWX3IdGTo5vfUms6XtoW+4lg1FaD2jzTVlRNUX2C7GtXSxiFCODo9ggsn+I7fawKEs8f9jZJpa8S2I3sYnBNthULdDM79lVKza9c0DVtUDwqhdwfsic6quMCkAAAp4WECuD7FmTQ+L277U/TKWA4AuJlkhmxs8dZHteTzwbJ6aOOVdYRTWVDWRusNgmTvbjuQTF9DFixKw4XtwuzdlfQLu5zLabmMR51Rt7qW8cJ1eJYbZdPr5etpHH8ZywpW84Qdk8MrmitM62fm7iyL40ekocJfJADF//C8uziQTt23czbM//tS3fXd/LVqK1H2TwmsB+NCS1ny1RFfMYjuKEMnZQGOUePUc5B4qoJL+SzJwUe/FSd74BXhQRG0T9BkVQX04UA3lVlXUfHqTS/PYrl7grRpQDAQjoSwAJoL7aG7WFQI8JiCRw21fHKPdYKV1xx1hK4t5Asc6u2EQvmFgiTfyJ4R68IRTbZVyityyyXxCVnm2/Rm8RT0D95pMbaD4nmsPG97dNBSPWCo7iXsFrlqQSLem8aDFKN59vWX/+8i46ebC48wPdsKckr4o+fGYbXXPvOBozdQCJEdJinsA+McG2P+NmDuzyKv0Gh9t6Tps5UcYGAQhAoDsCSAC7o4dzIQCBLgXyjp+nD57eSmOmJdDIy+J5BGykrVdPJIGObqJ38FRWySWTKrecX8JJ4Kcv7KIJV57jgR3J1Id7zuyVL573q+BnFA/vyKMtK45Q0amKlqI8+lU8F/nZi7ttg0LGzRpEUfEhrc8g2ruwiLeK1zquqWggk8lIvOidvcOxDwIQgECXAkgAuyTCARCAQHcF6muaaNc32ZS1M58iYoJs06Akjuhre3YvPFpM4OzVegnxPGADD5woL6mhszllJEbRitG+pfxMX1Unz+eJk8VzdOuXHaaj6QU0eEwM9wb2syWboqdNbOIZu6aGZhIrlhzZlU9H9uTzXIIVtmcQbQd08T9x3tYVR1uPEret66qdfx5PPMO3geM8vD2PBo2Jtt0GjhvSh8QSem1z4sb6Jl5BpZqKTlfSaU5+T2eVkrhV3XaexdZg8A0EIAABJwWQADoJhsMhAAHXBEQCJhI48UckNJs/M/At0O9vBxv5lq2YlFlsYi4+cYtT9HqJZdlEQijOdWQTK2+I5+nyOGn87tNM29JwfoFeXLaRLGbZlrBZLFbbNC8dDjyxc5GTmcV0+khJ6xEiJmfLaDlZ3B4vOFlue+ZwO98mF+sPi0RVPBfYzKOFrRyjmDzaFYOWa+ArBCAAAXsCSADt6WAfBCDgEQGRPIlErOVOpljZw52brXx+vk8849fUYHZP0Ryzu9YIbgnoQpzUbrWQlv34CgEIQMBTAt//k9tTpaNcCEAAAhCAAAQgAAHFCSABVFyTIKC2AnyLzcGbf23PwvcQgAAEFCsg87RA+FxTbPPoJzAkgPppa3XWVJIvnclXnTVB1BCAAARsAgay4HMN74VeF0AC2OtNgADsCkjU8bIMdk/CTghAAALKFOAnX2WrgZwfPq7M6iAqFQsgAVRx4+khdKvVgGUP9NDQqCMEdCIgybJFJgmfazppbyVXEwmgklsHsREZzIVggAAEIKAVAZ7+3GqyWEu1Uh/UQ70CSADV23a6iFwyyUgAddHSqCQE9CEgSzz5kdGEBFAfza3oWiIBVHTzILhFv5pbwMPlaiABAQhAQAsCAcG+lT/4/YwLM4proVKogyoFkACqstn0E/SAAaFNXNts/dQYNYUABLQsIJkMR3idah4Lgg0CvSuABLB3/XH1rgXEEhHHuj4MR0AAAhBQvoBBkrKUHyUi1IMAEkA9tLK662iWZOs+rgImTlV3OyJ6CECAP8dkq3U3ICCgBAEkgEpoBcTQqQDfKrEMGep7gNO/6k4Pwg4IQAACahCQqXzkEP48wwYBBQggAVRAIyAE+wIz75xWwDMn5Ng/CnshAAEIKF7gwKxHr8A/ZhXfTPoIEAmgPtpZ1bVsaraeJQMd5krgNrCqWxLBQ0DX7etpJQAAF61JREFUArLVKG+vqQnEJNC6fhsop/JIAJXTFoikE4GUmYkVsxeO3S7jNnAnQngZAhBQugD/67V40c+n7khKkrAMnNIbSyfxIQHUSUOrvpqG5u2yhEmhVd+OqAAEdCsgHzWSFSOAddv+yqs4EkDltQki6kDg+tTLjsbEh4rRwNggAAEIqE2gcUhqzM5JVw3NU1vgiFe7AkgAtdu2mqqZlCY1+wX6vs6VMmuqYqgMBCCgeQF+fKU0NDzoYzGrgeYriwqqRgAJoGqaCoFOHxO9lZ+jwRQKeCtAAAKqEvAP9N56R/NUfHapqtW0HywSQO23sWZqmPZAWrNRtrzGFUIvoGZaFRWBgOYFmoPCTK9KT2L5N823tMoqiARQZQ2m93B/8Ne5a7kXcBM7YEoYvb8ZUH8IKF1AJqtM8mf/89s5e5UeKuLTnwASQP21uaprPHbSgNyE4ZEfcfpXruqKIHgIQED7AhIVDJnY763IoZGY/Fn7ra26GiIBVF2T6Ttgfojamnx535VWg3UPS6AXUN9vB9QeAkoWMFuM1tWXzUneqeQgEZt+BZAA6rftVVvz62+fVDxuZuIfuAKYUV+1rYjAIaBtAaNJyr5iYcq/0uYOqtR2TVE7tQogAVRry+k87nv/d84OL5MkpoVp1jkFqg8BCChNQKamqPiQf97wQNohpYWGeCDQIoAEsEUCX1UnMOeO0a9w0FtVFzgChgAENC0gSfTVzFtGf6TpSqJyqhcwqr4GqIBuBd77/NVKc7Ol+OTB4gkkUThDSLrFQMUhAIHeF+BRv/wxtO/WX0z51eRrhpzq/YAQAQQ6F0APYOc22KNwATEgZP59aavD+gQ+Q7KM5wEV3l4IDwKaF5Dk3L5xYX+ccvUQTPui+cZWfwWRAKq/DXVdA5EELnlkwrsmP9ObPCaY//WNDQIQgECvCFgiYgKfuenXyav4cwkzFPRKE+CizgjglpkzWjhWsQJZ6adj/vPEpmeaGy0L+Uawl2IDRWAQgID2BGRq9PY3vfLYa7N+HRcXV6+9CqJGWhRAAqjFVtVpnTJ25vf/+Jktf644V3crP4TtrVMGVBsCEOhBAe7qq4mKC371rj/O/VNCQigmqO9Be1yqewK4Bdw9P5ytIIExk/rnL3xs8pP+gaYvFBQWQoEABLQrYOkTG/La3b+Z8Q8kf9ptZK3WDD2AWm1ZHdfryI5TA179zYa/WSx0MzMY+JYw3uc6fj+g6hBwuwAv8Mtlmr28ja/+6LXrf5eYGFbh9mugQAh4WAB/MXoYGMX3jsCRXfkRH/xty0/Ly+oe4NvBEb0TBa4KAQhoUECWZcqP6hfy3H3/uPy16OjoWg3WEVXSgQASQB00sl6rmJFRFPDBb9b8oLa66QkelRerVwfUGwIQcJ+AVbYe42f+/vfOpyasSExMbHBfySgJAj0rgASwZ71xtR4WyMzM9P7BvIYrJw088Du+aZPKN4Px3GsPtwEuBwGNCFiIrBt3FE59cs/RITvEFFQaqReqoVMBJIA6bXi9VXvz8n2RX72V/nhDvfFOTgSjkAjq7R2A+kLARQGeX1SW5BMhIYbXbnxk+utpcwdVulgSToOAogSQACqqORCMJwWWL19urM3qc/2+TSfvkWVpJj8b6O/J66FsCEBA3QI80qNCkq1rpl4/5KUFP5m6GRM8q7s9EX17ASSA7T3wk8YF+Oltw+E9Bf1WvLJ7XuGJ87/nJBDPBmq8zVE9CLgiwMlfxvCJsX+feuOQtaMmDSx2pQycAwElCyABVHLrIDaPCYhE8MUfvhFXVO7/I544+ib+l30Cbgt7jBsFQ0AdAjI1W0k+GRkV9F7SQPOLt//l9gr0+qmj6RCl8wJIAJ03wxkaEpCXy8aPC7ddtv2L449YrPJcTgLDNVQ9VAUCEHBUQKaSoFCfZaNnxL9962NTD3Dih0EejtrhOFUKIAFUZbMhaHcL7NucHXlkR8EV21flPGSQaCKXb3T3NVAeBCCgSIFGjmrjFXeMeXXgZfHrRozoW6PIKBEUBNwsgATQzaAoTr0C4rbw1y8fCtm75cg9pQXVD/IvRxxJkhfXCL8n6m1WRA6BjgT4ET9rg0zS6ZgB4f834er4b+YsSK3C7d6OqPCaVgXwF5tWWxb1clmAE0Hpnee2Dc/de/aHpfnVN3ISmOByYTgRAhBQloAsi1u7R+OHRX4aO7jPG4sfn3JGWQEiGgj0jAASwJ5xxlVUKFDEK4lkHi+d8vm/dz/Mo4XnchX8VFgNhAwBCFwQqDH6GD+59aeTX4lO9srASh4XYPCd/gSQAOqvzVFjJwREb+CO1flh3/xn5xU1FdWPm5vlEXxD2NeJInAoBCDQ2wIy1Zh8TLtDggKeXfzzmVuTJkVU9XZIuD4EelsACWBvtwCurxqBb/+zPfzY4fIf5xwovoVITubAxfOB2CAAAeUK8Fq9UubISXFvDxje960r7xpTq9xQERkEelYACWDPeuNqKheQM2XvN1Z+MfbQhuJF1kav+7g6ASqvEsKHgFYFCr2CG/4zbm7yx4sfmZPFAzx4LV9sEIBAiwASwBYJfIWAEwIlJSWB/16ydkptc/PjTY3my/i2MC8rx08KYoMABHpP4PsBHrU+fl7roqOC/3TrH9Oy4uLi6nsvIFwZAsoVwF9Yym0bRKYCgfT0Av/9Xx6+6dC23B/JVmk0h4znA1XQbghRkwK1vgFeW5JSol+eeXfi6qSkJDG/HzYIQKATASSAncDgZQg4I7DyxR3DNi7fc1sj+d8hkTSAewQNzpyPYyEAARcFZLLIZM3ypfp3b3r8yg8mzx9y1sWScBoEdCWABFBXzY3KelIgLy/P7/PnDiSfPFT2S0uz5UaSyYcTQfyOeRIdZetXgLM+rnwDT+vyUtoVA99KmReRM2LEiCb9gqDmEHBOAH85OeeFoyHQpQBPHWN66RdrZxWcOPdIVVndNH40MKTLk3AABCDgqIDM/7gq7dMvaGNEbMhzj/z9yl2OnojjIACBCwJIAC9Y4DsIuFXg0M6TUcue2XVL5bm6e7jg0dwXaHLrBVAYBPQmIFMzr+G2o//gsJcXPZq6OmF0QrneCFBfCLhLAAmguyRRDgQ6EJA3yqavT6QPXf1exh3ca/Eg9wYGd3AYXoIABOwLcK+fXChL8gu3/2TyJ5OvH5Fj/3DshQAEuhJAAtiVEPZDwE0Crz25JXnT1yV/CA+omCnJFImBIm6CRTFaFuABHlRYXh++4qZ74v548wNphVquLOoGgZ4UQALYk9q4lu4Fnn+yLLixaOdVeUeK7pQluopBcFtY9+8KAHQkwIlfDfearxw+Pv49c/ycdT/+sYRpXTqCwmsQcFEACaCLcDgNAq4KiPWFD28u6P/a71cttJLhEZ4vZoCrZeE8CGhRQJYpKyjM96+3/2rOmlGTooq1WEfUCQK9LYAEsLdbANfXrQAngoZtH2f1/2rZ7gdry6w8fyDFMIZRtyCouN4FzLLBmh3c1/edW3902VujJw8q5eXbuCMQGwQg4AkBJICeUEWZEHBS4O0n11+xf8Opu62228JSGD8fiN9NJw1xuEoFxKQuJBfyG37V5AXJL9/2yLR9Kq0JwoaAqgTwl4yqmgvBalkgY1tO32+XHp6Wf/Tcr3i0cKqW64q6QaBFgHvCV42akvDShLmDt6XMTKxoeR1fIQABzwogAfSsL0qHgFMC4vnAEweLI9/+w7o7K8/XLyHZkMx9gV5OFYKDIaBkAVuPHzUQWY5ERAe+/NALiz6KjKRa3O5VcqMhNi0KIAHUYquiTpoQWP73dcN3r89/sKHecj3/ovbnSuH3VRMtq+tK8L9x5Jywvv7vjZoQ8e7Cn195StcaqDwEelEAf6H0Ij4uDYGuBDJWFwVkHTw+Y9tXx5dwD8k1nAL6dnUO9kNAkQIyVVkl+bN5S8YuDYhP3TJzpmRWZJwICgI6EUACqJOGRjXVKyBuC58/fz7o7d9vn3cms+QJq0xJ/IsrEkH8/qq3WfUSOc/oQnVGg+FAyvSE31/94MhdkZGRuN2rl9ZHPRUtgL9AFN08CA4C7QU+/NvW2JzDRUtKcisXcvo3ivfid7g9EX5SigCv20uSnB4/tM9HCSn931n4QFqlUkJDHBCAAP7ywHsAAqoTSE+XveryslKWP7/zh5KVbuYUMFx1lUDAWhco9gn0efOG+1PenzJ/+FF+fMGi9QqjfhBQmwB6D9TWYogXAv8V+PLL0qC3/3xiUkLQkcctZutUfhm3hfHu6E0BMb630tvbuOZQaeq/nnxp5P7Jk6X63gwI14YABDoXQALYuQ32QEAVAhuf3GjKKK+9P+dA8R3cGziWf6n9VBE4gtSMgJWompO/9DGXxb0QOm7uioUL0eOnmcZFRTQrgARQs02LiulJgAeKGDd9eihp24pjNxXlVj3Ev9j99FR/1LX3BHiQx+FBY6PeGD114Oezbx5+pvciwZUhAAFnBJAAOqOFYyGgcIHsbNln2esvjCnbH/QTc7N1HslyMK8qgt9zhbeb6sKTZe70kyq8fQ3LE68wPPfwT+86zW+zJtXVAwFDQMcC+ItBx42PqmtXYONG2XRk9foZx9Pzfm4xWybyX9Yh2q0tatajArJ83jfI+9vBo6Kev//PV+zhxI+TQWwQgIDaBJAAqq3FEC8EnBDY/GlWzLEDBQsyNp++k/+iHsunmpw4HYdCoK1Ao2y17pwyf9i70Wlhy2bOHFHTdie+hwAE1CWABFBd7YVoIeC0AD8f6P32Lz5NOLiv/D6zRXqQewMD/lsIfv+d1tTdCfyIH28ylXuZmv80ZV7cpzf97Op8/scEpnXR3VsBFdaaAP4C0FqLoj4QsCPw/E+/GlN8pupnlWX1cyWSou0cil16F5CJF52R8yP7h3wVMcD/mUf+dM0ZvZOg/hDQkgASQC21JuoCAQcEMjeWBB4/evrqDcsO3c9dO1O4RxDrCzvgpq9D5FpvX9M3MxaMfH3ssKgtcZPjMJ+fvt4AqK0OBJAA6qCRUUUIXCwg1hf+9qMDCWvfPnBDc4PlJzxSOP7iY/CzDgW414+Xb8vy9fN6bsEvpq2aMDOxSIcKqDIEdCGABFAXzYxKQqBjAZEIfvjspoiTB8t+X3ym4jpOBGP5SAwU6ZhLu6/K1CRu98Ynhb2RMj7hxTn3p1bxc37fP/+n3VqjZhDQtQASQF03PyoPge8FxPyBr/7f7imlx0/dGexbewuvKBIIG50IyFRUWhvx6cjL+i79zfOXpWNaF520O6qpewEkgLp/CwAAAhcEdq3Lj1j6j2+vNtRJP+ZXU/iP8cJefKcxATPXZ0tAf7+nb7n7qh1pc8MrNVY/VAcCELAjgATQDg52QUCPAnxb2LDlm5yIrR9nLCo8U/Ujssjx3CPorUcLTdZZpkYvP+OhiNiAF+YvmfDV6KkJ5ZqsJyoFAQjYFUACaJcHOyGgb4GPnt0wZvfmrPuaK3zn82jh/pwIGvQtouLay8Rz98knvCLrv7jy5hn/vnLRqDwV1wahQwAC3RRAAthNQJwOAa0L7NyZHbz1w+MTz+wvfJgM0rVcX9wWVlujy3KzTNJbKTMHvjtr+oD0xJmJDWqrAuKFAATcK4AE0L2eKA0CmhU4dao89J0n1lxbXdn4o6ba5lHcG+in2cpqoWI8rJerURsQ7JMeEOr7zL1/u3lTbKxUp4WqoQ4QgED3BZAAdt8QJUBAVwJb1xyN/eafm++pqjUu5iRwMFce08Yo7x3QTLKc0bev6c1bHp+zfNjE/mXKCxERQQACvSmABLA39XFtCKhUYOPGjabSg16Ttn1x9HarVbqdE8EQlVZFa2GLfr8ig1Fees2dqR9dsSTlgNYqiPpAAALuEUAC6B5HlAIBXQqUlJQEfvTUztSCM1VP1VQ1jOMPFH8eLILPlZ5+N8gy5+FUGxLqtyZ5YsxfZt8xMysuTsLybT3dDrgeBFQkgA9qFTUWQoWAUgWys8uCP/rTuluLT1XdwRMJT+YkELeFe6yx5Fpevm1L/PA+bz3+7xu+YP+mHrs0LgQBCKhWAAmgapsOgUNAWQJiWbmtnx9N+uhf2+82SLSYoxPrC+MzxnPNJAZ5HPcP9X15/r1jP798/ohcz10KJUMAAloTwIez1loU9YFALwvk5eX5pa8sGrXmo2OPGOXGG/mGsD+ngZg/0F3tIpPVKktlksn00YIfj399Wv+hR6U0qdldxaMcCEBAHwJIAPXRzqglBHpF4JkfrZ5/Oiv/YYOFJnEAwfwHnzmut4To8TtnMcjb4kYN+/Ov/zVlj+tF4UwIQEDvAvgw1vs7APWHgIcF1i8/0G/Pmpzr8nPK7+eOwLEevpxGi5c5+ZM3JI3rt3T45RFfz7lpIqZ10WhLo1oQ6CkBJIA9JY3rQEDHAvx8oGn/+tzkd/68/odWq/VOkqUI7gvE54+998T3EznzAh5yscnL8MpDf7/+zcGjwwt5kAcv6YYNAhCAQPcE8AHcPT+cDQEIOCnw0p8+GZ2zufaXTY3mufwB1IdPx+fQpYacM1N+QJjvZwMn+7/wwC9uPHHpIXgFAhCAgOsC+OB13Q5nQgACLgpsXJ4ZeOJw0Y0Zm04v5uEh07kYXxeL0t5pMlVxD+m6KTcMWRqV0vT1zJkzzdqrJGoEAQj0tgASwN5uAVwfAjoV4C4u44k9BbHv/WPrjWWFNU9wP2CUTilaq829ftlJY6Kfuu6O8WsHjI8s5tu9YuAHNghAAAJuF0AC6HZSFAgBCDgr8OJDH8YVlkiPVpTWimljEvl8/Xw2yWSWJcqOjA3+cHB8078X/3VxubN+OB4CEICAswL6+ZB1VgbHQwACPSqQnp7ulbenecq6j7Ie5omk5/DFQ3s0gN64mEwlvgE+n029IfnN+feN34cBHr3RCLgmBPQpgARQn+2OWkNAsQKHdp6M2rvuzJz0tSce447AVO4R1NznFN/qbZZkefOsxaP+PTo1aeOgtPBKxTYIAoMABDQpoLkPVk22EioFAZ0JiGXl3nx6W+DZgwUPl+RXL+EPqgGcBnoxg5o/s8TzfA38vxOxg0KfTp0++LMr7hxdh+f8dPbmRnUhoBABNX+YKoQQYUAAAp4S4ETQsOyF3aOO7jx997mzNbdyb2Csp67l6XKtRMfiksI/Hjg26p2FD0/O8fT1UD4EIAABewJIAO3pYB8EIKAIgaKMooCbF5RMT4nZ/TBJ0mz+4PJRRGAOBMG3e+v4sBUnLbP++eK7lJGYmNjgwGk4BAIQgIBHBZAAepQXhUMAAu4SELeF1607Gbz9g71Xnc+t+aXVIidz2f78R4mfYxwuVXv7GfeExPo+e8vPZm0ZMaJvjbssUA4EIACB7goo8YOzu3XC+RCAgMYFvnx9Z9SZw+d+cDyj6Ab+EEvhHFApPYL8iJ9cy6u4pY+eEv9xwpDod668a0ytxpsD1YMABFQogARQhY2GkCEAAU6zeH3hXd/kJK/8z57Zlecb7uZXxrCLqRdtmkmmLXHJ4e9OuXHklsnzBp/iAR786B82CEAAAsoTQAKovDZBRBCAgBMCIhHcu/pI5KdvHphoskq3l5fWTZdIDuReQV++OWxwoihnD7VwFlovGQ3ng8L91lmMlmVLfj5rX3JqzHkkfs5S4ngIQKCnBZAA9rQ4rgcBCHhUYOlT3w3jzGzO8fSzE6srGobzh1w/TgTD+aLu6B1s5p7Gczw4+UyffgFHEoZF7fD19/920c8m5Hm0UigcAhCAgJsFkAC6GRTFQQACyhA4tfGUb35N0xDJak7Y/GXWwMKTlSO4VzCRe+0S+GsMJ4UBXUTKj/JRFR9TyMeekSXr8aEpscdGT088bSBDTthgy6kRI0Y0dVEGdkMAAhBQpAASQEU2C4KCAATcKcC3iY3nc84HmI1mP6vk7Vd5rs7n1T9sCvGV5L6c5QXx1DJ+3LNn4nkGm618W9dgpaomk7H4sWevrTJK1iaD1VRvaKyvixweKSZuxnN97mwclAUBCEAAAhCAAAQgAAEIQAACEIAABCAAAQhAAAIQgAAEIAABCEAAAhCAAAQgAAEIQAACEIAABCAAAQhAAAIQgAAEIAABCEAAAhCAAAQgAAEIQAACEIAAC/w/cElCCnNQIu8AAAAASUVORK5CYII=;" vertex="1" parent="nlxBfLqZfcz5ABgJfBdi-10">
          <mxGeometry x="310" y="-18.130000000000006" width="100" height="56.25" as="geometry" />
        </mxCell>
        <mxCell id="nlxBfLqZfcz5ABgJfBdi-12" style="edgeStyle=orthogonalEdgeStyle;rounded=0;orthogonalLoop=1;jettySize=auto;html=1;exitX=1;exitY=0.5;exitDx=0;exitDy=0;entryX=0;entryY=0.5;entryDx=0;entryDy=0;startArrow=block;startFill=1;" edge="1" parent="nlxBfLqZfcz5ABgJfBdi-16" source="nlxBfLqZfcz5ABgJfBdi-9" target="nlxBfLqZfcz5ABgJfBdi-3">
          <mxGeometry relative="1" as="geometry" />
        </mxCell>
        <mxCell id="nlxBfLqZfcz5ABgJfBdi-15" value="" style="endArrow=classic;startArrow=classic;html=1;rounded=0;exitX=0.938;exitY=0.531;exitDx=0;exitDy=0;exitPerimeter=0;entryX=0;entryY=0.5;entryDx=0;entryDy=0;" edge="1" parent="nlxBfLqZfcz5ABgJfBdi-16" source="nlxBfLqZfcz5ABgJfBdi-14" target="nlxBfLqZfcz5ABgJfBdi-5">
          <mxGeometry width="50" height="50" relative="1" as="geometry">
            <mxPoint x="330" y="340" as="sourcePoint" />
            <mxPoint x="380" y="290" as="targetPoint" />
            <Array as="points" />
          </mxGeometry>
        </mxCell>
        <mxCell id="nlxBfLqZfcz5ABgJfBdi-28" value="" style="group" vertex="1" connectable="0" parent="1">
          <mxGeometry x="690" y="90" width="260" height="260" as="geometry" />
        </mxCell>
        <mxCell id="nlxBfLqZfcz5ABgJfBdi-24" value="&lt;div&gt;&lt;br&gt;&lt;/div&gt;&lt;div&gt;&lt;br&gt;&lt;/div&gt;&lt;div&gt;&lt;br&gt;&lt;/div&gt;&lt;div&gt;&lt;br&gt;&lt;/div&gt;&lt;div&gt;&lt;br&gt;&lt;/div&gt;&lt;div&gt;&lt;br&gt;&lt;/div&gt;&lt;div&gt;&lt;br&gt;&lt;/div&gt;&lt;div&gt;&lt;br&gt;&lt;/div&gt;&lt;div&gt;&lt;br&gt;&lt;/div&gt;&lt;div&gt;&lt;br&gt;&lt;/div&gt;&lt;div&gt;&lt;br&gt;&lt;/div&gt;&lt;div&gt;&lt;br&gt;&lt;/div&gt;&lt;div&gt;&lt;br&gt;&lt;/div&gt;&lt;div&gt;&lt;br&gt;&lt;/div&gt;&lt;div&gt;&lt;br&gt;&lt;/div&gt;&lt;div&gt;&lt;br&gt;&lt;/div&gt;&lt;div&gt;Existing System Datastores&lt;/div&gt;" style="rounded=1;whiteSpace=wrap;html=1;fillColor=#fff2cc;strokeColor=#d6b656;" vertex="1" parent="nlxBfLqZfcz5ABgJfBdi-28">
          <mxGeometry width="260" height="260" as="geometry" />
        </mxCell>
        <mxCell id="nlxBfLqZfcz5ABgJfBdi-25" value="" style="image;aspect=fixed;html=1;points=[];align=center;fontSize=12;image=img/lib/azure2/databases/SQL_Database.svg;" vertex="1" parent="nlxBfLqZfcz5ABgJfBdi-28">
          <mxGeometry x="100" y="20" width="48" height="64" as="geometry" />
        </mxCell>
        <mxCell id="nlxBfLqZfcz5ABgJfBdi-26" value="" style="image;aspect=fixed;html=1;points=[];align=center;fontSize=12;image=img/lib/azure2/databases/Azure_Cosmos_DB.svg;" vertex="1" parent="nlxBfLqZfcz5ABgJfBdi-28">
          <mxGeometry x="98" y="118" width="64" height="64" as="geometry" />
        </mxCell>
        <mxCell id="nlxBfLqZfcz5ABgJfBdi-29" value="" style="group" vertex="1" connectable="0" parent="1">
          <mxGeometry x="30" y="50" width="40" height="170" as="geometry" />
        </mxCell>
        <mxCell id="nlxBfLqZfcz5ABgJfBdi-22" value="&lt;div&gt;&lt;br&gt;&lt;/div&gt;&lt;div&gt;&lt;br&gt;&lt;/div&gt;&lt;div&gt;&lt;br&gt;&lt;/div&gt;&lt;div&gt;&lt;br&gt;&lt;/div&gt;&lt;div&gt;&lt;br&gt;&lt;/div&gt;&lt;div&gt;&lt;br&gt;&lt;/div&gt;SME" style="shape=actor;whiteSpace=wrap;html=1;fillColor=#dae8fc;strokeColor=#6c8ebf;" vertex="1" parent="nlxBfLqZfcz5ABgJfBdi-29">
          <mxGeometry width="40" height="60" as="geometry" />
        </mxCell>
        <mxCell id="nlxBfLqZfcz5ABgJfBdi-23" value="&lt;div&gt;&lt;br&gt;&lt;/div&gt;&lt;div&gt;&lt;br&gt;&lt;/div&gt;&lt;div&gt;&lt;br&gt;&lt;/div&gt;&lt;div&gt;&lt;br&gt;&lt;/div&gt;&lt;div&gt;&lt;br&gt;&lt;/div&gt;&lt;div&gt;&lt;br&gt;&lt;/div&gt;&lt;div&gt;&lt;br&gt;&lt;/div&gt;&lt;div&gt;Data Curator&lt;/div&gt;" style="shape=actor;whiteSpace=wrap;html=1;fillColor=#ffe6cc;strokeColor=#d79b00;" vertex="1" parent="nlxBfLqZfcz5ABgJfBdi-29">
          <mxGeometry y="110" width="40" height="60" as="geometry" />
        </mxCell>
        <mxCell id="nlxBfLqZfcz5ABgJfBdi-32" style="edgeStyle=orthogonalEdgeStyle;rounded=0;orthogonalLoop=1;jettySize=auto;html=1;" edge="1" parent="1" source="nlxBfLqZfcz5ABgJfBdi-22">
          <mxGeometry relative="1" as="geometry">
            <mxPoint x="180" y="98" as="targetPoint" />
          </mxGeometry>
        </mxCell>
        <mxCell id="nlxBfLqZfcz5ABgJfBdi-33" style="edgeStyle=orthogonalEdgeStyle;rounded=0;orthogonalLoop=1;jettySize=auto;html=1;entryX=0.005;entryY=0.194;entryDx=0;entryDy=0;entryPerimeter=0;" edge="1" parent="1" source="nlxBfLqZfcz5ABgJfBdi-23" target="nlxBfLqZfcz5ABgJfBdi-17">
          <mxGeometry relative="1" as="geometry" />
        </mxCell>
        <mxCell id="nlxBfLqZfcz5ABgJfBdi-35" value="" style="endArrow=classic;startArrow=classic;html=1;rounded=0;exitX=0;exitY=0.5;exitDx=0;exitDy=0;entryX=0.995;entryY=0.606;entryDx=0;entryDy=0;entryPerimeter=0;" edge="1" parent="1" source="nlxBfLqZfcz5ABgJfBdi-24" target="nlxBfLqZfcz5ABgJfBdi-17">
          <mxGeometry width="50" height="50" relative="1" as="geometry">
            <mxPoint x="540" y="300" as="sourcePoint" />
            <mxPoint x="630" y="220" as="targetPoint" />
          </mxGeometry>
        </mxCell>
      </root>
    </mxGraphModel>
  </diagram>
</mxfile>
